%FSLAX45Y45*%
G04 Gerber Fmt 4.5, Leading zero omitted, Abs format (unit mm)*
G04 Created by KiCad (PCBNEW (5.99.0-10847-g28909c1a72)) date 2021-06-06 12:58:40*
%MOMM*%
%LPD*%
G01*
G04 APERTURE LIST*
%TA.AperFunction,Profile*%
%ADD10C,0.100000*%
%TD*%
%ADD11C,0.200000*%
%ADD12C,0.040000*%
%ADD13C,0.050000*%
%ADD14C,0.060000*%
G04 APERTURE END LIST*
D10*
X10000000Y-12840000D02*
X10000000Y-4260000D01*
X17000000Y-12840000D02*
G75*
G02*
X16940000Y-12900000I-60000J0D01*
G01*
X10060000Y-12900000D02*
G75*
G02*
X10000000Y-12840000I0J60000D01*
G01*
X16940000Y-12900000D02*
X10060000Y-12900000D01*
X10060000Y-4200000D02*
G75*
G03*
X10000000Y-4260000I0J-60000D01*
G01*
X10060000Y-4200000D02*
X16940000Y-4200000D01*
X17000000Y-4260000D02*
X17000000Y-12840000D01*
X17000000Y-4260000D02*
G75*
G03*
X16940000Y-4200000I-60000J0D01*
G01*
D11*
D12*
X10130000Y-4580000D02*
X10170000Y-4620000D01*
X10170000Y-4580000D02*
X10130000Y-4620000D01*
X10130000Y-5280000D02*
X10170000Y-5320000D01*
X10170000Y-5280000D02*
X10130000Y-5320000D01*
X10130000Y-11770000D02*
X10170000Y-11810000D01*
X10170000Y-11770000D02*
X10130000Y-11810000D01*
X10130000Y-12470000D02*
X10170000Y-12510000D01*
X10170000Y-12470000D02*
X10130000Y-12510000D01*
X10180000Y-5630000D02*
X10220000Y-5670000D01*
X10220000Y-5630000D02*
X10180000Y-5670000D01*
X10250000Y-8340000D02*
X10290000Y-8380000D01*
X10290000Y-8340000D02*
X10250000Y-8380000D01*
X10260000Y-6400000D02*
X10300000Y-6440000D01*
X10300000Y-6400000D02*
X10260000Y-6440000D01*
X10260000Y-7050000D02*
X10300000Y-7090000D01*
X10300000Y-7050000D02*
X10260000Y-7090000D01*
X10260000Y-7690000D02*
X10300000Y-7730000D01*
X10300000Y-7690000D02*
X10260000Y-7730000D01*
X10260000Y-9620000D02*
X10300000Y-9660000D01*
X10300000Y-9620000D02*
X10260000Y-9660000D01*
X10260000Y-10910000D02*
X10300000Y-10950000D01*
X10300000Y-10910000D02*
X10260000Y-10950000D01*
X10260000Y-11560000D02*
X10300000Y-11600000D01*
X10300000Y-11560000D02*
X10260000Y-11600000D01*
X10270000Y-5760000D02*
X10310000Y-5800000D01*
X10310000Y-5760000D02*
X10270000Y-5800000D01*
X10270000Y-8980000D02*
X10310000Y-9020000D01*
X10310000Y-8980000D02*
X10270000Y-9020000D01*
X10270000Y-10270000D02*
X10310000Y-10310000D01*
X10310000Y-10270000D02*
X10270000Y-10310000D01*
X10350324Y-6457550D02*
X10390324Y-6497550D01*
X10390324Y-6457550D02*
X10350324Y-6497550D01*
X10350324Y-7757550D02*
X10390324Y-7797550D01*
X10390324Y-7757550D02*
X10350324Y-7797550D01*
X10351161Y-9707550D02*
X10391161Y-9747550D01*
X10391161Y-9707550D02*
X10351161Y-9747550D01*
X10357550Y-7130000D02*
X10397550Y-7170000D01*
X10397550Y-7130000D02*
X10357550Y-7170000D01*
X10357550Y-8430000D02*
X10397550Y-8470000D01*
X10397550Y-8430000D02*
X10357550Y-8470000D01*
X10357550Y-11020000D02*
X10397550Y-11060000D01*
X10397550Y-11020000D02*
X10357550Y-11060000D01*
X10380000Y-11630000D02*
X10420000Y-11670000D01*
X10420000Y-11630000D02*
X10380000Y-11670000D01*
X10382450Y-10327707D02*
X10422450Y-10367707D01*
X10422450Y-10327707D02*
X10382450Y-10367707D01*
X10395005Y-9027550D02*
X10435005Y-9067550D01*
X10435005Y-9027550D02*
X10395005Y-9067550D01*
X10403770Y-9256230D02*
X10443770Y-9296230D01*
X10443770Y-9256230D02*
X10403770Y-9296230D01*
X10428261Y-11202450D02*
X10468261Y-11242450D01*
X10468261Y-11202450D02*
X10428261Y-11242450D01*
X10430000Y-5780000D02*
X10470000Y-5820000D01*
X10470000Y-5780000D02*
X10430000Y-5820000D01*
X10430000Y-5380000D02*
X10470000Y-5420000D01*
X10470000Y-5380000D02*
X10430000Y-5420000D01*
X10430000Y-6030000D02*
X10470000Y-6070000D01*
X10470000Y-6030000D02*
X10430000Y-6070000D01*
X10430000Y-6680000D02*
X10470000Y-6720000D01*
X10470000Y-6680000D02*
X10430000Y-6720000D01*
X10430000Y-7330000D02*
X10470000Y-7370000D01*
X10470000Y-7330000D02*
X10430000Y-7370000D01*
X10430000Y-7980000D02*
X10470000Y-8020000D01*
X10470000Y-7980000D02*
X10430000Y-8020000D01*
X10430000Y-8642352D02*
X10470000Y-8682352D01*
X10470000Y-8642352D02*
X10430000Y-8682352D01*
X10430000Y-9880000D02*
X10470000Y-9920000D01*
X10470000Y-9880000D02*
X10430000Y-9920000D01*
X10430000Y-10532402D02*
X10470000Y-10572402D01*
X10470000Y-10532402D02*
X10430000Y-10572402D01*
X10578261Y-6457550D02*
X10618261Y-6497550D01*
X10618261Y-6457550D02*
X10578261Y-6497550D01*
X10578261Y-7757550D02*
X10618261Y-7797550D01*
X10618261Y-7757550D02*
X10578261Y-7797550D01*
X10580000Y-5280000D02*
X10620000Y-5320000D01*
X10620000Y-5280000D02*
X10580000Y-5320000D01*
X10580000Y-7130000D02*
X10620000Y-7170000D01*
X10620000Y-7130000D02*
X10580000Y-7170000D01*
X10580000Y-8430000D02*
X10620000Y-8470000D01*
X10620000Y-8430000D02*
X10580000Y-8470000D01*
X10580000Y-9080000D02*
X10620000Y-9120000D01*
X10620000Y-9080000D02*
X10580000Y-9120000D01*
X10580000Y-9707550D02*
X10620000Y-9747550D01*
X10620000Y-9707550D02*
X10580000Y-9747550D01*
X10580000Y-10357550D02*
X10620000Y-10397550D01*
X10620000Y-10357550D02*
X10580000Y-10397550D01*
X10580000Y-11630000D02*
X10620000Y-11670000D01*
X10620000Y-11630000D02*
X10580000Y-11670000D01*
X10611096Y-11038181D02*
X10651096Y-11078181D01*
X10651096Y-11038181D02*
X10611096Y-11078181D01*
X10615862Y-5849817D02*
X10655862Y-5889817D01*
X10655862Y-5849817D02*
X10615862Y-5889817D01*
X10680000Y-4330000D02*
X10720000Y-4370000D01*
X10720000Y-4330000D02*
X10680000Y-4370000D01*
X10700000Y-5980000D02*
X10740000Y-6020000D01*
X10740000Y-5980000D02*
X10700000Y-6020000D01*
X10700000Y-7280000D02*
X10740000Y-7320000D01*
X10740000Y-7280000D02*
X10700000Y-7320000D01*
X10700000Y-7960000D02*
X10740000Y-8000000D01*
X10740000Y-7960000D02*
X10700000Y-8000000D01*
X10700000Y-8610000D02*
X10740000Y-8650000D01*
X10740000Y-8610000D02*
X10700000Y-8650000D01*
X10700000Y-9230000D02*
X10740000Y-9270000D01*
X10740000Y-9230000D02*
X10700000Y-9270000D01*
X10700000Y-9880000D02*
X10740000Y-9920000D01*
X10740000Y-9880000D02*
X10700000Y-9920000D01*
X10700000Y-10540000D02*
X10740000Y-10580000D01*
X10740000Y-10540000D02*
X10700000Y-10580000D01*
X10700000Y-11190000D02*
X10740000Y-11230000D01*
X10740000Y-11190000D02*
X10700000Y-11230000D01*
X10710000Y-6630000D02*
X10750000Y-6670000D01*
X10750000Y-6630000D02*
X10710000Y-6670000D01*
X10730000Y-5340000D02*
X10770000Y-5380000D01*
X10770000Y-5340000D02*
X10730000Y-5380000D01*
X10878261Y-7952450D02*
X10918261Y-7992450D01*
X10918261Y-7952450D02*
X10878261Y-7992450D01*
X10880000Y-7280000D02*
X10920000Y-7320000D01*
X10920000Y-7280000D02*
X10880000Y-7320000D01*
X10980000Y-5380000D02*
X11020000Y-5420000D01*
X11020000Y-5380000D02*
X10980000Y-5420000D01*
X10980000Y-6450000D02*
X11020000Y-6490000D01*
X11020000Y-6450000D02*
X10980000Y-6490000D01*
X10980000Y-6630000D02*
X11020000Y-6670000D01*
X11020000Y-6630000D02*
X10980000Y-6670000D01*
X10980000Y-9040000D02*
X11020000Y-9080000D01*
X11020000Y-9040000D02*
X10980000Y-9080000D01*
X10980000Y-9230000D02*
X11020000Y-9270000D01*
X11020000Y-9230000D02*
X10980000Y-9270000D01*
X10980000Y-10320000D02*
X11020000Y-10360000D01*
X11020000Y-10320000D02*
X10980000Y-10360000D01*
X10980000Y-10970000D02*
X11020000Y-11010000D01*
X11020000Y-10970000D02*
X10980000Y-11010000D01*
X10980000Y-11610000D02*
X11020000Y-11650000D01*
X11020000Y-11610000D02*
X10980000Y-11650000D01*
X11030000Y-9670000D02*
X11070000Y-9710000D01*
X11070000Y-9670000D02*
X11030000Y-9710000D01*
X11060000Y-7750000D02*
X11100000Y-7790000D01*
X11100000Y-7750000D02*
X11060000Y-7790000D01*
X11060000Y-8390000D02*
X11100000Y-8430000D01*
X11100000Y-8390000D02*
X11060000Y-8430000D01*
X11070000Y-7100000D02*
X11110000Y-7140000D01*
X11110000Y-7100000D02*
X11070000Y-7140000D01*
X11090000Y-5800000D02*
X11130000Y-5840000D01*
X11130000Y-5800000D02*
X11090000Y-5840000D01*
X11217648Y-8356024D02*
X11257648Y-8396024D01*
X11257648Y-8356024D02*
X11217648Y-8396024D01*
X11228261Y-10207550D02*
X11268261Y-10247550D01*
X11268261Y-10207550D02*
X11228261Y-10247550D01*
X11230000Y-5280000D02*
X11270000Y-5320000D01*
X11270000Y-5280000D02*
X11230000Y-5320000D01*
X11230000Y-5872450D02*
X11270000Y-5912450D01*
X11270000Y-5872450D02*
X11230000Y-5912450D01*
X11230000Y-7130000D02*
X11270000Y-7170000D01*
X11270000Y-7130000D02*
X11230000Y-7170000D01*
X11230000Y-7780000D02*
X11270000Y-7820000D01*
X11270000Y-7780000D02*
X11230000Y-7820000D01*
X11230000Y-9080000D02*
X11270000Y-9120000D01*
X11270000Y-9080000D02*
X11230000Y-9120000D01*
X11230000Y-11630000D02*
X11270000Y-11670000D01*
X11270000Y-11630000D02*
X11230000Y-11670000D01*
X11245005Y-6442545D02*
X11285005Y-6482545D01*
X11285005Y-6442545D02*
X11245005Y-6482545D01*
X11245005Y-9692545D02*
X11285005Y-9732545D01*
X11285005Y-9692545D02*
X11245005Y-9732545D01*
X11246093Y-11000324D02*
X11286093Y-11040324D01*
X11286093Y-11000324D02*
X11246093Y-11040324D01*
X11330000Y-7930000D02*
X11370000Y-7970000D01*
X11370000Y-7930000D02*
X11330000Y-7970000D01*
X11336468Y-6482850D02*
X11376468Y-6522850D01*
X11376468Y-6482850D02*
X11336468Y-6522850D01*
X11343235Y-10976794D02*
X11383235Y-11016794D01*
X11383235Y-10976794D02*
X11343235Y-11016794D01*
X11343884Y-9677951D02*
X11383884Y-9717951D01*
X11383884Y-9677951D02*
X11343884Y-9717951D01*
X11380000Y-4330000D02*
X11420000Y-4370000D01*
X11420000Y-4330000D02*
X11380000Y-4370000D01*
X11430000Y-6330000D02*
X11470000Y-6370000D01*
X11470000Y-6330000D02*
X11430000Y-6370000D01*
X11430000Y-9530000D02*
X11470000Y-9570000D01*
X11470000Y-9530000D02*
X11430000Y-9570000D01*
X11431230Y-7928770D02*
X11471230Y-7968770D01*
X11471230Y-7928770D02*
X11431230Y-7968770D01*
X11446251Y-10977351D02*
X11486251Y-11017351D01*
X11486251Y-10977351D02*
X11446251Y-11017351D01*
X11505000Y-6034950D02*
X11545000Y-6074950D01*
X11545000Y-6034950D02*
X11505000Y-6074950D01*
X11530000Y-6230000D02*
X11570000Y-6270000D01*
X11570000Y-6230000D02*
X11530000Y-6270000D01*
X11530000Y-7830000D02*
X11570000Y-7870000D01*
X11570000Y-7830000D02*
X11530000Y-7870000D01*
X11530000Y-9430000D02*
X11570000Y-9470000D01*
X11570000Y-9430000D02*
X11530000Y-9470000D01*
X11546166Y-10980010D02*
X11586166Y-11020010D01*
X11586166Y-10980010D02*
X11546166Y-11020010D01*
X11580000Y-9230000D02*
X11620000Y-9270000D01*
X11620000Y-9230000D02*
X11580000Y-9270000D01*
X11580000Y-9880000D02*
X11620000Y-9920000D01*
X11620000Y-9880000D02*
X11580000Y-9920000D01*
X11580000Y-10830000D02*
X11620000Y-10870000D01*
X11620000Y-10830000D02*
X11580000Y-10870000D01*
X11588015Y-8271985D02*
X11628015Y-8311985D01*
X11628015Y-8271985D02*
X11588015Y-8311985D01*
X11600000Y-5330000D02*
X11640000Y-5370000D01*
X11640000Y-5330000D02*
X11600000Y-5370000D01*
X11602450Y-6678261D02*
X11642450Y-6718261D01*
X11642450Y-6678261D02*
X11602450Y-6718261D01*
X11602450Y-7680000D02*
X11642450Y-7720000D01*
X11642450Y-7680000D02*
X11602450Y-7720000D01*
X11710000Y-8900000D02*
X11750000Y-8940000D01*
X11750000Y-8900000D02*
X11710000Y-8940000D01*
X11760000Y-12080000D02*
X11800000Y-12120000D01*
X11800000Y-12080000D02*
X11760000Y-12120000D01*
X11774950Y-7300000D02*
X11814950Y-7340000D01*
X11814950Y-7300000D02*
X11774950Y-7340000D01*
X11810000Y-10500000D02*
X11850000Y-10540000D01*
X11850000Y-10500000D02*
X11810000Y-10540000D01*
X11830000Y-11630000D02*
X11870000Y-11670000D01*
X11870000Y-11630000D02*
X11830000Y-11670000D01*
X11874846Y-9732307D02*
X11914846Y-9772307D01*
X11914846Y-9732307D02*
X11874846Y-9772307D01*
X11880000Y-5280000D02*
X11920000Y-5320000D01*
X11920000Y-5280000D02*
X11880000Y-5320000D01*
X11880000Y-6580000D02*
X11920000Y-6620000D01*
X11920000Y-6580000D02*
X11880000Y-6620000D01*
X11887239Y-11058406D02*
X11927239Y-11098406D01*
X11927239Y-11058406D02*
X11887239Y-11098406D01*
X11889950Y-7931759D02*
X11929950Y-7971759D01*
X11929950Y-7931759D02*
X11889950Y-7971759D01*
X11917453Y-9056798D02*
X11957453Y-9096798D01*
X11957453Y-9056798D02*
X11917453Y-9096798D01*
X11966072Y-9691468D02*
X12006072Y-9731468D01*
X12006072Y-9691468D02*
X11966072Y-9731468D01*
X11980000Y-5830000D02*
X12020000Y-5870000D01*
X12020000Y-5830000D02*
X11980000Y-5870000D01*
X11980000Y-6480000D02*
X12020000Y-6520000D01*
X12020000Y-6480000D02*
X11980000Y-6520000D01*
X11982550Y-11028309D02*
X12022550Y-11068309D01*
X12022550Y-11028309D02*
X11982550Y-11068309D01*
X12003951Y-7774835D02*
X12043951Y-7814835D01*
X12043951Y-7774835D02*
X12003951Y-7814835D01*
X12007402Y-8425190D02*
X12047402Y-8465190D01*
X12047402Y-8425190D02*
X12007402Y-8465190D01*
X12052450Y-10380000D02*
X12092450Y-10420000D01*
X12092450Y-10380000D02*
X12052450Y-10420000D01*
X12055000Y-10880000D02*
X12095000Y-10920000D01*
X12095000Y-10880000D02*
X12055000Y-10920000D01*
X12057643Y-7053453D02*
X12097643Y-7093453D01*
X12097643Y-7053453D02*
X12057643Y-7093453D01*
X12073218Y-9581526D02*
X12113218Y-9621526D01*
X12113218Y-9581526D02*
X12073218Y-9621526D01*
X12076401Y-8278117D02*
X12116401Y-8318117D01*
X12116401Y-8278117D02*
X12076401Y-8318117D01*
X12080000Y-4330000D02*
X12120000Y-4370000D01*
X12120000Y-4330000D02*
X12080000Y-4370000D01*
X12091840Y-7289380D02*
X12131840Y-7329380D01*
X12131840Y-7289380D02*
X12091840Y-7329380D01*
X12191229Y-7278805D02*
X12231229Y-7318805D01*
X12231229Y-7278805D02*
X12191229Y-7318805D01*
X12230000Y-6930000D02*
X12270000Y-6970000D01*
X12270000Y-6930000D02*
X12230000Y-6970000D01*
X12260000Y-12530000D02*
X12300000Y-12570000D01*
X12300000Y-12530000D02*
X12260000Y-12570000D01*
X12340000Y-11830000D02*
X12380000Y-11870000D01*
X12380000Y-11830000D02*
X12340000Y-11870000D01*
X12380000Y-8080000D02*
X12420000Y-8120000D01*
X12420000Y-8080000D02*
X12380000Y-8120000D01*
X12430000Y-7730000D02*
X12470000Y-7770000D01*
X12470000Y-7730000D02*
X12430000Y-7770000D01*
X12430000Y-7880000D02*
X12470000Y-7920000D01*
X12470000Y-7880000D02*
X12430000Y-7920000D01*
X12440000Y-11020000D02*
X12480000Y-11060000D01*
X12480000Y-11020000D02*
X12440000Y-11060000D01*
X12440000Y-11620000D02*
X12480000Y-11660000D01*
X12480000Y-11620000D02*
X12440000Y-11660000D01*
X12496985Y-7096985D02*
X12536985Y-7136985D01*
X12536985Y-7096985D02*
X12496985Y-7136985D01*
X12530000Y-5280000D02*
X12570000Y-5320000D01*
X12570000Y-5280000D02*
X12530000Y-5320000D01*
X12530000Y-5830000D02*
X12570000Y-5870000D01*
X12570000Y-5830000D02*
X12530000Y-5870000D01*
X12530000Y-6542950D02*
X12570000Y-6582950D01*
X12570000Y-6542950D02*
X12530000Y-6582950D01*
X12530000Y-7780000D02*
X12570000Y-7820000D01*
X12570000Y-7780000D02*
X12530000Y-7820000D01*
X12530000Y-8430000D02*
X12570000Y-8470000D01*
X12570000Y-8430000D02*
X12530000Y-8470000D01*
X12530000Y-9080000D02*
X12570000Y-9120000D01*
X12570000Y-9080000D02*
X12530000Y-9120000D01*
X12530000Y-9730000D02*
X12570000Y-9770000D01*
X12570000Y-9730000D02*
X12530000Y-9770000D01*
X12530000Y-10380000D02*
X12570000Y-10420000D01*
X12570000Y-10380000D02*
X12530000Y-10420000D01*
X12780000Y-4330000D02*
X12820000Y-4370000D01*
X12820000Y-4330000D02*
X12780000Y-4370000D01*
X12780000Y-12060000D02*
X12820000Y-12100000D01*
X12820000Y-12060000D02*
X12780000Y-12100000D01*
X12780000Y-12160000D02*
X12820000Y-12200000D01*
X12820000Y-12160000D02*
X12780000Y-12200000D01*
X12827450Y-10965040D02*
X12867450Y-11005040D01*
X12867450Y-10965040D02*
X12827450Y-11005040D01*
X12830000Y-10580000D02*
X12870000Y-10620000D01*
X12870000Y-10580000D02*
X12830000Y-10620000D01*
X12830000Y-10755000D02*
X12870000Y-10795000D01*
X12870000Y-10755000D02*
X12830000Y-10795000D01*
X12830000Y-10855000D02*
X12870000Y-10895000D01*
X12870000Y-10855000D02*
X12830000Y-10895000D01*
X12830000Y-11080000D02*
X12870000Y-11120000D01*
X12870000Y-11080000D02*
X12830000Y-11120000D01*
X12830000Y-11180000D02*
X12870000Y-11220000D01*
X12870000Y-11180000D02*
X12830000Y-11220000D01*
X12856935Y-11707550D02*
X12896935Y-11747550D01*
X12896935Y-11707550D02*
X12856935Y-11747550D01*
X12860000Y-11480000D02*
X12900000Y-11520000D01*
X12900000Y-11480000D02*
X12860000Y-11520000D01*
X12860000Y-11600000D02*
X12900000Y-11640000D01*
X12900000Y-11600000D02*
X12860000Y-11640000D01*
X12950000Y-11650000D02*
X12990000Y-11690000D01*
X12990000Y-11650000D02*
X12950000Y-11690000D01*
X13009901Y-6334069D02*
X13049901Y-6374069D01*
X13049901Y-6334069D02*
X13009901Y-6374069D01*
X13020000Y-8800000D02*
X13060000Y-8840000D01*
X13060000Y-8800000D02*
X13020000Y-8840000D01*
X13180000Y-5280000D02*
X13220000Y-5320000D01*
X13220000Y-5280000D02*
X13180000Y-5320000D01*
X13180000Y-5830000D02*
X13220000Y-5870000D01*
X13220000Y-5830000D02*
X13180000Y-5870000D01*
X13180000Y-7130000D02*
X13220000Y-7170000D01*
X13220000Y-7130000D02*
X13180000Y-7170000D01*
X13180000Y-7780000D02*
X13220000Y-7820000D01*
X13220000Y-7780000D02*
X13180000Y-7820000D01*
X13180000Y-8430000D02*
X13220000Y-8470000D01*
X13220000Y-8430000D02*
X13180000Y-8470000D01*
X13180000Y-9080000D02*
X13220000Y-9120000D01*
X13220000Y-9080000D02*
X13180000Y-9120000D01*
X13180000Y-9730000D02*
X13220000Y-9770000D01*
X13220000Y-9730000D02*
X13180000Y-9770000D01*
X13180000Y-10380000D02*
X13220000Y-10420000D01*
X13220000Y-10380000D02*
X13180000Y-10420000D01*
X13300000Y-9080000D02*
X13340000Y-9120000D01*
X13340000Y-9080000D02*
X13300000Y-9120000D01*
X13330000Y-8210000D02*
X13370000Y-8250000D01*
X13370000Y-8210000D02*
X13330000Y-8250000D01*
X13330000Y-11355000D02*
X13370000Y-11395000D01*
X13370000Y-11355000D02*
X13330000Y-11395000D01*
X13330000Y-11570000D02*
X13370000Y-11610000D01*
X13370000Y-11570000D02*
X13330000Y-11610000D01*
X13330000Y-11710000D02*
X13370000Y-11750000D01*
X13370000Y-11710000D02*
X13330000Y-11750000D01*
X13480000Y-4330000D02*
X13520000Y-4370000D01*
X13520000Y-4330000D02*
X13480000Y-4370000D01*
X13530000Y-9190000D02*
X13570000Y-9230000D01*
X13570000Y-9190000D02*
X13530000Y-9230000D01*
X13580000Y-10280000D02*
X13620000Y-10320000D01*
X13620000Y-10280000D02*
X13580000Y-10320000D01*
X13600000Y-8380000D02*
X13640000Y-8420000D01*
X13640000Y-8380000D02*
X13600000Y-8420000D01*
X13670000Y-9120000D02*
X13710000Y-9160000D01*
X13710000Y-9120000D02*
X13670000Y-9160000D01*
X13671985Y-5671985D02*
X13711985Y-5711985D01*
X13711985Y-5671985D02*
X13671985Y-5711985D01*
X13786587Y-5236587D02*
X13826587Y-5276587D01*
X13826587Y-5236587D02*
X13786587Y-5276587D01*
X13830000Y-6480000D02*
X13870000Y-6520000D01*
X13870000Y-6480000D02*
X13830000Y-6520000D01*
X13830000Y-7130000D02*
X13870000Y-7170000D01*
X13870000Y-7130000D02*
X13830000Y-7170000D01*
X13830000Y-7780000D02*
X13870000Y-7820000D01*
X13870000Y-7780000D02*
X13830000Y-7820000D01*
X13830000Y-8430000D02*
X13870000Y-8470000D01*
X13870000Y-8430000D02*
X13830000Y-8470000D01*
X13830000Y-9080000D02*
X13870000Y-9120000D01*
X13870000Y-9080000D02*
X13830000Y-9120000D01*
X13830000Y-9730000D02*
X13870000Y-9770000D01*
X13870000Y-9730000D02*
X13830000Y-9770000D01*
X13830000Y-11030000D02*
X13870000Y-11070000D01*
X13870000Y-11030000D02*
X13830000Y-11070000D01*
X13830000Y-11630000D02*
X13870000Y-11670000D01*
X13870000Y-11630000D02*
X13830000Y-11670000D01*
X13960000Y-10140000D02*
X14000000Y-10180000D01*
X14000000Y-10140000D02*
X13960000Y-10180000D01*
X14180000Y-4330000D02*
X14220000Y-4370000D01*
X14220000Y-4330000D02*
X14180000Y-4370000D01*
X14280000Y-9430000D02*
X14320000Y-9470000D01*
X14320000Y-9430000D02*
X14280000Y-9470000D01*
X14280000Y-10140000D02*
X14320000Y-10180000D01*
X14320000Y-10140000D02*
X14280000Y-10180000D01*
X14446665Y-5329901D02*
X14486665Y-5369901D01*
X14486665Y-5329901D02*
X14446665Y-5369901D01*
X14465420Y-5857550D02*
X14505420Y-5897550D01*
X14505420Y-5857550D02*
X14465420Y-5897550D01*
X14480000Y-6480000D02*
X14520000Y-6520000D01*
X14520000Y-6480000D02*
X14480000Y-6520000D01*
X14480000Y-7130000D02*
X14520000Y-7170000D01*
X14520000Y-7130000D02*
X14480000Y-7170000D01*
X14480000Y-7780000D02*
X14520000Y-7820000D01*
X14520000Y-7780000D02*
X14480000Y-7820000D01*
X14480000Y-8430000D02*
X14520000Y-8470000D01*
X14520000Y-8430000D02*
X14480000Y-8470000D01*
X14480000Y-9080000D02*
X14520000Y-9120000D01*
X14520000Y-9080000D02*
X14480000Y-9120000D01*
X14480000Y-9730000D02*
X14520000Y-9770000D01*
X14520000Y-9730000D02*
X14480000Y-9770000D01*
X14480000Y-11020550D02*
X14520000Y-11060550D01*
X14520000Y-11020550D02*
X14480000Y-11060550D01*
X14480000Y-11640450D02*
X14520000Y-11680450D01*
X14520000Y-11640450D02*
X14480000Y-11680450D01*
X14606259Y-10148719D02*
X14646259Y-10188719D01*
X14646259Y-10148719D02*
X14606259Y-10188719D01*
X14780000Y-9250000D02*
X14820000Y-9290000D01*
X14820000Y-9250000D02*
X14780000Y-9290000D01*
X14820000Y-10140000D02*
X14860000Y-10180000D01*
X14860000Y-10140000D02*
X14820000Y-10180000D01*
X14860000Y-11620000D02*
X14900000Y-11660000D01*
X14900000Y-11620000D02*
X14860000Y-11660000D01*
X14880000Y-4330000D02*
X14920000Y-4370000D01*
X14920000Y-4330000D02*
X14880000Y-4370000D01*
X14940000Y-11740000D02*
X14980000Y-11780000D01*
X14980000Y-11740000D02*
X14940000Y-11780000D01*
X15029792Y-11627748D02*
X15069792Y-11667748D01*
X15069792Y-11627748D02*
X15029792Y-11667748D01*
X15030000Y-5257550D02*
X15070000Y-5297550D01*
X15070000Y-5257550D02*
X15030000Y-5297550D01*
X15030000Y-5830000D02*
X15070000Y-5870000D01*
X15070000Y-5830000D02*
X15030000Y-5870000D01*
X15030000Y-6480000D02*
X15070000Y-6520000D01*
X15070000Y-6480000D02*
X15030000Y-6520000D01*
X15030000Y-7130000D02*
X15070000Y-7170000D01*
X15070000Y-7130000D02*
X15030000Y-7170000D01*
X15030000Y-7780000D02*
X15070000Y-7820000D01*
X15070000Y-7780000D02*
X15030000Y-7820000D01*
X15030000Y-8430000D02*
X15070000Y-8470000D01*
X15070000Y-8430000D02*
X15030000Y-8470000D01*
X15030000Y-9080000D02*
X15070000Y-9120000D01*
X15070000Y-9080000D02*
X15030000Y-9120000D01*
X15030000Y-9730000D02*
X15070000Y-9770000D01*
X15070000Y-9730000D02*
X15030000Y-9770000D01*
X15030000Y-10980000D02*
X15070000Y-11020000D01*
X15070000Y-10980000D02*
X15030000Y-11020000D01*
X15043007Y-11832450D02*
X15083007Y-11872450D01*
X15083007Y-11832450D02*
X15043007Y-11872450D01*
X15220000Y-10300000D02*
X15260000Y-10340000D01*
X15260000Y-10300000D02*
X15220000Y-10340000D01*
X15302450Y-10130000D02*
X15342450Y-10170000D01*
X15342450Y-10130000D02*
X15302450Y-10170000D01*
X15330000Y-8510000D02*
X15370000Y-8550000D01*
X15370000Y-8510000D02*
X15330000Y-8550000D01*
X15440000Y-8510000D02*
X15480000Y-8550000D01*
X15480000Y-8510000D02*
X15440000Y-8550000D01*
X15580000Y-4330000D02*
X15620000Y-4370000D01*
X15620000Y-4330000D02*
X15580000Y-4370000D01*
X15600000Y-9240000D02*
X15640000Y-9280000D01*
X15640000Y-9240000D02*
X15600000Y-9280000D01*
X15720000Y-9760000D02*
X15760000Y-9800000D01*
X15760000Y-9760000D02*
X15720000Y-9800000D01*
X15728770Y-11608770D02*
X15768770Y-11648770D01*
X15768770Y-11608770D02*
X15728770Y-11648770D01*
X15730000Y-5280000D02*
X15770000Y-5320000D01*
X15770000Y-5280000D02*
X15730000Y-5320000D01*
X15730000Y-5830000D02*
X15770000Y-5870000D01*
X15770000Y-5830000D02*
X15730000Y-5870000D01*
X15730000Y-6480000D02*
X15770000Y-6520000D01*
X15770000Y-6480000D02*
X15730000Y-6520000D01*
X15730000Y-7130000D02*
X15770000Y-7170000D01*
X15770000Y-7130000D02*
X15730000Y-7170000D01*
X15730000Y-7780000D02*
X15770000Y-7820000D01*
X15770000Y-7780000D02*
X15730000Y-7820000D01*
X15730000Y-8430000D02*
X15770000Y-8470000D01*
X15770000Y-8430000D02*
X15730000Y-8470000D01*
X15730000Y-9080000D02*
X15770000Y-9120000D01*
X15770000Y-9080000D02*
X15730000Y-9120000D01*
X15730000Y-10380000D02*
X15770000Y-10420000D01*
X15770000Y-10380000D02*
X15730000Y-10420000D01*
X15730000Y-10980000D02*
X15770000Y-11020000D01*
X15770000Y-10980000D02*
X15730000Y-11020000D01*
X15886662Y-10100667D02*
X15926662Y-10140667D01*
X15926662Y-10100667D02*
X15886662Y-10140667D01*
X15957853Y-10177876D02*
X15997853Y-10217876D01*
X15997853Y-10177876D02*
X15957853Y-10217876D01*
X15960000Y-10750000D02*
X16000000Y-10790000D01*
X16000000Y-10750000D02*
X15960000Y-10790000D01*
X16280000Y-4330000D02*
X16320000Y-4370000D01*
X16320000Y-4330000D02*
X16280000Y-4370000D01*
X16330193Y-12357123D02*
X16370193Y-12397123D01*
X16370193Y-12357123D02*
X16330193Y-12397123D01*
X16380000Y-5280000D02*
X16420000Y-5320000D01*
X16420000Y-5280000D02*
X16380000Y-5320000D01*
X16380000Y-5830000D02*
X16420000Y-5870000D01*
X16420000Y-5830000D02*
X16380000Y-5870000D01*
X16380000Y-6480000D02*
X16420000Y-6520000D01*
X16420000Y-6480000D02*
X16380000Y-6520000D01*
X16380000Y-7130000D02*
X16420000Y-7170000D01*
X16420000Y-7130000D02*
X16380000Y-7170000D01*
X16380000Y-7780000D02*
X16420000Y-7820000D01*
X16420000Y-7780000D02*
X16380000Y-7820000D01*
X16380000Y-8430000D02*
X16420000Y-8470000D01*
X16420000Y-8430000D02*
X16380000Y-8470000D01*
X16380000Y-9080000D02*
X16420000Y-9120000D01*
X16420000Y-9080000D02*
X16380000Y-9120000D01*
X16380000Y-9730000D02*
X16420000Y-9770000D01*
X16420000Y-9730000D02*
X16380000Y-9770000D01*
X16380000Y-10380000D02*
X16420000Y-10420000D01*
X16420000Y-10380000D02*
X16380000Y-10420000D01*
X16380000Y-11705000D02*
X16420000Y-11745000D01*
X16420000Y-11705000D02*
X16380000Y-11745000D01*
X16380000Y-10980000D02*
X16420000Y-11020000D01*
X16420000Y-10980000D02*
X16380000Y-11020000D01*
X16404440Y-12282877D02*
X16444440Y-12322877D01*
X16444440Y-12282877D02*
X16404440Y-12322877D01*
X16510000Y-10980000D02*
X16550000Y-11020000D01*
X16550000Y-10980000D02*
X16510000Y-11020000D01*
X16830000Y-5130000D02*
X16870000Y-5170000D01*
X16870000Y-5130000D02*
X16830000Y-5170000D01*
X16830000Y-5830000D02*
X16870000Y-5870000D01*
X16870000Y-5830000D02*
X16830000Y-5870000D01*
X16830000Y-6530000D02*
X16870000Y-6570000D01*
X16870000Y-6530000D02*
X16830000Y-6570000D01*
X16830000Y-7230000D02*
X16870000Y-7270000D01*
X16870000Y-7230000D02*
X16830000Y-7270000D01*
X16830000Y-7930000D02*
X16870000Y-7970000D01*
X16870000Y-7930000D02*
X16830000Y-7970000D01*
D13*
X12275000Y-8480000D02*
G75*
G03*
X12275000Y-8480000I-25000J0D01*
G01*
X12275000Y-10120000D02*
G75*
G03*
X12275000Y-10120000I-25000J0D01*
G01*
X12275000Y-11680000D02*
G75*
G03*
X12275000Y-11680000I-25000J0D01*
G01*
X14135000Y-11000000D02*
G75*
G03*
X14135000Y-11000000I-25000J0D01*
G01*
X14135000Y-11700000D02*
G75*
G03*
X14135000Y-11700000I-25000J0D01*
G01*
X15705000Y-11990000D02*
G75*
G03*
X15705000Y-11990000I-25000J0D01*
G01*
X15705000Y-12140000D02*
G75*
G03*
X15705000Y-12140000I-25000J0D01*
G01*
X15985000Y-12780000D02*
G75*
G03*
X15985000Y-12780000I-25000J0D01*
G01*
X16005000Y-8410000D02*
G75*
G03*
X16005000Y-8410000I-25000J0D01*
G01*
X16115000Y-8410000D02*
G75*
G03*
X16115000Y-8410000I-25000J0D01*
G01*
X16165000Y-11740000D02*
G75*
G03*
X16165000Y-11740000I-25000J0D01*
G01*
X16875000Y-11400000D02*
G75*
G03*
X16875000Y-11400000I-25000J0D01*
G01*
X16875000Y-11980000D02*
G75*
G03*
X16875000Y-11980000I-25000J0D01*
G01*
X16875000Y-12620000D02*
G75*
G03*
X16875000Y-12620000I-25000J0D01*
G01*
D14*
X16302000Y-11838000D02*
X16302000Y-11898000D01*
X16272000Y-11868000D02*
X16332000Y-11868000D01*
D11*
X16357000Y-11848000D02*
X16247000Y-11848000D01*
X16357000Y-11888000D02*
X16247000Y-11888000D01*
X16247000Y-11848000D02*
G75*
G03*
X16247000Y-11888000I0J-20000D01*
G01*
X16357000Y-11888000D02*
G75*
G03*
X16357000Y-11848000I0J20000D01*
G01*
D14*
X16302000Y-12702000D02*
X16302000Y-12762000D01*
X16272000Y-12732000D02*
X16332000Y-12732000D01*
D11*
X16357000Y-12712000D02*
X16247000Y-12712000D01*
X16357000Y-12752000D02*
X16247000Y-12752000D01*
X16247000Y-12712000D02*
G75*
G03*
X16247000Y-12752000I0J-20000D01*
G01*
X16357000Y-12752000D02*
G75*
G03*
X16357000Y-12712000I0J20000D01*
G01*
D14*
X16720000Y-11838000D02*
X16720000Y-11898000D01*
X16690000Y-11868000D02*
X16750000Y-11868000D01*
D11*
X16750000Y-11848000D02*
X16690000Y-11848000D01*
X16750000Y-11888000D02*
X16690000Y-11888000D01*
X16690000Y-11848000D02*
G75*
G03*
X16690000Y-11888000I0J-20000D01*
G01*
X16750000Y-11888000D02*
G75*
G03*
X16750000Y-11848000I0J20000D01*
G01*
D14*
X16720000Y-12702000D02*
X16720000Y-12762000D01*
X16690000Y-12732000D02*
X16750000Y-12732000D01*
D11*
X16750000Y-12712000D02*
X16690000Y-12712000D01*
X16750000Y-12752000D02*
X16690000Y-12752000D01*
X16690000Y-12712000D02*
G75*
G03*
X16690000Y-12752000I0J-20000D01*
G01*
X16750000Y-12752000D02*
G75*
G03*
X16750000Y-12712000I0J20000D01*
G01*
X10242619Y-13225476D02*
X10242619Y-13025476D01*
X10290238Y-13025476D01*
X10318810Y-13035000D01*
X10337857Y-13054048D01*
X10347381Y-13073095D01*
X10356905Y-13111190D01*
X10356905Y-13139762D01*
X10347381Y-13177857D01*
X10337857Y-13196905D01*
X10318810Y-13215952D01*
X10290238Y-13225476D01*
X10242619Y-13225476D01*
X10442619Y-13225476D02*
X10442619Y-13092143D01*
X10442619Y-13130238D02*
X10452143Y-13111190D01*
X10461667Y-13101667D01*
X10480714Y-13092143D01*
X10499762Y-13092143D01*
X10566429Y-13225476D02*
X10566429Y-13092143D01*
X10566429Y-13025476D02*
X10556905Y-13035000D01*
X10566429Y-13044524D01*
X10575952Y-13035000D01*
X10566429Y-13025476D01*
X10566429Y-13044524D01*
X10690238Y-13225476D02*
X10671190Y-13215952D01*
X10661667Y-13196905D01*
X10661667Y-13025476D01*
X10795000Y-13225476D02*
X10775952Y-13215952D01*
X10766429Y-13196905D01*
X10766429Y-13025476D01*
X11023571Y-13225476D02*
X11023571Y-13025476D01*
X11090238Y-13168333D01*
X11156905Y-13025476D01*
X11156905Y-13225476D01*
X11337857Y-13225476D02*
X11337857Y-13120714D01*
X11328333Y-13101667D01*
X11309286Y-13092143D01*
X11271190Y-13092143D01*
X11252143Y-13101667D01*
X11337857Y-13215952D02*
X11318809Y-13225476D01*
X11271190Y-13225476D01*
X11252143Y-13215952D01*
X11242619Y-13196905D01*
X11242619Y-13177857D01*
X11252143Y-13158809D01*
X11271190Y-13149286D01*
X11318809Y-13149286D01*
X11337857Y-13139762D01*
X11433095Y-13092143D02*
X11433095Y-13292143D01*
X11433095Y-13101667D02*
X11452143Y-13092143D01*
X11490238Y-13092143D01*
X11509286Y-13101667D01*
X11518809Y-13111190D01*
X11528333Y-13130238D01*
X11528333Y-13187381D01*
X11518809Y-13206428D01*
X11509286Y-13215952D01*
X11490238Y-13225476D01*
X11452143Y-13225476D01*
X11433095Y-13215952D01*
X11614048Y-13206428D02*
X11623571Y-13215952D01*
X11614048Y-13225476D01*
X11604524Y-13215952D01*
X11614048Y-13206428D01*
X11614048Y-13225476D01*
X11614048Y-13101667D02*
X11623571Y-13111190D01*
X11614048Y-13120714D01*
X11604524Y-13111190D01*
X11614048Y-13101667D01*
X11614048Y-13120714D01*
D12*
X9945000Y-13535000D02*
X9985000Y-13575000D01*
X9985000Y-13535000D02*
X9945000Y-13575000D01*
D11*
X10280714Y-13445476D02*
X10299762Y-13445476D01*
X10318810Y-13455000D01*
X10328333Y-13464524D01*
X10337857Y-13483571D01*
X10347381Y-13521667D01*
X10347381Y-13569286D01*
X10337857Y-13607381D01*
X10328333Y-13626428D01*
X10318810Y-13635952D01*
X10299762Y-13645476D01*
X10280714Y-13645476D01*
X10261667Y-13635952D01*
X10252143Y-13626428D01*
X10242619Y-13607381D01*
X10233095Y-13569286D01*
X10233095Y-13521667D01*
X10242619Y-13483571D01*
X10252143Y-13464524D01*
X10261667Y-13455000D01*
X10280714Y-13445476D01*
X10433095Y-13626428D02*
X10442619Y-13635952D01*
X10433095Y-13645476D01*
X10423571Y-13635952D01*
X10433095Y-13626428D01*
X10433095Y-13645476D01*
X10614048Y-13512143D02*
X10614048Y-13645476D01*
X10566429Y-13435952D02*
X10518810Y-13578809D01*
X10642619Y-13578809D01*
X10756905Y-13445476D02*
X10775952Y-13445476D01*
X10795000Y-13455000D01*
X10804524Y-13464524D01*
X10814048Y-13483571D01*
X10823571Y-13521667D01*
X10823571Y-13569286D01*
X10814048Y-13607381D01*
X10804524Y-13626428D01*
X10795000Y-13635952D01*
X10775952Y-13645476D01*
X10756905Y-13645476D01*
X10737857Y-13635952D01*
X10728333Y-13626428D01*
X10718810Y-13607381D01*
X10709286Y-13569286D01*
X10709286Y-13521667D01*
X10718810Y-13483571D01*
X10728333Y-13464524D01*
X10737857Y-13455000D01*
X10756905Y-13445476D01*
X10947381Y-13445476D02*
X10966429Y-13445476D01*
X10985476Y-13455000D01*
X10995000Y-13464524D01*
X11004524Y-13483571D01*
X11014048Y-13521667D01*
X11014048Y-13569286D01*
X11004524Y-13607381D01*
X10995000Y-13626428D01*
X10985476Y-13635952D01*
X10966429Y-13645476D01*
X10947381Y-13645476D01*
X10928333Y-13635952D01*
X10918810Y-13626428D01*
X10909286Y-13607381D01*
X10899762Y-13569286D01*
X10899762Y-13521667D01*
X10909286Y-13483571D01*
X10918810Y-13464524D01*
X10928333Y-13455000D01*
X10947381Y-13445476D01*
X11099762Y-13645476D02*
X11099762Y-13512143D01*
X11099762Y-13531190D02*
X11109286Y-13521667D01*
X11128333Y-13512143D01*
X11156905Y-13512143D01*
X11175952Y-13521667D01*
X11185476Y-13540714D01*
X11185476Y-13645476D01*
X11185476Y-13540714D02*
X11195000Y-13521667D01*
X11214048Y-13512143D01*
X11242619Y-13512143D01*
X11261667Y-13521667D01*
X11271190Y-13540714D01*
X11271190Y-13645476D01*
X11366428Y-13645476D02*
X11366428Y-13512143D01*
X11366428Y-13531190D02*
X11375952Y-13521667D01*
X11395000Y-13512143D01*
X11423571Y-13512143D01*
X11442619Y-13521667D01*
X11452143Y-13540714D01*
X11452143Y-13645476D01*
X11452143Y-13540714D02*
X11461667Y-13521667D01*
X11480714Y-13512143D01*
X11509286Y-13512143D01*
X11528333Y-13521667D01*
X11537857Y-13540714D01*
X11537857Y-13645476D01*
X11928333Y-13435952D02*
X11756905Y-13693095D01*
X12185476Y-13445476D02*
X12204524Y-13445476D01*
X12223571Y-13455000D01*
X12233095Y-13464524D01*
X12242619Y-13483571D01*
X12252143Y-13521667D01*
X12252143Y-13569286D01*
X12242619Y-13607381D01*
X12233095Y-13626428D01*
X12223571Y-13635952D01*
X12204524Y-13645476D01*
X12185476Y-13645476D01*
X12166428Y-13635952D01*
X12156905Y-13626428D01*
X12147381Y-13607381D01*
X12137857Y-13569286D01*
X12137857Y-13521667D01*
X12147381Y-13483571D01*
X12156905Y-13464524D01*
X12166428Y-13455000D01*
X12185476Y-13445476D01*
X12337857Y-13626428D02*
X12347381Y-13635952D01*
X12337857Y-13645476D01*
X12328333Y-13635952D01*
X12337857Y-13626428D01*
X12337857Y-13645476D01*
X12471190Y-13445476D02*
X12490238Y-13445476D01*
X12509286Y-13455000D01*
X12518809Y-13464524D01*
X12528333Y-13483571D01*
X12537857Y-13521667D01*
X12537857Y-13569286D01*
X12528333Y-13607381D01*
X12518809Y-13626428D01*
X12509286Y-13635952D01*
X12490238Y-13645476D01*
X12471190Y-13645476D01*
X12452143Y-13635952D01*
X12442619Y-13626428D01*
X12433095Y-13607381D01*
X12423571Y-13569286D01*
X12423571Y-13521667D01*
X12433095Y-13483571D01*
X12442619Y-13464524D01*
X12452143Y-13455000D01*
X12471190Y-13445476D01*
X12728333Y-13645476D02*
X12614048Y-13645476D01*
X12671190Y-13645476D02*
X12671190Y-13445476D01*
X12652143Y-13474048D01*
X12633095Y-13493095D01*
X12614048Y-13502619D01*
X12909286Y-13445476D02*
X12814048Y-13445476D01*
X12804524Y-13540714D01*
X12814048Y-13531190D01*
X12833095Y-13521667D01*
X12880714Y-13521667D01*
X12899762Y-13531190D01*
X12909286Y-13540714D01*
X12918809Y-13559762D01*
X12918809Y-13607381D01*
X12909286Y-13626428D01*
X12899762Y-13635952D01*
X12880714Y-13645476D01*
X12833095Y-13645476D01*
X12814048Y-13635952D01*
X12804524Y-13626428D01*
X12985476Y-13445476D02*
X13118809Y-13445476D01*
X13033095Y-13645476D01*
X13185476Y-13445476D02*
X13185476Y-13483571D01*
X13261667Y-13445476D02*
X13261667Y-13483571D01*
X13556905Y-13721667D02*
X13547381Y-13712143D01*
X13528333Y-13683571D01*
X13518809Y-13664524D01*
X13509286Y-13635952D01*
X13499762Y-13588333D01*
X13499762Y-13550238D01*
X13509286Y-13502619D01*
X13518809Y-13474048D01*
X13528333Y-13455000D01*
X13547381Y-13426428D01*
X13556905Y-13416905D01*
X13623571Y-13464524D02*
X13633095Y-13455000D01*
X13652143Y-13445476D01*
X13699762Y-13445476D01*
X13718809Y-13455000D01*
X13728333Y-13464524D01*
X13737857Y-13483571D01*
X13737857Y-13502619D01*
X13728333Y-13531190D01*
X13614048Y-13645476D01*
X13737857Y-13645476D01*
X13909286Y-13445476D02*
X13871190Y-13445476D01*
X13852143Y-13455000D01*
X13842619Y-13464524D01*
X13823571Y-13493095D01*
X13814048Y-13531190D01*
X13814048Y-13607381D01*
X13823571Y-13626428D01*
X13833095Y-13635952D01*
X13852143Y-13645476D01*
X13890238Y-13645476D01*
X13909286Y-13635952D01*
X13918809Y-13626428D01*
X13928333Y-13607381D01*
X13928333Y-13559762D01*
X13918809Y-13540714D01*
X13909286Y-13531190D01*
X13890238Y-13521667D01*
X13852143Y-13521667D01*
X13833095Y-13531190D01*
X13823571Y-13540714D01*
X13814048Y-13559762D01*
X14052143Y-13445476D02*
X14071190Y-13445476D01*
X14090238Y-13455000D01*
X14099762Y-13464524D01*
X14109286Y-13483571D01*
X14118809Y-13521667D01*
X14118809Y-13569286D01*
X14109286Y-13607381D01*
X14099762Y-13626428D01*
X14090238Y-13635952D01*
X14071190Y-13645476D01*
X14052143Y-13645476D01*
X14033095Y-13635952D01*
X14023571Y-13626428D01*
X14014048Y-13607381D01*
X14004524Y-13569286D01*
X14004524Y-13521667D01*
X14014048Y-13483571D01*
X14023571Y-13464524D01*
X14033095Y-13455000D01*
X14052143Y-13445476D01*
X14356905Y-13645476D02*
X14356905Y-13445476D01*
X14442619Y-13645476D02*
X14442619Y-13540714D01*
X14433095Y-13521667D01*
X14414048Y-13512143D01*
X14385476Y-13512143D01*
X14366428Y-13521667D01*
X14356905Y-13531190D01*
X14566428Y-13645476D02*
X14547381Y-13635952D01*
X14537857Y-13626428D01*
X14528333Y-13607381D01*
X14528333Y-13550238D01*
X14537857Y-13531190D01*
X14547381Y-13521667D01*
X14566428Y-13512143D01*
X14595000Y-13512143D01*
X14614048Y-13521667D01*
X14623571Y-13531190D01*
X14633095Y-13550238D01*
X14633095Y-13607381D01*
X14623571Y-13626428D01*
X14614048Y-13635952D01*
X14595000Y-13645476D01*
X14566428Y-13645476D01*
X14747381Y-13645476D02*
X14728333Y-13635952D01*
X14718809Y-13616905D01*
X14718809Y-13445476D01*
X14899762Y-13635952D02*
X14880714Y-13645476D01*
X14842619Y-13645476D01*
X14823571Y-13635952D01*
X14814048Y-13616905D01*
X14814048Y-13540714D01*
X14823571Y-13521667D01*
X14842619Y-13512143D01*
X14880714Y-13512143D01*
X14899762Y-13521667D01*
X14909286Y-13540714D01*
X14909286Y-13559762D01*
X14814048Y-13578809D01*
X14985476Y-13635952D02*
X15004524Y-13645476D01*
X15042619Y-13645476D01*
X15061667Y-13635952D01*
X15071190Y-13616905D01*
X15071190Y-13607381D01*
X15061667Y-13588333D01*
X15042619Y-13578809D01*
X15014048Y-13578809D01*
X14995000Y-13569286D01*
X14985476Y-13550238D01*
X14985476Y-13540714D01*
X14995000Y-13521667D01*
X15014048Y-13512143D01*
X15042619Y-13512143D01*
X15061667Y-13521667D01*
X15137857Y-13721667D02*
X15147381Y-13712143D01*
X15166428Y-13683571D01*
X15175952Y-13664524D01*
X15185476Y-13635952D01*
X15195000Y-13588333D01*
X15195000Y-13550238D01*
X15185476Y-13502619D01*
X15175952Y-13474048D01*
X15166428Y-13455000D01*
X15147381Y-13426428D01*
X15137857Y-13416905D01*
D13*
X9985000Y-13819000D02*
G75*
G03*
X9985000Y-13819000I-25000J0D01*
G01*
D11*
X10280714Y-13709476D02*
X10299762Y-13709476D01*
X10318810Y-13719000D01*
X10328333Y-13728524D01*
X10337857Y-13747571D01*
X10347381Y-13785667D01*
X10347381Y-13833286D01*
X10337857Y-13871381D01*
X10328333Y-13890428D01*
X10318810Y-13899952D01*
X10299762Y-13909476D01*
X10280714Y-13909476D01*
X10261667Y-13899952D01*
X10252143Y-13890428D01*
X10242619Y-13871381D01*
X10233095Y-13833286D01*
X10233095Y-13785667D01*
X10242619Y-13747571D01*
X10252143Y-13728524D01*
X10261667Y-13719000D01*
X10280714Y-13709476D01*
X10433095Y-13890428D02*
X10442619Y-13899952D01*
X10433095Y-13909476D01*
X10423571Y-13899952D01*
X10433095Y-13890428D01*
X10433095Y-13909476D01*
X10623571Y-13709476D02*
X10528333Y-13709476D01*
X10518810Y-13804714D01*
X10528333Y-13795190D01*
X10547381Y-13785667D01*
X10595000Y-13785667D01*
X10614048Y-13795190D01*
X10623571Y-13804714D01*
X10633095Y-13823762D01*
X10633095Y-13871381D01*
X10623571Y-13890428D01*
X10614048Y-13899952D01*
X10595000Y-13909476D01*
X10547381Y-13909476D01*
X10528333Y-13899952D01*
X10518810Y-13890428D01*
X10756905Y-13709476D02*
X10775952Y-13709476D01*
X10795000Y-13719000D01*
X10804524Y-13728524D01*
X10814048Y-13747571D01*
X10823571Y-13785667D01*
X10823571Y-13833286D01*
X10814048Y-13871381D01*
X10804524Y-13890428D01*
X10795000Y-13899952D01*
X10775952Y-13909476D01*
X10756905Y-13909476D01*
X10737857Y-13899952D01*
X10728333Y-13890428D01*
X10718810Y-13871381D01*
X10709286Y-13833286D01*
X10709286Y-13785667D01*
X10718810Y-13747571D01*
X10728333Y-13728524D01*
X10737857Y-13719000D01*
X10756905Y-13709476D01*
X10947381Y-13709476D02*
X10966429Y-13709476D01*
X10985476Y-13719000D01*
X10995000Y-13728524D01*
X11004524Y-13747571D01*
X11014048Y-13785667D01*
X11014048Y-13833286D01*
X11004524Y-13871381D01*
X10995000Y-13890428D01*
X10985476Y-13899952D01*
X10966429Y-13909476D01*
X10947381Y-13909476D01*
X10928333Y-13899952D01*
X10918810Y-13890428D01*
X10909286Y-13871381D01*
X10899762Y-13833286D01*
X10899762Y-13785667D01*
X10909286Y-13747571D01*
X10918810Y-13728524D01*
X10928333Y-13719000D01*
X10947381Y-13709476D01*
X11099762Y-13909476D02*
X11099762Y-13776143D01*
X11099762Y-13795190D02*
X11109286Y-13785667D01*
X11128333Y-13776143D01*
X11156905Y-13776143D01*
X11175952Y-13785667D01*
X11185476Y-13804714D01*
X11185476Y-13909476D01*
X11185476Y-13804714D02*
X11195000Y-13785667D01*
X11214048Y-13776143D01*
X11242619Y-13776143D01*
X11261667Y-13785667D01*
X11271190Y-13804714D01*
X11271190Y-13909476D01*
X11366428Y-13909476D02*
X11366428Y-13776143D01*
X11366428Y-13795190D02*
X11375952Y-13785667D01*
X11395000Y-13776143D01*
X11423571Y-13776143D01*
X11442619Y-13785667D01*
X11452143Y-13804714D01*
X11452143Y-13909476D01*
X11452143Y-13804714D02*
X11461667Y-13785667D01*
X11480714Y-13776143D01*
X11509286Y-13776143D01*
X11528333Y-13785667D01*
X11537857Y-13804714D01*
X11537857Y-13909476D01*
X11928333Y-13699952D02*
X11756905Y-13957095D01*
X12185476Y-13709476D02*
X12204524Y-13709476D01*
X12223571Y-13719000D01*
X12233095Y-13728524D01*
X12242619Y-13747571D01*
X12252143Y-13785667D01*
X12252143Y-13833286D01*
X12242619Y-13871381D01*
X12233095Y-13890428D01*
X12223571Y-13899952D01*
X12204524Y-13909476D01*
X12185476Y-13909476D01*
X12166428Y-13899952D01*
X12156905Y-13890428D01*
X12147381Y-13871381D01*
X12137857Y-13833286D01*
X12137857Y-13785667D01*
X12147381Y-13747571D01*
X12156905Y-13728524D01*
X12166428Y-13719000D01*
X12185476Y-13709476D01*
X12337857Y-13890428D02*
X12347381Y-13899952D01*
X12337857Y-13909476D01*
X12328333Y-13899952D01*
X12337857Y-13890428D01*
X12337857Y-13909476D01*
X12471190Y-13709476D02*
X12490238Y-13709476D01*
X12509286Y-13719000D01*
X12518809Y-13728524D01*
X12528333Y-13747571D01*
X12537857Y-13785667D01*
X12537857Y-13833286D01*
X12528333Y-13871381D01*
X12518809Y-13890428D01*
X12509286Y-13899952D01*
X12490238Y-13909476D01*
X12471190Y-13909476D01*
X12452143Y-13899952D01*
X12442619Y-13890428D01*
X12433095Y-13871381D01*
X12423571Y-13833286D01*
X12423571Y-13785667D01*
X12433095Y-13747571D01*
X12442619Y-13728524D01*
X12452143Y-13719000D01*
X12471190Y-13709476D01*
X12728333Y-13909476D02*
X12614048Y-13909476D01*
X12671190Y-13909476D02*
X12671190Y-13709476D01*
X12652143Y-13738048D01*
X12633095Y-13757095D01*
X12614048Y-13766619D01*
X12823571Y-13909476D02*
X12861667Y-13909476D01*
X12880714Y-13899952D01*
X12890238Y-13890428D01*
X12909286Y-13861857D01*
X12918809Y-13823762D01*
X12918809Y-13747571D01*
X12909286Y-13728524D01*
X12899762Y-13719000D01*
X12880714Y-13709476D01*
X12842619Y-13709476D01*
X12823571Y-13719000D01*
X12814048Y-13728524D01*
X12804524Y-13747571D01*
X12804524Y-13795190D01*
X12814048Y-13814238D01*
X12823571Y-13823762D01*
X12842619Y-13833286D01*
X12880714Y-13833286D01*
X12899762Y-13823762D01*
X12909286Y-13814238D01*
X12918809Y-13795190D01*
X12985476Y-13709476D02*
X13118809Y-13709476D01*
X13033095Y-13909476D01*
X13185476Y-13709476D02*
X13185476Y-13747571D01*
X13261667Y-13709476D02*
X13261667Y-13747571D01*
X13556905Y-13985667D02*
X13547381Y-13976143D01*
X13528333Y-13947571D01*
X13518809Y-13928524D01*
X13509286Y-13899952D01*
X13499762Y-13852333D01*
X13499762Y-13814238D01*
X13509286Y-13766619D01*
X13518809Y-13738048D01*
X13528333Y-13719000D01*
X13547381Y-13690428D01*
X13556905Y-13680905D01*
X13737857Y-13909476D02*
X13623571Y-13909476D01*
X13680714Y-13909476D02*
X13680714Y-13709476D01*
X13661667Y-13738048D01*
X13642619Y-13757095D01*
X13623571Y-13766619D01*
X13909286Y-13776143D02*
X13909286Y-13909476D01*
X13861667Y-13699952D02*
X13814048Y-13842809D01*
X13937857Y-13842809D01*
X14166428Y-13909476D02*
X14166428Y-13709476D01*
X14252143Y-13909476D02*
X14252143Y-13804714D01*
X14242619Y-13785667D01*
X14223571Y-13776143D01*
X14195000Y-13776143D01*
X14175952Y-13785667D01*
X14166428Y-13795190D01*
X14375952Y-13909476D02*
X14356905Y-13899952D01*
X14347381Y-13890428D01*
X14337857Y-13871381D01*
X14337857Y-13814238D01*
X14347381Y-13795190D01*
X14356905Y-13785667D01*
X14375952Y-13776143D01*
X14404524Y-13776143D01*
X14423571Y-13785667D01*
X14433095Y-13795190D01*
X14442619Y-13814238D01*
X14442619Y-13871381D01*
X14433095Y-13890428D01*
X14423571Y-13899952D01*
X14404524Y-13909476D01*
X14375952Y-13909476D01*
X14556905Y-13909476D02*
X14537857Y-13899952D01*
X14528333Y-13880905D01*
X14528333Y-13709476D01*
X14709286Y-13899952D02*
X14690238Y-13909476D01*
X14652143Y-13909476D01*
X14633095Y-13899952D01*
X14623571Y-13880905D01*
X14623571Y-13804714D01*
X14633095Y-13785667D01*
X14652143Y-13776143D01*
X14690238Y-13776143D01*
X14709286Y-13785667D01*
X14718809Y-13804714D01*
X14718809Y-13823762D01*
X14623571Y-13842809D01*
X14795000Y-13899952D02*
X14814048Y-13909476D01*
X14852143Y-13909476D01*
X14871190Y-13899952D01*
X14880714Y-13880905D01*
X14880714Y-13871381D01*
X14871190Y-13852333D01*
X14852143Y-13842809D01*
X14823571Y-13842809D01*
X14804524Y-13833286D01*
X14795000Y-13814238D01*
X14795000Y-13804714D01*
X14804524Y-13785667D01*
X14823571Y-13776143D01*
X14852143Y-13776143D01*
X14871190Y-13785667D01*
X14947381Y-13985667D02*
X14956905Y-13976143D01*
X14975952Y-13947571D01*
X14985476Y-13928524D01*
X14995000Y-13899952D01*
X15004524Y-13852333D01*
X15004524Y-13814238D01*
X14995000Y-13766619D01*
X14985476Y-13738048D01*
X14975952Y-13719000D01*
X14956905Y-13690428D01*
X14947381Y-13680905D01*
D14*
X9955000Y-14053000D02*
X9955000Y-14113000D01*
X9925000Y-14083000D02*
X9985000Y-14083000D01*
D11*
X10280714Y-13973476D02*
X10299762Y-13973476D01*
X10318810Y-13983000D01*
X10328333Y-13992524D01*
X10337857Y-14011571D01*
X10347381Y-14049667D01*
X10347381Y-14097286D01*
X10337857Y-14135381D01*
X10328333Y-14154428D01*
X10318810Y-14163952D01*
X10299762Y-14173476D01*
X10280714Y-14173476D01*
X10261667Y-14163952D01*
X10252143Y-14154428D01*
X10242619Y-14135381D01*
X10233095Y-14097286D01*
X10233095Y-14049667D01*
X10242619Y-14011571D01*
X10252143Y-13992524D01*
X10261667Y-13983000D01*
X10280714Y-13973476D01*
X10433095Y-14154428D02*
X10442619Y-14163952D01*
X10433095Y-14173476D01*
X10423571Y-14163952D01*
X10433095Y-14154428D01*
X10433095Y-14173476D01*
X10614048Y-13973476D02*
X10575952Y-13973476D01*
X10556905Y-13983000D01*
X10547381Y-13992524D01*
X10528333Y-14021095D01*
X10518810Y-14059190D01*
X10518810Y-14135381D01*
X10528333Y-14154428D01*
X10537857Y-14163952D01*
X10556905Y-14173476D01*
X10595000Y-14173476D01*
X10614048Y-14163952D01*
X10623571Y-14154428D01*
X10633095Y-14135381D01*
X10633095Y-14087762D01*
X10623571Y-14068714D01*
X10614048Y-14059190D01*
X10595000Y-14049667D01*
X10556905Y-14049667D01*
X10537857Y-14059190D01*
X10528333Y-14068714D01*
X10518810Y-14087762D01*
X10756905Y-13973476D02*
X10775952Y-13973476D01*
X10795000Y-13983000D01*
X10804524Y-13992524D01*
X10814048Y-14011571D01*
X10823571Y-14049667D01*
X10823571Y-14097286D01*
X10814048Y-14135381D01*
X10804524Y-14154428D01*
X10795000Y-14163952D01*
X10775952Y-14173476D01*
X10756905Y-14173476D01*
X10737857Y-14163952D01*
X10728333Y-14154428D01*
X10718810Y-14135381D01*
X10709286Y-14097286D01*
X10709286Y-14049667D01*
X10718810Y-14011571D01*
X10728333Y-13992524D01*
X10737857Y-13983000D01*
X10756905Y-13973476D01*
X10947381Y-13973476D02*
X10966429Y-13973476D01*
X10985476Y-13983000D01*
X10995000Y-13992524D01*
X11004524Y-14011571D01*
X11014048Y-14049667D01*
X11014048Y-14097286D01*
X11004524Y-14135381D01*
X10995000Y-14154428D01*
X10985476Y-14163952D01*
X10966429Y-14173476D01*
X10947381Y-14173476D01*
X10928333Y-14163952D01*
X10918810Y-14154428D01*
X10909286Y-14135381D01*
X10899762Y-14097286D01*
X10899762Y-14049667D01*
X10909286Y-14011571D01*
X10918810Y-13992524D01*
X10928333Y-13983000D01*
X10947381Y-13973476D01*
X11099762Y-14173476D02*
X11099762Y-14040143D01*
X11099762Y-14059190D02*
X11109286Y-14049667D01*
X11128333Y-14040143D01*
X11156905Y-14040143D01*
X11175952Y-14049667D01*
X11185476Y-14068714D01*
X11185476Y-14173476D01*
X11185476Y-14068714D02*
X11195000Y-14049667D01*
X11214048Y-14040143D01*
X11242619Y-14040143D01*
X11261667Y-14049667D01*
X11271190Y-14068714D01*
X11271190Y-14173476D01*
X11366428Y-14173476D02*
X11366428Y-14040143D01*
X11366428Y-14059190D02*
X11375952Y-14049667D01*
X11395000Y-14040143D01*
X11423571Y-14040143D01*
X11442619Y-14049667D01*
X11452143Y-14068714D01*
X11452143Y-14173476D01*
X11452143Y-14068714D02*
X11461667Y-14049667D01*
X11480714Y-14040143D01*
X11509286Y-14040143D01*
X11528333Y-14049667D01*
X11537857Y-14068714D01*
X11537857Y-14173476D01*
X11928333Y-13963952D02*
X11756905Y-14221095D01*
X12185476Y-13973476D02*
X12204524Y-13973476D01*
X12223571Y-13983000D01*
X12233095Y-13992524D01*
X12242619Y-14011571D01*
X12252143Y-14049667D01*
X12252143Y-14097286D01*
X12242619Y-14135381D01*
X12233095Y-14154428D01*
X12223571Y-14163952D01*
X12204524Y-14173476D01*
X12185476Y-14173476D01*
X12166428Y-14163952D01*
X12156905Y-14154428D01*
X12147381Y-14135381D01*
X12137857Y-14097286D01*
X12137857Y-14049667D01*
X12147381Y-14011571D01*
X12156905Y-13992524D01*
X12166428Y-13983000D01*
X12185476Y-13973476D01*
X12337857Y-14154428D02*
X12347381Y-14163952D01*
X12337857Y-14173476D01*
X12328333Y-14163952D01*
X12337857Y-14154428D01*
X12337857Y-14173476D01*
X12471190Y-13973476D02*
X12490238Y-13973476D01*
X12509286Y-13983000D01*
X12518809Y-13992524D01*
X12528333Y-14011571D01*
X12537857Y-14049667D01*
X12537857Y-14097286D01*
X12528333Y-14135381D01*
X12518809Y-14154428D01*
X12509286Y-14163952D01*
X12490238Y-14173476D01*
X12471190Y-14173476D01*
X12452143Y-14163952D01*
X12442619Y-14154428D01*
X12433095Y-14135381D01*
X12423571Y-14097286D01*
X12423571Y-14049667D01*
X12433095Y-14011571D01*
X12442619Y-13992524D01*
X12452143Y-13983000D01*
X12471190Y-13973476D01*
X12614048Y-13992524D02*
X12623571Y-13983000D01*
X12642619Y-13973476D01*
X12690238Y-13973476D01*
X12709286Y-13983000D01*
X12718809Y-13992524D01*
X12728333Y-14011571D01*
X12728333Y-14030619D01*
X12718809Y-14059190D01*
X12604524Y-14173476D01*
X12728333Y-14173476D01*
X12795000Y-13973476D02*
X12918809Y-13973476D01*
X12852143Y-14049667D01*
X12880714Y-14049667D01*
X12899762Y-14059190D01*
X12909286Y-14068714D01*
X12918809Y-14087762D01*
X12918809Y-14135381D01*
X12909286Y-14154428D01*
X12899762Y-14163952D01*
X12880714Y-14173476D01*
X12823571Y-14173476D01*
X12804524Y-14163952D01*
X12795000Y-14154428D01*
X13090238Y-13973476D02*
X13052143Y-13973476D01*
X13033095Y-13983000D01*
X13023571Y-13992524D01*
X13004524Y-14021095D01*
X12995000Y-14059190D01*
X12995000Y-14135381D01*
X13004524Y-14154428D01*
X13014048Y-14163952D01*
X13033095Y-14173476D01*
X13071190Y-14173476D01*
X13090238Y-14163952D01*
X13099762Y-14154428D01*
X13109286Y-14135381D01*
X13109286Y-14087762D01*
X13099762Y-14068714D01*
X13090238Y-14059190D01*
X13071190Y-14049667D01*
X13033095Y-14049667D01*
X13014048Y-14059190D01*
X13004524Y-14068714D01*
X12995000Y-14087762D01*
X13185476Y-13973476D02*
X13185476Y-14011571D01*
X13261667Y-13973476D02*
X13261667Y-14011571D01*
X13556905Y-14249667D02*
X13547381Y-14240143D01*
X13528333Y-14211571D01*
X13518809Y-14192524D01*
X13509286Y-14163952D01*
X13499762Y-14116333D01*
X13499762Y-14078238D01*
X13509286Y-14030619D01*
X13518809Y-14002048D01*
X13528333Y-13983000D01*
X13547381Y-13954428D01*
X13556905Y-13944905D01*
X13671190Y-13973476D02*
X13690238Y-13973476D01*
X13709286Y-13983000D01*
X13718809Y-13992524D01*
X13728333Y-14011571D01*
X13737857Y-14049667D01*
X13737857Y-14097286D01*
X13728333Y-14135381D01*
X13718809Y-14154428D01*
X13709286Y-14163952D01*
X13690238Y-14173476D01*
X13671190Y-14173476D01*
X13652143Y-14163952D01*
X13642619Y-14154428D01*
X13633095Y-14135381D01*
X13623571Y-14097286D01*
X13623571Y-14049667D01*
X13633095Y-14011571D01*
X13642619Y-13992524D01*
X13652143Y-13983000D01*
X13671190Y-13973476D01*
X13975952Y-14173476D02*
X13975952Y-13973476D01*
X14061667Y-14173476D02*
X14061667Y-14068714D01*
X14052143Y-14049667D01*
X14033095Y-14040143D01*
X14004524Y-14040143D01*
X13985476Y-14049667D01*
X13975952Y-14059190D01*
X14185476Y-14173476D02*
X14166428Y-14163952D01*
X14156905Y-14154428D01*
X14147381Y-14135381D01*
X14147381Y-14078238D01*
X14156905Y-14059190D01*
X14166428Y-14049667D01*
X14185476Y-14040143D01*
X14214048Y-14040143D01*
X14233095Y-14049667D01*
X14242619Y-14059190D01*
X14252143Y-14078238D01*
X14252143Y-14135381D01*
X14242619Y-14154428D01*
X14233095Y-14163952D01*
X14214048Y-14173476D01*
X14185476Y-14173476D01*
X14366428Y-14173476D02*
X14347381Y-14163952D01*
X14337857Y-14144905D01*
X14337857Y-13973476D01*
X14518809Y-14163952D02*
X14499762Y-14173476D01*
X14461667Y-14173476D01*
X14442619Y-14163952D01*
X14433095Y-14144905D01*
X14433095Y-14068714D01*
X14442619Y-14049667D01*
X14461667Y-14040143D01*
X14499762Y-14040143D01*
X14518809Y-14049667D01*
X14528333Y-14068714D01*
X14528333Y-14087762D01*
X14433095Y-14106809D01*
X14604524Y-14163952D02*
X14623571Y-14173476D01*
X14661667Y-14173476D01*
X14680714Y-14163952D01*
X14690238Y-14144905D01*
X14690238Y-14135381D01*
X14680714Y-14116333D01*
X14661667Y-14106809D01*
X14633095Y-14106809D01*
X14614048Y-14097286D01*
X14604524Y-14078238D01*
X14604524Y-14068714D01*
X14614048Y-14049667D01*
X14633095Y-14040143D01*
X14661667Y-14040143D01*
X14680714Y-14049667D01*
X14928333Y-14097286D02*
X15080714Y-14097286D01*
X15004524Y-14173476D02*
X15004524Y-14021095D01*
X15414048Y-14040143D02*
X15414048Y-14173476D01*
X15366428Y-13963952D02*
X15318809Y-14106809D01*
X15442619Y-14106809D01*
X15661667Y-14163952D02*
X15680714Y-14173476D01*
X15718809Y-14173476D01*
X15737857Y-14163952D01*
X15747381Y-14144905D01*
X15747381Y-14135381D01*
X15737857Y-14116333D01*
X15718809Y-14106809D01*
X15690238Y-14106809D01*
X15671190Y-14097286D01*
X15661667Y-14078238D01*
X15661667Y-14068714D01*
X15671190Y-14049667D01*
X15690238Y-14040143D01*
X15718809Y-14040143D01*
X15737857Y-14049667D01*
X15861667Y-14173476D02*
X15842619Y-14163952D01*
X15833095Y-14144905D01*
X15833095Y-13973476D01*
X15966428Y-14173476D02*
X15947381Y-14163952D01*
X15937857Y-14154428D01*
X15928333Y-14135381D01*
X15928333Y-14078238D01*
X15937857Y-14059190D01*
X15947381Y-14049667D01*
X15966428Y-14040143D01*
X15995000Y-14040143D01*
X16014048Y-14049667D01*
X16023571Y-14059190D01*
X16033095Y-14078238D01*
X16033095Y-14135381D01*
X16023571Y-14154428D01*
X16014048Y-14163952D01*
X15995000Y-14173476D01*
X15966428Y-14173476D01*
X16090238Y-14040143D02*
X16166428Y-14040143D01*
X16118809Y-13973476D02*
X16118809Y-14144905D01*
X16128333Y-14163952D01*
X16147381Y-14173476D01*
X16166428Y-14173476D01*
X16223571Y-14163952D02*
X16242619Y-14173476D01*
X16280714Y-14173476D01*
X16299762Y-14163952D01*
X16309286Y-14144905D01*
X16309286Y-14135381D01*
X16299762Y-14116333D01*
X16280714Y-14106809D01*
X16252143Y-14106809D01*
X16233095Y-14097286D01*
X16223571Y-14078238D01*
X16223571Y-14068714D01*
X16233095Y-14049667D01*
X16252143Y-14040143D01*
X16280714Y-14040143D01*
X16299762Y-14049667D01*
X16375952Y-14249667D02*
X16385476Y-14240143D01*
X16404524Y-14211571D01*
X16414048Y-14192524D01*
X16423571Y-14163952D01*
X16433095Y-14116333D01*
X16433095Y-14078238D01*
X16423571Y-14030619D01*
X16414048Y-14002048D01*
X16404524Y-13983000D01*
X16385476Y-13954428D01*
X16375952Y-13944905D01*
M02*
