M48
; DRILL file {KiCad (5.99.0-10847-g28909c1a72)} date Sun Jun  6 12:58:39 2021
; FORMAT={-:-/ absolute / metric / decimal}
; #@! TF.CreationDate,2021-06-06T12:58:39+02:00
; #@! TF.GenerationSoftware,Kicad,Pcbnew,(5.99.0-10847-g28909c1a72)
; #@! TF.FileFunction,Plated,1,4,PTH
FMAT,2
METRIC
; #@! TA.AperFunction,Plated,PTH,ViaDrill
T1C0.400
; #@! TA.AperFunction,Plated,PTH,ViaDrill
T2C0.500
; #@! TA.AperFunction,Plated,PTH,ComponentDrill
T3C0.600
%
G90
G05
T1
X101.5Y-46.0
X101.5Y-53.0
X101.5Y-117.9
X101.5Y-124.9
X102.0Y-56.5
X102.7Y-83.6
X102.8Y-64.2
X102.8Y-70.7
X102.8Y-77.1
X102.8Y-96.4
X102.8Y-109.3
X102.8Y-115.8
X102.9Y-57.8
X102.9Y-90.0
X102.9Y-102.9
X103.703Y-64.775
X103.703Y-77.775
X103.712Y-97.275
X103.775Y-71.5
X103.775Y-84.5
X103.775Y-110.4
X104.0Y-116.5
X104.024Y-103.477
X104.15Y-90.475
X104.238Y-92.762
X104.483Y-112.224
X104.5Y-58.0
X104.5Y-54.0
X104.5Y-60.5
X104.5Y-67.0
X104.5Y-73.5
X104.5Y-80.0
X104.5Y-86.624
X104.5Y-99.0
X104.5Y-105.524
X105.983Y-64.775
X105.983Y-77.775
X106.0Y-53.0
X106.0Y-71.5
X106.0Y-84.5
X106.0Y-91.0
X106.0Y-97.275
X106.0Y-103.775
X106.0Y-116.5
X106.311Y-110.582
X106.359Y-58.698
X107.0Y-43.5
X107.2Y-60.0
X107.2Y-73.0
X107.2Y-79.8
X107.2Y-86.3
X107.2Y-92.5
X107.2Y-99.0
X107.2Y-105.6
X107.2Y-112.1
X107.3Y-66.5
X107.5Y-53.6
X108.983Y-79.724
X109.0Y-73.0
X110.0Y-54.0
X110.0Y-64.7
X110.0Y-66.5
X110.0Y-90.6
X110.0Y-92.5
X110.0Y-103.4
X110.0Y-109.9
X110.0Y-116.3
X110.5Y-96.9
X110.8Y-77.7
X110.8Y-84.1
X110.9Y-71.2
X111.1Y-58.2
X112.376Y-83.76
X112.483Y-102.275
X112.5Y-53.0
X112.5Y-58.924
X112.5Y-71.5
X112.5Y-78.0
X112.5Y-91.0
X112.5Y-116.5
X112.65Y-64.625
X112.65Y-97.125
X112.661Y-110.203
X113.5Y-79.5
X113.565Y-65.029
X113.632Y-109.968
X113.639Y-96.98
X114.0Y-43.5
X114.5Y-63.5
X114.5Y-95.5
X114.512Y-79.488
X114.663Y-109.974
X115.25Y-60.549
X115.5Y-62.5
X115.5Y-78.5
X115.5Y-94.5
X115.662Y-110.0
X116.0Y-92.5
X116.0Y-99.0
X116.0Y-108.5
X116.08Y-82.92
X116.2Y-53.5
X116.224Y-66.983
X116.224Y-77.0
X117.3Y-89.2
X117.8Y-121.0
X117.95Y-73.2
X118.3Y-105.2
X118.5Y-116.5
X118.948Y-97.523
X119.0Y-53.0
X119.0Y-66.0
X119.072Y-110.784
X119.099Y-79.518
X119.375Y-90.768
X119.861Y-97.115
X120.0Y-58.5
X120.0Y-65.0
X120.025Y-110.483
X120.24Y-77.948
X120.274Y-84.452
X120.724Y-104.0
X120.75Y-109.0
X120.776Y-70.735
X120.932Y-96.015
X120.964Y-82.981
X121.0Y-43.5
X121.118Y-73.094
X122.112Y-72.988
X122.5Y-69.5
X122.8Y-125.5
X123.6Y-118.5
X124.0Y-81.0
X124.5Y-77.5
X124.5Y-79.0
X124.6Y-110.4
X124.6Y-116.4
X125.17Y-71.17
X125.5Y-53.0
X125.5Y-58.5
X125.5Y-65.629
X125.5Y-78.0
X125.5Y-84.5
X125.5Y-91.0
X125.5Y-97.5
X125.5Y-104.0
X128.0Y-43.5
X128.0Y-120.8
X128.0Y-121.8
X128.475Y-109.85
X128.5Y-106.0
X128.5Y-107.75
X128.5Y-108.75
X128.5Y-111.0
X128.5Y-112.0
X128.769Y-117.275
X128.8Y-115.0
X128.8Y-116.2
X129.7Y-116.7
X130.299Y-63.541
X130.4Y-88.2
X132.0Y-53.0
X132.0Y-58.5
X132.0Y-71.5
X132.0Y-78.0
X132.0Y-84.5
X132.0Y-91.0
X132.0Y-97.5
X132.0Y-104.0
X133.2Y-91.0
X133.5Y-82.3
X133.5Y-113.75
X133.5Y-115.9
X133.5Y-117.3
X135.0Y-43.5
X135.5Y-92.1
X136.0Y-103.0
X136.2Y-84.0
X136.9Y-91.4
X136.92Y-56.92
X138.066Y-52.566
X138.5Y-65.0
X138.5Y-71.5
X138.5Y-78.0
X138.5Y-84.5
X138.5Y-91.0
X138.5Y-97.5
X138.5Y-110.5
X138.5Y-116.5
X139.8Y-101.6
X142.0Y-43.5
X143.0Y-94.5
X143.0Y-101.6
X144.667Y-53.499
X144.854Y-58.775
X145.0Y-65.0
X145.0Y-71.5
X145.0Y-78.0
X145.0Y-84.5
X145.0Y-91.0
X145.0Y-97.5
X145.0Y-110.405
X145.0Y-116.605
X146.263Y-101.687
X148.0Y-92.7
X148.4Y-101.6
X148.8Y-116.4
X149.0Y-43.5
X149.6Y-117.6
X150.498Y-116.477
X150.5Y-52.776
X150.5Y-58.5
X150.5Y-65.0
X150.5Y-71.5
X150.5Y-78.0
X150.5Y-84.5
X150.5Y-91.0
X150.5Y-97.5
X150.5Y-110.0
X150.63Y-118.524
X152.4Y-103.2
X153.225Y-101.5
X153.5Y-85.3
X154.6Y-85.3
X156.0Y-43.5
X156.2Y-92.6
X157.4Y-97.8
X157.488Y-116.288
X157.5Y-53.0
X157.5Y-58.5
X157.5Y-65.0
X157.5Y-71.5
X157.5Y-78.0
X157.5Y-84.5
X157.5Y-91.0
X157.5Y-104.0
X157.5Y-110.0
X159.067Y-101.207
X159.779Y-101.979
X159.8Y-107.7
X163.0Y-43.5
X163.502Y-123.771
X164.0Y-53.0
X164.0Y-58.5
X164.0Y-65.0
X164.0Y-71.5
X164.0Y-78.0
X164.0Y-84.5
X164.0Y-91.0
X164.0Y-97.5
X164.0Y-104.0
X164.0Y-117.25
X164.0Y-110.0
X164.244Y-123.029
X165.3Y-110.0
X168.5Y-51.5
X168.5Y-58.5
X168.5Y-65.5
X168.5Y-72.5
X168.5Y-79.5
T2
X122.5Y-84.8
X122.5Y-101.2
X122.5Y-116.8
X141.1Y-110.0
X141.1Y-117.0
X156.8Y-119.9
X156.8Y-121.4
X159.6Y-127.8
X159.8Y-84.1
X160.9Y-84.1
X161.4Y-117.4
X168.5Y-114.0
X168.5Y-119.8
X168.5Y-126.2
T3
X163.57Y-118.68G85X162.47Y-118.68
G05
X163.57Y-127.32G85X162.47Y-127.32
G05
X167.5Y-118.68G85X166.9Y-118.68
G05
X167.5Y-127.32G85X166.9Y-127.32
G05
T0
M30
