G04 #@! TF.GenerationSoftware,KiCad,Pcbnew,(5.99.0-10847-g28909c1a72)*
G04 #@! TF.CreationDate,2021-06-06T12:58:15+02:00*
G04 #@! TF.ProjectId,LED_array,4c45445f-6172-4726-9179-2e6b69636164,1*
G04 #@! TF.SameCoordinates,Original*
G04 #@! TF.FileFunction,Legend,Top*
G04 #@! TF.FilePolarity,Positive*
%FSLAX46Y46*%
G04 Gerber Fmt 4.6, Leading zero omitted, Abs format (unit mm)*
G04 Created by KiCad (PCBNEW (5.99.0-10847-g28909c1a72)) date 2021-06-06 12:58:15*
%MOMM*%
%LPD*%
G01*
G04 APERTURE LIST*
G04 Aperture macros list*
%AMRoundRect*
0 Rectangle with rounded corners*
0 $1 Rounding radius*
0 $2 $3 $4 $5 $6 $7 $8 $9 X,Y pos of 4 corners*
0 Add a 4 corners polygon primitive as box body*
4,1,4,$2,$3,$4,$5,$6,$7,$8,$9,$2,$3,0*
0 Add four circle primitives for the rounded corners*
1,1,$1+$1,$2,$3*
1,1,$1+$1,$4,$5*
1,1,$1+$1,$6,$7*
1,1,$1+$1,$8,$9*
0 Add four rect primitives between the rounded corners*
20,1,$1+$1,$2,$3,$4,$5,0*
20,1,$1+$1,$4,$5,$6,$7,0*
20,1,$1+$1,$6,$7,$8,$9,0*
20,1,$1+$1,$8,$9,$2,$3,0*%
G04 Aperture macros list end*
%ADD10C,0.400000*%
%ADD11C,0.150000*%
%ADD12C,0.120000*%
%ADD13RoundRect,0.243750X0.456250X-0.243750X0.456250X0.243750X-0.456250X0.243750X-0.456250X-0.243750X0*%
%ADD14C,2.000000*%
%ADD15O,1.600000X1.000000*%
%ADD16O,2.100000X1.000000*%
G04 APERTURE END LIST*
D10*
X133409523Y-126623809D02*
X132647619Y-126623809D01*
X132647619Y-125023809D01*
X133942857Y-125785714D02*
X134476190Y-125785714D01*
X134704761Y-126623809D02*
X133942857Y-126623809D01*
X133942857Y-125023809D01*
X134704761Y-125023809D01*
X135390476Y-126623809D02*
X135390476Y-125023809D01*
X135771428Y-125023809D01*
X136000000Y-125100000D01*
X136152380Y-125252380D01*
X136228571Y-125404761D01*
X136304761Y-125709523D01*
X136304761Y-125938095D01*
X136228571Y-126242857D01*
X136152380Y-126395238D01*
X136000000Y-126547619D01*
X135771428Y-126623809D01*
X135390476Y-126623809D01*
X138209523Y-126623809D02*
X138209523Y-125557142D01*
X138209523Y-125709523D02*
X138285714Y-125633333D01*
X138438095Y-125557142D01*
X138666666Y-125557142D01*
X138819047Y-125633333D01*
X138895238Y-125785714D01*
X138895238Y-126623809D01*
X138895238Y-125785714D02*
X138971428Y-125633333D01*
X139123809Y-125557142D01*
X139352380Y-125557142D01*
X139504761Y-125633333D01*
X139580952Y-125785714D01*
X139580952Y-126623809D01*
X141028571Y-126623809D02*
X141028571Y-125785714D01*
X140952380Y-125633333D01*
X140800000Y-125557142D01*
X140495238Y-125557142D01*
X140342857Y-125633333D01*
X141028571Y-126547619D02*
X140876190Y-126623809D01*
X140495238Y-126623809D01*
X140342857Y-126547619D01*
X140266666Y-126395238D01*
X140266666Y-126242857D01*
X140342857Y-126090476D01*
X140495238Y-126014285D01*
X140876190Y-126014285D01*
X141028571Y-125938095D01*
X141561904Y-125557142D02*
X142171428Y-125557142D01*
X141790476Y-125023809D02*
X141790476Y-126395238D01*
X141866666Y-126547619D01*
X142019047Y-126623809D01*
X142171428Y-126623809D01*
X142704761Y-126623809D02*
X142704761Y-125557142D01*
X142704761Y-125861904D02*
X142780952Y-125709523D01*
X142857142Y-125633333D01*
X143009523Y-125557142D01*
X143161904Y-125557142D01*
X143695238Y-126623809D02*
X143695238Y-125557142D01*
X143695238Y-125023809D02*
X143619047Y-125100000D01*
X143695238Y-125176190D01*
X143771428Y-125100000D01*
X143695238Y-125023809D01*
X143695238Y-125176190D01*
X144304761Y-126623809D02*
X145142857Y-125557142D01*
X144304761Y-125557142D02*
X145142857Y-126623809D01*
X146819047Y-125557142D02*
X147123809Y-126623809D01*
X147428571Y-125861904D01*
X147733333Y-126623809D01*
X148038095Y-125557142D01*
X149790476Y-124947619D02*
X148419047Y-127004761D01*
X151466666Y-126166666D02*
X152228571Y-126166666D01*
X151314285Y-126623809D02*
X151847619Y-125023809D01*
X152380952Y-126623809D01*
X152914285Y-126623809D02*
X152914285Y-125023809D01*
X153295238Y-125023809D01*
X153523809Y-125100000D01*
X153676190Y-125252380D01*
X153752380Y-125404761D01*
X153828571Y-125709523D01*
X153828571Y-125938095D01*
X153752380Y-126242857D01*
X153676190Y-126395238D01*
X153523809Y-126547619D01*
X153295238Y-126623809D01*
X152914285Y-126623809D01*
X155428571Y-126471428D02*
X155352380Y-126547619D01*
X155123809Y-126623809D01*
X154971428Y-126623809D01*
X154742857Y-126547619D01*
X154590476Y-126395238D01*
X154514285Y-126242857D01*
X154438095Y-125938095D01*
X154438095Y-125709523D01*
X154514285Y-125404761D01*
X154590476Y-125252380D01*
X154742857Y-125100000D01*
X154971428Y-125023809D01*
X155123809Y-125023809D01*
X155352380Y-125100000D01*
X155428571Y-125176190D01*
D11*
X137024600Y-56738095D02*
X136024600Y-56738095D01*
X136024600Y-56500000D01*
X136072220Y-56357142D01*
X136167458Y-56261904D01*
X136262696Y-56214285D01*
X136453172Y-56166666D01*
X136596029Y-56166666D01*
X136786505Y-56214285D01*
X136881743Y-56261904D01*
X136976981Y-56357142D01*
X137024600Y-56500000D01*
X137024600Y-56738095D01*
X136024600Y-55309523D02*
X136024600Y-55500000D01*
X136072220Y-55595238D01*
X136119839Y-55642857D01*
X136262696Y-55738095D01*
X136453172Y-55785714D01*
X136834124Y-55785714D01*
X136929362Y-55738095D01*
X136976981Y-55690476D01*
X137024600Y-55595238D01*
X137024600Y-55404761D01*
X136976981Y-55309523D01*
X136929362Y-55261904D01*
X136834124Y-55214285D01*
X136596029Y-55214285D01*
X136500791Y-55261904D01*
X136453172Y-55309523D01*
X136405553Y-55404761D01*
X136405553Y-55595238D01*
X136453172Y-55690476D01*
X136500791Y-55738095D01*
X136596029Y-55785714D01*
X111246824Y-82978173D02*
X110246824Y-82978173D01*
X110246824Y-82740078D01*
X110294444Y-82597221D01*
X110389682Y-82501983D01*
X110484920Y-82454364D01*
X110675396Y-82406745D01*
X110818253Y-82406745D01*
X111008729Y-82454364D01*
X111103967Y-82501983D01*
X111199205Y-82597221D01*
X111246824Y-82740078D01*
X111246824Y-82978173D01*
X110580158Y-81549602D02*
X111246824Y-81549602D01*
X110199205Y-81787697D02*
X110913491Y-82025792D01*
X110913491Y-81406745D01*
X110342063Y-81073411D02*
X110294444Y-81025792D01*
X110246824Y-80930554D01*
X110246824Y-80692459D01*
X110294444Y-80597221D01*
X110342063Y-80549602D01*
X110437301Y-80501983D01*
X110532539Y-80501983D01*
X110675396Y-80549602D01*
X111246824Y-81121030D01*
X111246824Y-80501983D01*
X143469044Y-70096229D02*
X142469044Y-70096229D01*
X142469044Y-69858134D01*
X142516664Y-69715277D01*
X142611902Y-69620039D01*
X142707140Y-69572420D01*
X142897616Y-69524801D01*
X143040473Y-69524801D01*
X143230949Y-69572420D01*
X143326187Y-69620039D01*
X143421425Y-69715277D01*
X143469044Y-69858134D01*
X143469044Y-70096229D01*
X142564283Y-69143848D02*
X142516664Y-69096229D01*
X142469044Y-69000991D01*
X142469044Y-68762896D01*
X142516664Y-68667658D01*
X142564283Y-68620039D01*
X142659521Y-68572420D01*
X142754759Y-68572420D01*
X142897616Y-68620039D01*
X143469044Y-69191467D01*
X143469044Y-68572420D01*
X142469044Y-68239086D02*
X142469044Y-67572420D01*
X143469044Y-68000991D01*
X156357932Y-63655257D02*
X155357932Y-63655257D01*
X155357932Y-63417162D01*
X155405552Y-63274305D01*
X155500790Y-63179067D01*
X155596028Y-63131448D01*
X155786504Y-63083829D01*
X155929361Y-63083829D01*
X156119837Y-63131448D01*
X156215075Y-63179067D01*
X156310313Y-63274305D01*
X156357932Y-63417162D01*
X156357932Y-63655257D01*
X156357932Y-62131448D02*
X156357932Y-62702876D01*
X156357932Y-62417162D02*
X155357932Y-62417162D01*
X155500790Y-62512400D01*
X155596028Y-62607638D01*
X155643647Y-62702876D01*
X156357932Y-61655257D02*
X156357932Y-61464781D01*
X156310313Y-61369543D01*
X156262694Y-61321924D01*
X156119837Y-61226686D01*
X155929361Y-61179067D01*
X155548409Y-61179067D01*
X155453171Y-61226686D01*
X155405552Y-61274305D01*
X155357932Y-61369543D01*
X155357932Y-61560019D01*
X155405552Y-61655257D01*
X155453171Y-61702876D01*
X155548409Y-61750495D01*
X155786504Y-61750495D01*
X155881742Y-61702876D01*
X155929361Y-61655257D01*
X155976980Y-61560019D01*
X155976980Y-61369543D01*
X155929361Y-61274305D01*
X155881742Y-61226686D01*
X155786504Y-61179067D01*
X137024600Y-70096229D02*
X136024600Y-70096229D01*
X136024600Y-69858134D01*
X136072220Y-69715277D01*
X136167458Y-69620039D01*
X136262696Y-69572420D01*
X136453172Y-69524801D01*
X136596029Y-69524801D01*
X136786505Y-69572420D01*
X136881743Y-69620039D01*
X136976981Y-69715277D01*
X137024600Y-69858134D01*
X137024600Y-70096229D01*
X136119839Y-69143848D02*
X136072220Y-69096229D01*
X136024600Y-69000991D01*
X136024600Y-68762896D01*
X136072220Y-68667658D01*
X136119839Y-68620039D01*
X136215077Y-68572420D01*
X136310315Y-68572420D01*
X136453172Y-68620039D01*
X137024600Y-69191467D01*
X137024600Y-68572420D01*
X136024600Y-67715277D02*
X136024600Y-67905753D01*
X136072220Y-68000991D01*
X136119839Y-68048610D01*
X136262696Y-68143848D01*
X136453172Y-68191467D01*
X136834124Y-68191467D01*
X136929362Y-68143848D01*
X136976981Y-68096229D01*
X137024600Y-68000991D01*
X137024600Y-67810515D01*
X136976981Y-67715277D01*
X136929362Y-67667658D01*
X136834124Y-67620039D01*
X136596029Y-67620039D01*
X136500791Y-67667658D01*
X136453172Y-67715277D01*
X136405553Y-67810515D01*
X136405553Y-68000991D01*
X136453172Y-68096229D01*
X136500791Y-68143848D01*
X136596029Y-68191467D01*
X124135712Y-95860117D02*
X123135712Y-95860117D01*
X123135712Y-95622022D01*
X123183332Y-95479165D01*
X123278570Y-95383927D01*
X123373808Y-95336308D01*
X123564284Y-95288689D01*
X123707141Y-95288689D01*
X123897617Y-95336308D01*
X123992855Y-95383927D01*
X124088093Y-95479165D01*
X124135712Y-95622022D01*
X124135712Y-95860117D01*
X123135712Y-94431546D02*
X123135712Y-94622022D01*
X123183332Y-94717260D01*
X123230951Y-94764879D01*
X123373808Y-94860117D01*
X123564284Y-94907736D01*
X123945236Y-94907736D01*
X124040474Y-94860117D01*
X124088093Y-94812498D01*
X124135712Y-94717260D01*
X124135712Y-94526784D01*
X124088093Y-94431546D01*
X124040474Y-94383927D01*
X123945236Y-94336308D01*
X123707141Y-94336308D01*
X123611903Y-94383927D01*
X123564284Y-94431546D01*
X123516665Y-94526784D01*
X123516665Y-94717260D01*
X123564284Y-94812498D01*
X123611903Y-94860117D01*
X123707141Y-94907736D01*
X123469046Y-93479165D02*
X124135712Y-93479165D01*
X123088093Y-93717260D02*
X123802379Y-93955355D01*
X123802379Y-93336308D01*
X143469044Y-63655257D02*
X142469044Y-63655257D01*
X142469044Y-63417162D01*
X142516664Y-63274305D01*
X142611902Y-63179067D01*
X142707140Y-63131448D01*
X142897616Y-63083829D01*
X143040473Y-63083829D01*
X143230949Y-63131448D01*
X143326187Y-63179067D01*
X143421425Y-63274305D01*
X143469044Y-63417162D01*
X143469044Y-63655257D01*
X143469044Y-62131448D02*
X143469044Y-62702876D01*
X143469044Y-62417162D02*
X142469044Y-62417162D01*
X142611902Y-62512400D01*
X142707140Y-62607638D01*
X142754759Y-62702876D01*
X142469044Y-61798114D02*
X142469044Y-61131448D01*
X143469044Y-61560019D01*
X137024600Y-102301089D02*
X136024600Y-102301089D01*
X136024600Y-102062994D01*
X136072220Y-101920137D01*
X136167458Y-101824899D01*
X136262696Y-101777280D01*
X136453172Y-101729661D01*
X136596029Y-101729661D01*
X136786505Y-101777280D01*
X136881743Y-101824899D01*
X136976981Y-101920137D01*
X137024600Y-102062994D01*
X137024600Y-102301089D01*
X136024600Y-101396327D02*
X136024600Y-100729661D01*
X137024600Y-101158232D01*
X136024600Y-99920137D02*
X136024600Y-100110613D01*
X136072220Y-100205851D01*
X136119839Y-100253470D01*
X136262696Y-100348708D01*
X136453172Y-100396327D01*
X136834124Y-100396327D01*
X136929362Y-100348708D01*
X136976981Y-100301089D01*
X137024600Y-100205851D01*
X137024600Y-100015375D01*
X136976981Y-99920137D01*
X136929362Y-99872518D01*
X136834124Y-99824899D01*
X136596029Y-99824899D01*
X136500791Y-99872518D01*
X136453172Y-99920137D01*
X136405553Y-100015375D01*
X136405553Y-100205851D01*
X136453172Y-100301089D01*
X136500791Y-100348708D01*
X136596029Y-100396327D01*
X143469044Y-76537201D02*
X142469044Y-76537201D01*
X142469044Y-76299106D01*
X142516664Y-76156249D01*
X142611902Y-76061011D01*
X142707140Y-76013392D01*
X142897616Y-75965773D01*
X143040473Y-75965773D01*
X143230949Y-76013392D01*
X143326187Y-76061011D01*
X143421425Y-76156249D01*
X143469044Y-76299106D01*
X143469044Y-76537201D01*
X142469044Y-75632439D02*
X142469044Y-75013392D01*
X142849997Y-75346725D01*
X142849997Y-75203868D01*
X142897616Y-75108630D01*
X142945235Y-75061011D01*
X143040473Y-75013392D01*
X143278568Y-75013392D01*
X143373806Y-75061011D01*
X143421425Y-75108630D01*
X143469044Y-75203868D01*
X143469044Y-75489582D01*
X143421425Y-75584820D01*
X143373806Y-75632439D01*
X142469044Y-74680058D02*
X142469044Y-74013392D01*
X143469044Y-74441963D01*
X162802380Y-76537201D02*
X161802380Y-76537201D01*
X161802380Y-76299106D01*
X161850000Y-76156249D01*
X161945238Y-76061011D01*
X162040476Y-76013392D01*
X162230952Y-75965773D01*
X162373809Y-75965773D01*
X162564285Y-76013392D01*
X162659523Y-76061011D01*
X162754761Y-76156249D01*
X162802380Y-76299106D01*
X162802380Y-76537201D01*
X162135714Y-75108630D02*
X162802380Y-75108630D01*
X161754761Y-75346725D02*
X162469047Y-75584820D01*
X162469047Y-74965773D01*
X161802380Y-74394344D02*
X161802380Y-74299106D01*
X161850000Y-74203868D01*
X161897619Y-74156249D01*
X161992857Y-74108630D01*
X162183333Y-74061011D01*
X162421428Y-74061011D01*
X162611904Y-74108630D01*
X162707142Y-74156249D01*
X162754761Y-74203868D01*
X162802380Y-74299106D01*
X162802380Y-74394344D01*
X162754761Y-74489582D01*
X162707142Y-74537201D01*
X162611904Y-74584820D01*
X162421428Y-74632439D01*
X162183333Y-74632439D01*
X161992857Y-74584820D01*
X161897619Y-74537201D01*
X161850000Y-74489582D01*
X161802380Y-74394344D01*
X124135712Y-108742061D02*
X123135712Y-108742061D01*
X123135712Y-108503966D01*
X123183332Y-108361109D01*
X123278570Y-108265871D01*
X123373808Y-108218252D01*
X123564284Y-108170633D01*
X123707141Y-108170633D01*
X123897617Y-108218252D01*
X123992855Y-108265871D01*
X124088093Y-108361109D01*
X124135712Y-108503966D01*
X124135712Y-108742061D01*
X123564284Y-107599204D02*
X123516665Y-107694442D01*
X123469046Y-107742061D01*
X123373808Y-107789680D01*
X123326189Y-107789680D01*
X123230951Y-107742061D01*
X123183332Y-107694442D01*
X123135712Y-107599204D01*
X123135712Y-107408728D01*
X123183332Y-107313490D01*
X123230951Y-107265871D01*
X123326189Y-107218252D01*
X123373808Y-107218252D01*
X123469046Y-107265871D01*
X123516665Y-107313490D01*
X123564284Y-107408728D01*
X123564284Y-107599204D01*
X123611903Y-107694442D01*
X123659522Y-107742061D01*
X123754760Y-107789680D01*
X123945236Y-107789680D01*
X124040474Y-107742061D01*
X124088093Y-107694442D01*
X124135712Y-107599204D01*
X124135712Y-107408728D01*
X124088093Y-107313490D01*
X124040474Y-107265871D01*
X123945236Y-107218252D01*
X123754760Y-107218252D01*
X123659522Y-107265871D01*
X123611903Y-107313490D01*
X123564284Y-107408728D01*
X123469046Y-106361109D02*
X124135712Y-106361109D01*
X123088093Y-106599204D02*
X123802379Y-106837299D01*
X123802379Y-106218252D01*
X117691268Y-76537201D02*
X116691268Y-76537201D01*
X116691268Y-76299106D01*
X116738888Y-76156249D01*
X116834126Y-76061011D01*
X116929364Y-76013392D01*
X117119840Y-75965773D01*
X117262697Y-75965773D01*
X117453173Y-76013392D01*
X117548411Y-76061011D01*
X117643649Y-76156249D01*
X117691268Y-76299106D01*
X117691268Y-76537201D01*
X116691268Y-75632439D02*
X116691268Y-75013392D01*
X117072221Y-75346725D01*
X117072221Y-75203868D01*
X117119840Y-75108630D01*
X117167459Y-75061011D01*
X117262697Y-75013392D01*
X117500792Y-75013392D01*
X117596030Y-75061011D01*
X117643649Y-75108630D01*
X117691268Y-75203868D01*
X117691268Y-75489582D01*
X117643649Y-75584820D01*
X117596030Y-75632439D01*
X116691268Y-74680058D02*
X116691268Y-74061011D01*
X117072221Y-74394344D01*
X117072221Y-74251487D01*
X117119840Y-74156249D01*
X117167459Y-74108630D01*
X117262697Y-74061011D01*
X117500792Y-74061011D01*
X117596030Y-74108630D01*
X117643649Y-74156249D01*
X117691268Y-74251487D01*
X117691268Y-74537201D01*
X117643649Y-74632439D01*
X117596030Y-74680058D01*
X124135712Y-82978173D02*
X123135712Y-82978173D01*
X123135712Y-82740078D01*
X123183332Y-82597221D01*
X123278570Y-82501983D01*
X123373808Y-82454364D01*
X123564284Y-82406745D01*
X123707141Y-82406745D01*
X123897617Y-82454364D01*
X123992855Y-82501983D01*
X124088093Y-82597221D01*
X124135712Y-82740078D01*
X124135712Y-82978173D01*
X123469046Y-81549602D02*
X124135712Y-81549602D01*
X123088093Y-81787697D02*
X123802379Y-82025792D01*
X123802379Y-81406745D01*
X123469046Y-80597221D02*
X124135712Y-80597221D01*
X123088093Y-80835316D02*
X123802379Y-81073411D01*
X123802379Y-80454364D01*
X130580156Y-82978173D02*
X129580156Y-82978173D01*
X129580156Y-82740078D01*
X129627776Y-82597221D01*
X129723014Y-82501983D01*
X129818252Y-82454364D01*
X130008728Y-82406745D01*
X130151585Y-82406745D01*
X130342061Y-82454364D01*
X130437299Y-82501983D01*
X130532537Y-82597221D01*
X130580156Y-82740078D01*
X130580156Y-82978173D01*
X129913490Y-81549602D02*
X130580156Y-81549602D01*
X129532537Y-81787697D02*
X130246823Y-82025792D01*
X130246823Y-81406745D01*
X129580156Y-80549602D02*
X129580156Y-81025792D01*
X130056347Y-81073411D01*
X130008728Y-81025792D01*
X129961109Y-80930554D01*
X129961109Y-80692459D01*
X130008728Y-80597221D01*
X130056347Y-80549602D01*
X130151585Y-80501983D01*
X130389680Y-80501983D01*
X130484918Y-80549602D01*
X130532537Y-80597221D01*
X130580156Y-80692459D01*
X130580156Y-80930554D01*
X130532537Y-81025792D01*
X130484918Y-81073411D01*
X162802380Y-57214285D02*
X161802380Y-57214285D01*
X161802380Y-56976190D01*
X161850000Y-56833333D01*
X161945238Y-56738095D01*
X162040476Y-56690476D01*
X162230952Y-56642857D01*
X162373809Y-56642857D01*
X162564285Y-56690476D01*
X162659523Y-56738095D01*
X162754761Y-56833333D01*
X162802380Y-56976190D01*
X162802380Y-57214285D01*
X162802380Y-55690476D02*
X162802380Y-56261904D01*
X162802380Y-55976190D02*
X161802380Y-55976190D01*
X161945238Y-56071428D01*
X162040476Y-56166666D01*
X162088095Y-56261904D01*
X161802380Y-55071428D02*
X161802380Y-54976190D01*
X161850000Y-54880952D01*
X161897619Y-54833333D01*
X161992857Y-54785714D01*
X162183333Y-54738095D01*
X162421428Y-54738095D01*
X162611904Y-54785714D01*
X162707142Y-54833333D01*
X162754761Y-54880952D01*
X162802380Y-54976190D01*
X162802380Y-55071428D01*
X162754761Y-55166666D01*
X162707142Y-55214285D01*
X162611904Y-55261904D01*
X162421428Y-55309523D01*
X162183333Y-55309523D01*
X161992857Y-55261904D01*
X161897619Y-55214285D01*
X161850000Y-55166666D01*
X161802380Y-55071428D01*
X124135712Y-56738095D02*
X123135712Y-56738095D01*
X123135712Y-56500000D01*
X123183332Y-56357142D01*
X123278570Y-56261904D01*
X123373808Y-56214285D01*
X123564284Y-56166666D01*
X123707141Y-56166666D01*
X123897617Y-56214285D01*
X123992855Y-56261904D01*
X124088093Y-56357142D01*
X124135712Y-56500000D01*
X124135712Y-56738095D01*
X123469046Y-55309523D02*
X124135712Y-55309523D01*
X123088093Y-55547619D02*
X123802379Y-55785714D01*
X123802379Y-55166666D01*
X130580156Y-95860117D02*
X129580156Y-95860117D01*
X129580156Y-95622022D01*
X129627776Y-95479165D01*
X129723014Y-95383927D01*
X129818252Y-95336308D01*
X130008728Y-95288689D01*
X130151585Y-95288689D01*
X130342061Y-95336308D01*
X130437299Y-95383927D01*
X130532537Y-95479165D01*
X130580156Y-95622022D01*
X130580156Y-95860117D01*
X129580156Y-94431546D02*
X129580156Y-94622022D01*
X129627776Y-94717260D01*
X129675395Y-94764879D01*
X129818252Y-94860117D01*
X130008728Y-94907736D01*
X130389680Y-94907736D01*
X130484918Y-94860117D01*
X130532537Y-94812498D01*
X130580156Y-94717260D01*
X130580156Y-94526784D01*
X130532537Y-94431546D01*
X130484918Y-94383927D01*
X130389680Y-94336308D01*
X130151585Y-94336308D01*
X130056347Y-94383927D01*
X130008728Y-94431546D01*
X129961109Y-94526784D01*
X129961109Y-94717260D01*
X130008728Y-94812498D01*
X130056347Y-94860117D01*
X130151585Y-94907736D01*
X129580156Y-93431546D02*
X129580156Y-93907736D01*
X130056347Y-93955355D01*
X130008728Y-93907736D01*
X129961109Y-93812498D01*
X129961109Y-93574403D01*
X130008728Y-93479165D01*
X130056347Y-93431546D01*
X130151585Y-93383927D01*
X130389680Y-93383927D01*
X130484918Y-93431546D01*
X130532537Y-93479165D01*
X130580156Y-93574403D01*
X130580156Y-93812498D01*
X130532537Y-93907736D01*
X130484918Y-93955355D01*
X149913488Y-95860117D02*
X148913488Y-95860117D01*
X148913488Y-95622022D01*
X148961108Y-95479165D01*
X149056346Y-95383927D01*
X149151584Y-95336308D01*
X149342060Y-95288689D01*
X149484917Y-95288689D01*
X149675393Y-95336308D01*
X149770631Y-95383927D01*
X149865869Y-95479165D01*
X149913488Y-95622022D01*
X149913488Y-95860117D01*
X148913488Y-94431546D02*
X148913488Y-94622022D01*
X148961108Y-94717260D01*
X149008727Y-94764879D01*
X149151584Y-94860117D01*
X149342060Y-94907736D01*
X149723012Y-94907736D01*
X149818250Y-94860117D01*
X149865869Y-94812498D01*
X149913488Y-94717260D01*
X149913488Y-94526784D01*
X149865869Y-94431546D01*
X149818250Y-94383927D01*
X149723012Y-94336308D01*
X149484917Y-94336308D01*
X149389679Y-94383927D01*
X149342060Y-94431546D01*
X149294441Y-94526784D01*
X149294441Y-94717260D01*
X149342060Y-94812498D01*
X149389679Y-94860117D01*
X149484917Y-94907736D01*
X149342060Y-93764879D02*
X149294441Y-93860117D01*
X149246822Y-93907736D01*
X149151584Y-93955355D01*
X149103965Y-93955355D01*
X149008727Y-93907736D01*
X148961108Y-93860117D01*
X148913488Y-93764879D01*
X148913488Y-93574403D01*
X148961108Y-93479165D01*
X149008727Y-93431546D01*
X149103965Y-93383927D01*
X149151584Y-93383927D01*
X149246822Y-93431546D01*
X149294441Y-93479165D01*
X149342060Y-93574403D01*
X149342060Y-93764879D01*
X149389679Y-93860117D01*
X149437298Y-93907736D01*
X149532536Y-93955355D01*
X149723012Y-93955355D01*
X149818250Y-93907736D01*
X149865869Y-93860117D01*
X149913488Y-93764879D01*
X149913488Y-93574403D01*
X149865869Y-93479165D01*
X149818250Y-93431546D01*
X149723012Y-93383927D01*
X149532536Y-93383927D01*
X149437298Y-93431546D01*
X149389679Y-93479165D01*
X149342060Y-93574403D01*
X104802380Y-89419145D02*
X103802380Y-89419145D01*
X103802380Y-89181050D01*
X103850000Y-89038193D01*
X103945238Y-88942955D01*
X104040476Y-88895336D01*
X104230952Y-88847717D01*
X104373809Y-88847717D01*
X104564285Y-88895336D01*
X104659523Y-88942955D01*
X104754761Y-89038193D01*
X104802380Y-89181050D01*
X104802380Y-89419145D01*
X103802380Y-87942955D02*
X103802380Y-88419145D01*
X104278571Y-88466764D01*
X104230952Y-88419145D01*
X104183333Y-88323907D01*
X104183333Y-88085812D01*
X104230952Y-87990574D01*
X104278571Y-87942955D01*
X104373809Y-87895336D01*
X104611904Y-87895336D01*
X104707142Y-87942955D01*
X104754761Y-87990574D01*
X104802380Y-88085812D01*
X104802380Y-88323907D01*
X104754761Y-88419145D01*
X104707142Y-88466764D01*
X104802380Y-86942955D02*
X104802380Y-87514383D01*
X104802380Y-87228669D02*
X103802380Y-87228669D01*
X103945238Y-87323907D01*
X104040476Y-87419145D01*
X104088095Y-87514383D01*
X104802380Y-63655257D02*
X103802380Y-63655257D01*
X103802380Y-63417162D01*
X103850000Y-63274305D01*
X103945238Y-63179067D01*
X104040476Y-63131448D01*
X104230952Y-63083829D01*
X104373809Y-63083829D01*
X104564285Y-63131448D01*
X104659523Y-63179067D01*
X104754761Y-63274305D01*
X104802380Y-63417162D01*
X104802380Y-63655257D01*
X104802380Y-62131448D02*
X104802380Y-62702876D01*
X104802380Y-62417162D02*
X103802380Y-62417162D01*
X103945238Y-62512400D01*
X104040476Y-62607638D01*
X104088095Y-62702876D01*
X104802380Y-61179067D02*
X104802380Y-61750495D01*
X104802380Y-61464781D02*
X103802380Y-61464781D01*
X103945238Y-61560019D01*
X104040476Y-61655257D01*
X104088095Y-61750495D01*
X130580156Y-70096229D02*
X129580156Y-70096229D01*
X129580156Y-69858134D01*
X129627776Y-69715277D01*
X129723014Y-69620039D01*
X129818252Y-69572420D01*
X130008728Y-69524801D01*
X130151585Y-69524801D01*
X130342061Y-69572420D01*
X130437299Y-69620039D01*
X130532537Y-69715277D01*
X130580156Y-69858134D01*
X130580156Y-70096229D01*
X129675395Y-69143848D02*
X129627776Y-69096229D01*
X129580156Y-69000991D01*
X129580156Y-68762896D01*
X129627776Y-68667658D01*
X129675395Y-68620039D01*
X129770633Y-68572420D01*
X129865871Y-68572420D01*
X130008728Y-68620039D01*
X130580156Y-69191467D01*
X130580156Y-68572420D01*
X129580156Y-67667658D02*
X129580156Y-68143848D01*
X130056347Y-68191467D01*
X130008728Y-68143848D01*
X129961109Y-68048610D01*
X129961109Y-67810515D01*
X130008728Y-67715277D01*
X130056347Y-67667658D01*
X130151585Y-67620039D01*
X130389680Y-67620039D01*
X130484918Y-67667658D01*
X130532537Y-67715277D01*
X130580156Y-67810515D01*
X130580156Y-68048610D01*
X130532537Y-68143848D01*
X130484918Y-68191467D01*
X143469044Y-102301089D02*
X142469044Y-102301089D01*
X142469044Y-102062994D01*
X142516664Y-101920137D01*
X142611902Y-101824899D01*
X142707140Y-101777280D01*
X142897616Y-101729661D01*
X143040473Y-101729661D01*
X143230949Y-101777280D01*
X143326187Y-101824899D01*
X143421425Y-101920137D01*
X143469044Y-102062994D01*
X143469044Y-102301089D01*
X142469044Y-101396327D02*
X142469044Y-100729661D01*
X143469044Y-101158232D01*
X142469044Y-100443946D02*
X142469044Y-99777280D01*
X143469044Y-100205851D01*
X162802380Y-70096229D02*
X161802380Y-70096229D01*
X161802380Y-69858134D01*
X161850000Y-69715277D01*
X161945238Y-69620039D01*
X162040476Y-69572420D01*
X162230952Y-69524801D01*
X162373809Y-69524801D01*
X162564285Y-69572420D01*
X162659523Y-69620039D01*
X162754761Y-69715277D01*
X162802380Y-69858134D01*
X162802380Y-70096229D01*
X161802380Y-69191467D02*
X161802380Y-68572420D01*
X162183333Y-68905753D01*
X162183333Y-68762896D01*
X162230952Y-68667658D01*
X162278571Y-68620039D01*
X162373809Y-68572420D01*
X162611904Y-68572420D01*
X162707142Y-68620039D01*
X162754761Y-68667658D01*
X162802380Y-68762896D01*
X162802380Y-69048610D01*
X162754761Y-69143848D01*
X162707142Y-69191467D01*
X161802380Y-67953372D02*
X161802380Y-67858134D01*
X161850000Y-67762896D01*
X161897619Y-67715277D01*
X161992857Y-67667658D01*
X162183333Y-67620039D01*
X162421428Y-67620039D01*
X162611904Y-67667658D01*
X162707142Y-67715277D01*
X162754761Y-67762896D01*
X162802380Y-67858134D01*
X162802380Y-67953372D01*
X162754761Y-68048610D01*
X162707142Y-68096229D01*
X162611904Y-68143848D01*
X162421428Y-68191467D01*
X162183333Y-68191467D01*
X161992857Y-68143848D01*
X161897619Y-68096229D01*
X161850000Y-68048610D01*
X161802380Y-67953372D01*
X156357932Y-70096229D02*
X155357932Y-70096229D01*
X155357932Y-69858134D01*
X155405552Y-69715277D01*
X155500790Y-69620039D01*
X155596028Y-69572420D01*
X155786504Y-69524801D01*
X155929361Y-69524801D01*
X156119837Y-69572420D01*
X156215075Y-69620039D01*
X156310313Y-69715277D01*
X156357932Y-69858134D01*
X156357932Y-70096229D01*
X155453171Y-69143848D02*
X155405552Y-69096229D01*
X155357932Y-69000991D01*
X155357932Y-68762896D01*
X155405552Y-68667658D01*
X155453171Y-68620039D01*
X155548409Y-68572420D01*
X155643647Y-68572420D01*
X155786504Y-68620039D01*
X156357932Y-69191467D01*
X156357932Y-68572420D01*
X156357932Y-68096229D02*
X156357932Y-67905753D01*
X156310313Y-67810515D01*
X156262694Y-67762896D01*
X156119837Y-67667658D01*
X155929361Y-67620039D01*
X155548409Y-67620039D01*
X155453171Y-67667658D01*
X155405552Y-67715277D01*
X155357932Y-67810515D01*
X155357932Y-68000991D01*
X155405552Y-68096229D01*
X155453171Y-68143848D01*
X155548409Y-68191467D01*
X155786504Y-68191467D01*
X155881742Y-68143848D01*
X155929361Y-68096229D01*
X155976980Y-68000991D01*
X155976980Y-67810515D01*
X155929361Y-67715277D01*
X155881742Y-67667658D01*
X155786504Y-67620039D01*
X104802380Y-108742061D02*
X103802380Y-108742061D01*
X103802380Y-108503966D01*
X103850000Y-108361109D01*
X103945238Y-108265871D01*
X104040476Y-108218252D01*
X104230952Y-108170633D01*
X104373809Y-108170633D01*
X104564285Y-108218252D01*
X104659523Y-108265871D01*
X104754761Y-108361109D01*
X104802380Y-108503966D01*
X104802380Y-108742061D01*
X104230952Y-107599204D02*
X104183333Y-107694442D01*
X104135714Y-107742061D01*
X104040476Y-107789680D01*
X103992857Y-107789680D01*
X103897619Y-107742061D01*
X103850000Y-107694442D01*
X103802380Y-107599204D01*
X103802380Y-107408728D01*
X103850000Y-107313490D01*
X103897619Y-107265871D01*
X103992857Y-107218252D01*
X104040476Y-107218252D01*
X104135714Y-107265871D01*
X104183333Y-107313490D01*
X104230952Y-107408728D01*
X104230952Y-107599204D01*
X104278571Y-107694442D01*
X104326190Y-107742061D01*
X104421428Y-107789680D01*
X104611904Y-107789680D01*
X104707142Y-107742061D01*
X104754761Y-107694442D01*
X104802380Y-107599204D01*
X104802380Y-107408728D01*
X104754761Y-107313490D01*
X104707142Y-107265871D01*
X104611904Y-107218252D01*
X104421428Y-107218252D01*
X104326190Y-107265871D01*
X104278571Y-107313490D01*
X104230952Y-107408728D01*
X104802380Y-106265871D02*
X104802380Y-106837299D01*
X104802380Y-106551585D02*
X103802380Y-106551585D01*
X103945238Y-106646823D01*
X104040476Y-106742061D01*
X104088095Y-106837299D01*
X124135712Y-76537201D02*
X123135712Y-76537201D01*
X123135712Y-76299106D01*
X123183332Y-76156249D01*
X123278570Y-76061011D01*
X123373808Y-76013392D01*
X123564284Y-75965773D01*
X123707141Y-75965773D01*
X123897617Y-76013392D01*
X123992855Y-76061011D01*
X124088093Y-76156249D01*
X124135712Y-76299106D01*
X124135712Y-76537201D01*
X123135712Y-75632439D02*
X123135712Y-75013392D01*
X123516665Y-75346725D01*
X123516665Y-75203868D01*
X123564284Y-75108630D01*
X123611903Y-75061011D01*
X123707141Y-75013392D01*
X123945236Y-75013392D01*
X124040474Y-75061011D01*
X124088093Y-75108630D01*
X124135712Y-75203868D01*
X124135712Y-75489582D01*
X124088093Y-75584820D01*
X124040474Y-75632439D01*
X123469046Y-74156249D02*
X124135712Y-74156249D01*
X123088093Y-74394344D02*
X123802379Y-74632439D01*
X123802379Y-74013392D01*
X149913488Y-76537201D02*
X148913488Y-76537201D01*
X148913488Y-76299106D01*
X148961108Y-76156249D01*
X149056346Y-76061011D01*
X149151584Y-76013392D01*
X149342060Y-75965773D01*
X149484917Y-75965773D01*
X149675393Y-76013392D01*
X149770631Y-76061011D01*
X149865869Y-76156249D01*
X149913488Y-76299106D01*
X149913488Y-76537201D01*
X148913488Y-75632439D02*
X148913488Y-75013392D01*
X149294441Y-75346725D01*
X149294441Y-75203868D01*
X149342060Y-75108630D01*
X149389679Y-75061011D01*
X149484917Y-75013392D01*
X149723012Y-75013392D01*
X149818250Y-75061011D01*
X149865869Y-75108630D01*
X149913488Y-75203868D01*
X149913488Y-75489582D01*
X149865869Y-75584820D01*
X149818250Y-75632439D01*
X149342060Y-74441963D02*
X149294441Y-74537201D01*
X149246822Y-74584820D01*
X149151584Y-74632439D01*
X149103965Y-74632439D01*
X149008727Y-74584820D01*
X148961108Y-74537201D01*
X148913488Y-74441963D01*
X148913488Y-74251487D01*
X148961108Y-74156249D01*
X149008727Y-74108630D01*
X149103965Y-74061011D01*
X149151584Y-74061011D01*
X149246822Y-74108630D01*
X149294441Y-74156249D01*
X149342060Y-74251487D01*
X149342060Y-74441963D01*
X149389679Y-74537201D01*
X149437298Y-74584820D01*
X149532536Y-74632439D01*
X149723012Y-74632439D01*
X149818250Y-74584820D01*
X149865869Y-74537201D01*
X149913488Y-74441963D01*
X149913488Y-74251487D01*
X149865869Y-74156249D01*
X149818250Y-74108630D01*
X149723012Y-74061011D01*
X149532536Y-74061011D01*
X149437298Y-74108630D01*
X149389679Y-74156249D01*
X149342060Y-74251487D01*
X156357932Y-89419145D02*
X155357932Y-89419145D01*
X155357932Y-89181050D01*
X155405552Y-89038193D01*
X155500790Y-88942955D01*
X155596028Y-88895336D01*
X155786504Y-88847717D01*
X155929361Y-88847717D01*
X156119837Y-88895336D01*
X156215075Y-88942955D01*
X156310313Y-89038193D01*
X156357932Y-89181050D01*
X156357932Y-89419145D01*
X155357932Y-87942955D02*
X155357932Y-88419145D01*
X155834123Y-88466764D01*
X155786504Y-88419145D01*
X155738885Y-88323907D01*
X155738885Y-88085812D01*
X155786504Y-87990574D01*
X155834123Y-87942955D01*
X155929361Y-87895336D01*
X156167456Y-87895336D01*
X156262694Y-87942955D01*
X156310313Y-87990574D01*
X156357932Y-88085812D01*
X156357932Y-88323907D01*
X156310313Y-88419145D01*
X156262694Y-88466764D01*
X156357932Y-87419145D02*
X156357932Y-87228669D01*
X156310313Y-87133431D01*
X156262694Y-87085812D01*
X156119837Y-86990574D01*
X155929361Y-86942955D01*
X155548409Y-86942955D01*
X155453171Y-86990574D01*
X155405552Y-87038193D01*
X155357932Y-87133431D01*
X155357932Y-87323907D01*
X155405552Y-87419145D01*
X155453171Y-87466764D01*
X155548409Y-87514383D01*
X155786504Y-87514383D01*
X155881742Y-87466764D01*
X155929361Y-87419145D01*
X155976980Y-87323907D01*
X155976980Y-87133431D01*
X155929361Y-87038193D01*
X155881742Y-86990574D01*
X155786504Y-86942955D01*
X143469044Y-108742061D02*
X142469044Y-108742061D01*
X142469044Y-108503966D01*
X142516664Y-108361109D01*
X142611902Y-108265871D01*
X142707140Y-108218252D01*
X142897616Y-108170633D01*
X143040473Y-108170633D01*
X143230949Y-108218252D01*
X143326187Y-108265871D01*
X143421425Y-108361109D01*
X143469044Y-108503966D01*
X143469044Y-108742061D01*
X142897616Y-107599204D02*
X142849997Y-107694442D01*
X142802378Y-107742061D01*
X142707140Y-107789680D01*
X142659521Y-107789680D01*
X142564283Y-107742061D01*
X142516664Y-107694442D01*
X142469044Y-107599204D01*
X142469044Y-107408728D01*
X142516664Y-107313490D01*
X142564283Y-107265871D01*
X142659521Y-107218252D01*
X142707140Y-107218252D01*
X142802378Y-107265871D01*
X142849997Y-107313490D01*
X142897616Y-107408728D01*
X142897616Y-107599204D01*
X142945235Y-107694442D01*
X142992854Y-107742061D01*
X143088092Y-107789680D01*
X143278568Y-107789680D01*
X143373806Y-107742061D01*
X143421425Y-107694442D01*
X143469044Y-107599204D01*
X143469044Y-107408728D01*
X143421425Y-107313490D01*
X143373806Y-107265871D01*
X143278568Y-107218252D01*
X143088092Y-107218252D01*
X142992854Y-107265871D01*
X142945235Y-107313490D01*
X142897616Y-107408728D01*
X142469044Y-106884918D02*
X142469044Y-106218252D01*
X143469044Y-106646823D01*
X149913488Y-82978173D02*
X148913488Y-82978173D01*
X148913488Y-82740078D01*
X148961108Y-82597221D01*
X149056346Y-82501983D01*
X149151584Y-82454364D01*
X149342060Y-82406745D01*
X149484917Y-82406745D01*
X149675393Y-82454364D01*
X149770631Y-82501983D01*
X149865869Y-82597221D01*
X149913488Y-82740078D01*
X149913488Y-82978173D01*
X149246822Y-81549602D02*
X149913488Y-81549602D01*
X148865869Y-81787697D02*
X149580155Y-82025792D01*
X149580155Y-81406745D01*
X149342060Y-80882935D02*
X149294441Y-80978173D01*
X149246822Y-81025792D01*
X149151584Y-81073411D01*
X149103965Y-81073411D01*
X149008727Y-81025792D01*
X148961108Y-80978173D01*
X148913488Y-80882935D01*
X148913488Y-80692459D01*
X148961108Y-80597221D01*
X149008727Y-80549602D01*
X149103965Y-80501983D01*
X149151584Y-80501983D01*
X149246822Y-80549602D01*
X149294441Y-80597221D01*
X149342060Y-80692459D01*
X149342060Y-80882935D01*
X149389679Y-80978173D01*
X149437298Y-81025792D01*
X149532536Y-81073411D01*
X149723012Y-81073411D01*
X149818250Y-81025792D01*
X149865869Y-80978173D01*
X149913488Y-80882935D01*
X149913488Y-80692459D01*
X149865869Y-80597221D01*
X149818250Y-80549602D01*
X149723012Y-80501983D01*
X149532536Y-80501983D01*
X149437298Y-80549602D01*
X149389679Y-80597221D01*
X149342060Y-80692459D01*
X111246824Y-102301089D02*
X110246824Y-102301089D01*
X110246824Y-102062994D01*
X110294444Y-101920137D01*
X110389682Y-101824899D01*
X110484920Y-101777280D01*
X110675396Y-101729661D01*
X110818253Y-101729661D01*
X111008729Y-101777280D01*
X111103967Y-101824899D01*
X111199205Y-101920137D01*
X111246824Y-102062994D01*
X111246824Y-102301089D01*
X110246824Y-101396327D02*
X110246824Y-100729661D01*
X111246824Y-101158232D01*
X110342063Y-100396327D02*
X110294444Y-100348708D01*
X110246824Y-100253470D01*
X110246824Y-100015375D01*
X110294444Y-99920137D01*
X110342063Y-99872518D01*
X110437301Y-99824899D01*
X110532539Y-99824899D01*
X110675396Y-99872518D01*
X111246824Y-100443946D01*
X111246824Y-99824899D01*
X149913488Y-108742061D02*
X148913488Y-108742061D01*
X148913488Y-108503966D01*
X148961108Y-108361109D01*
X149056346Y-108265871D01*
X149151584Y-108218252D01*
X149342060Y-108170633D01*
X149484917Y-108170633D01*
X149675393Y-108218252D01*
X149770631Y-108265871D01*
X149865869Y-108361109D01*
X149913488Y-108503966D01*
X149913488Y-108742061D01*
X149342060Y-107599204D02*
X149294441Y-107694442D01*
X149246822Y-107742061D01*
X149151584Y-107789680D01*
X149103965Y-107789680D01*
X149008727Y-107742061D01*
X148961108Y-107694442D01*
X148913488Y-107599204D01*
X148913488Y-107408728D01*
X148961108Y-107313490D01*
X149008727Y-107265871D01*
X149103965Y-107218252D01*
X149151584Y-107218252D01*
X149246822Y-107265871D01*
X149294441Y-107313490D01*
X149342060Y-107408728D01*
X149342060Y-107599204D01*
X149389679Y-107694442D01*
X149437298Y-107742061D01*
X149532536Y-107789680D01*
X149723012Y-107789680D01*
X149818250Y-107742061D01*
X149865869Y-107694442D01*
X149913488Y-107599204D01*
X149913488Y-107408728D01*
X149865869Y-107313490D01*
X149818250Y-107265871D01*
X149723012Y-107218252D01*
X149532536Y-107218252D01*
X149437298Y-107265871D01*
X149389679Y-107313490D01*
X149342060Y-107408728D01*
X149342060Y-106646823D02*
X149294441Y-106742061D01*
X149246822Y-106789680D01*
X149151584Y-106837299D01*
X149103965Y-106837299D01*
X149008727Y-106789680D01*
X148961108Y-106742061D01*
X148913488Y-106646823D01*
X148913488Y-106456347D01*
X148961108Y-106361109D01*
X149008727Y-106313490D01*
X149103965Y-106265871D01*
X149151584Y-106265871D01*
X149246822Y-106313490D01*
X149294441Y-106361109D01*
X149342060Y-106456347D01*
X149342060Y-106646823D01*
X149389679Y-106742061D01*
X149437298Y-106789680D01*
X149532536Y-106837299D01*
X149723012Y-106837299D01*
X149818250Y-106789680D01*
X149865869Y-106742061D01*
X149913488Y-106646823D01*
X149913488Y-106456347D01*
X149865869Y-106361109D01*
X149818250Y-106313490D01*
X149723012Y-106265871D01*
X149532536Y-106265871D01*
X149437298Y-106313490D01*
X149389679Y-106361109D01*
X149342060Y-106456347D01*
X117691268Y-89419145D02*
X116691268Y-89419145D01*
X116691268Y-89181050D01*
X116738888Y-89038193D01*
X116834126Y-88942955D01*
X116929364Y-88895336D01*
X117119840Y-88847717D01*
X117262697Y-88847717D01*
X117453173Y-88895336D01*
X117548411Y-88942955D01*
X117643649Y-89038193D01*
X117691268Y-89181050D01*
X117691268Y-89419145D01*
X116691268Y-87942955D02*
X116691268Y-88419145D01*
X117167459Y-88466764D01*
X117119840Y-88419145D01*
X117072221Y-88323907D01*
X117072221Y-88085812D01*
X117119840Y-87990574D01*
X117167459Y-87942955D01*
X117262697Y-87895336D01*
X117500792Y-87895336D01*
X117596030Y-87942955D01*
X117643649Y-87990574D01*
X117691268Y-88085812D01*
X117691268Y-88323907D01*
X117643649Y-88419145D01*
X117596030Y-88466764D01*
X116691268Y-87562002D02*
X116691268Y-86942955D01*
X117072221Y-87276288D01*
X117072221Y-87133431D01*
X117119840Y-87038193D01*
X117167459Y-86990574D01*
X117262697Y-86942955D01*
X117500792Y-86942955D01*
X117596030Y-86990574D01*
X117643649Y-87038193D01*
X117691268Y-87133431D01*
X117691268Y-87419145D01*
X117643649Y-87514383D01*
X117596030Y-87562002D01*
X117691268Y-102301089D02*
X116691268Y-102301089D01*
X116691268Y-102062994D01*
X116738888Y-101920137D01*
X116834126Y-101824899D01*
X116929364Y-101777280D01*
X117119840Y-101729661D01*
X117262697Y-101729661D01*
X117453173Y-101777280D01*
X117548411Y-101824899D01*
X117643649Y-101920137D01*
X117691268Y-102062994D01*
X117691268Y-102301089D01*
X116691268Y-101396327D02*
X116691268Y-100729661D01*
X117691268Y-101158232D01*
X116691268Y-100443946D02*
X116691268Y-99824899D01*
X117072221Y-100158232D01*
X117072221Y-100015375D01*
X117119840Y-99920137D01*
X117167459Y-99872518D01*
X117262697Y-99824899D01*
X117500792Y-99824899D01*
X117596030Y-99872518D01*
X117643649Y-99920137D01*
X117691268Y-100015375D01*
X117691268Y-100301089D01*
X117643649Y-100396327D01*
X117596030Y-100443946D01*
X111246824Y-70096229D02*
X110246824Y-70096229D01*
X110246824Y-69858134D01*
X110294444Y-69715277D01*
X110389682Y-69620039D01*
X110484920Y-69572420D01*
X110675396Y-69524801D01*
X110818253Y-69524801D01*
X111008729Y-69572420D01*
X111103967Y-69620039D01*
X111199205Y-69715277D01*
X111246824Y-69858134D01*
X111246824Y-70096229D01*
X110342063Y-69143848D02*
X110294444Y-69096229D01*
X110246824Y-69000991D01*
X110246824Y-68762896D01*
X110294444Y-68667658D01*
X110342063Y-68620039D01*
X110437301Y-68572420D01*
X110532539Y-68572420D01*
X110675396Y-68620039D01*
X111246824Y-69191467D01*
X111246824Y-68572420D01*
X110342063Y-68191467D02*
X110294444Y-68143848D01*
X110246824Y-68048610D01*
X110246824Y-67810515D01*
X110294444Y-67715277D01*
X110342063Y-67667658D01*
X110437301Y-67620039D01*
X110532539Y-67620039D01*
X110675396Y-67667658D01*
X111246824Y-68239086D01*
X111246824Y-67620039D01*
X156357932Y-76537201D02*
X155357932Y-76537201D01*
X155357932Y-76299106D01*
X155405552Y-76156249D01*
X155500790Y-76061011D01*
X155596028Y-76013392D01*
X155786504Y-75965773D01*
X155929361Y-75965773D01*
X156119837Y-76013392D01*
X156215075Y-76061011D01*
X156310313Y-76156249D01*
X156357932Y-76299106D01*
X156357932Y-76537201D01*
X155357932Y-75632439D02*
X155357932Y-75013392D01*
X155738885Y-75346725D01*
X155738885Y-75203868D01*
X155786504Y-75108630D01*
X155834123Y-75061011D01*
X155929361Y-75013392D01*
X156167456Y-75013392D01*
X156262694Y-75061011D01*
X156310313Y-75108630D01*
X156357932Y-75203868D01*
X156357932Y-75489582D01*
X156310313Y-75584820D01*
X156262694Y-75632439D01*
X156357932Y-74537201D02*
X156357932Y-74346725D01*
X156310313Y-74251487D01*
X156262694Y-74203868D01*
X156119837Y-74108630D01*
X155929361Y-74061011D01*
X155548409Y-74061011D01*
X155453171Y-74108630D01*
X155405552Y-74156249D01*
X155357932Y-74251487D01*
X155357932Y-74441963D01*
X155405552Y-74537201D01*
X155453171Y-74584820D01*
X155548409Y-74632439D01*
X155786504Y-74632439D01*
X155881742Y-74584820D01*
X155929361Y-74537201D01*
X155976980Y-74441963D01*
X155976980Y-74251487D01*
X155929361Y-74156249D01*
X155881742Y-74108630D01*
X155786504Y-74061011D01*
X137024600Y-82978173D02*
X136024600Y-82978173D01*
X136024600Y-82740078D01*
X136072220Y-82597221D01*
X136167458Y-82501983D01*
X136262696Y-82454364D01*
X136453172Y-82406745D01*
X136596029Y-82406745D01*
X136786505Y-82454364D01*
X136881743Y-82501983D01*
X136976981Y-82597221D01*
X137024600Y-82740078D01*
X137024600Y-82978173D01*
X136357934Y-81549602D02*
X137024600Y-81549602D01*
X135976981Y-81787697D02*
X136691267Y-82025792D01*
X136691267Y-81406745D01*
X136024600Y-80597221D02*
X136024600Y-80787697D01*
X136072220Y-80882935D01*
X136119839Y-80930554D01*
X136262696Y-81025792D01*
X136453172Y-81073411D01*
X136834124Y-81073411D01*
X136929362Y-81025792D01*
X136976981Y-80978173D01*
X137024600Y-80882935D01*
X137024600Y-80692459D01*
X136976981Y-80597221D01*
X136929362Y-80549602D01*
X136834124Y-80501983D01*
X136596029Y-80501983D01*
X136500791Y-80549602D01*
X136453172Y-80597221D01*
X136405553Y-80692459D01*
X136405553Y-80882935D01*
X136453172Y-80978173D01*
X136500791Y-81025792D01*
X136596029Y-81073411D01*
X117691268Y-108742061D02*
X116691268Y-108742061D01*
X116691268Y-108503966D01*
X116738888Y-108361109D01*
X116834126Y-108265871D01*
X116929364Y-108218252D01*
X117119840Y-108170633D01*
X117262697Y-108170633D01*
X117453173Y-108218252D01*
X117548411Y-108265871D01*
X117643649Y-108361109D01*
X117691268Y-108503966D01*
X117691268Y-108742061D01*
X117119840Y-107599204D02*
X117072221Y-107694442D01*
X117024602Y-107742061D01*
X116929364Y-107789680D01*
X116881745Y-107789680D01*
X116786507Y-107742061D01*
X116738888Y-107694442D01*
X116691268Y-107599204D01*
X116691268Y-107408728D01*
X116738888Y-107313490D01*
X116786507Y-107265871D01*
X116881745Y-107218252D01*
X116929364Y-107218252D01*
X117024602Y-107265871D01*
X117072221Y-107313490D01*
X117119840Y-107408728D01*
X117119840Y-107599204D01*
X117167459Y-107694442D01*
X117215078Y-107742061D01*
X117310316Y-107789680D01*
X117500792Y-107789680D01*
X117596030Y-107742061D01*
X117643649Y-107694442D01*
X117691268Y-107599204D01*
X117691268Y-107408728D01*
X117643649Y-107313490D01*
X117596030Y-107265871D01*
X117500792Y-107218252D01*
X117310316Y-107218252D01*
X117215078Y-107265871D01*
X117167459Y-107313490D01*
X117119840Y-107408728D01*
X116691268Y-106884918D02*
X116691268Y-106265871D01*
X117072221Y-106599204D01*
X117072221Y-106456347D01*
X117119840Y-106361109D01*
X117167459Y-106313490D01*
X117262697Y-106265871D01*
X117500792Y-106265871D01*
X117596030Y-106313490D01*
X117643649Y-106361109D01*
X117691268Y-106456347D01*
X117691268Y-106742061D01*
X117643649Y-106837299D01*
X117596030Y-106884918D01*
X137024600Y-89419145D02*
X136024600Y-89419145D01*
X136024600Y-89181050D01*
X136072220Y-89038193D01*
X136167458Y-88942955D01*
X136262696Y-88895336D01*
X136453172Y-88847717D01*
X136596029Y-88847717D01*
X136786505Y-88895336D01*
X136881743Y-88942955D01*
X136976981Y-89038193D01*
X137024600Y-89181050D01*
X137024600Y-89419145D01*
X136024600Y-87942955D02*
X136024600Y-88419145D01*
X136500791Y-88466764D01*
X136453172Y-88419145D01*
X136405553Y-88323907D01*
X136405553Y-88085812D01*
X136453172Y-87990574D01*
X136500791Y-87942955D01*
X136596029Y-87895336D01*
X136834124Y-87895336D01*
X136929362Y-87942955D01*
X136976981Y-87990574D01*
X137024600Y-88085812D01*
X137024600Y-88323907D01*
X136976981Y-88419145D01*
X136929362Y-88466764D01*
X136024600Y-87038193D02*
X136024600Y-87228669D01*
X136072220Y-87323907D01*
X136119839Y-87371526D01*
X136262696Y-87466764D01*
X136453172Y-87514383D01*
X136834124Y-87514383D01*
X136929362Y-87466764D01*
X136976981Y-87419145D01*
X137024600Y-87323907D01*
X137024600Y-87133431D01*
X136976981Y-87038193D01*
X136929362Y-86990574D01*
X136834124Y-86942955D01*
X136596029Y-86942955D01*
X136500791Y-86990574D01*
X136453172Y-87038193D01*
X136405553Y-87133431D01*
X136405553Y-87323907D01*
X136453172Y-87419145D01*
X136500791Y-87466764D01*
X136596029Y-87514383D01*
X124135712Y-63655257D02*
X123135712Y-63655257D01*
X123135712Y-63417162D01*
X123183332Y-63274305D01*
X123278570Y-63179067D01*
X123373808Y-63131448D01*
X123564284Y-63083829D01*
X123707141Y-63083829D01*
X123897617Y-63131448D01*
X123992855Y-63179067D01*
X124088093Y-63274305D01*
X124135712Y-63417162D01*
X124135712Y-63655257D01*
X124135712Y-62131448D02*
X124135712Y-62702876D01*
X124135712Y-62417162D02*
X123135712Y-62417162D01*
X123278570Y-62512400D01*
X123373808Y-62607638D01*
X123421427Y-62702876D01*
X123469046Y-61274305D02*
X124135712Y-61274305D01*
X123088093Y-61512400D02*
X123802379Y-61750495D01*
X123802379Y-61131448D01*
X149913488Y-115151783D02*
X148913488Y-115151783D01*
X148913488Y-114913688D01*
X148961108Y-114770831D01*
X149056346Y-114675593D01*
X149151584Y-114627974D01*
X149342060Y-114580355D01*
X149484917Y-114580355D01*
X149675393Y-114627974D01*
X149770631Y-114675593D01*
X149865869Y-114770831D01*
X149913488Y-114913688D01*
X149913488Y-115151783D01*
X149913488Y-114104164D02*
X149913488Y-113913688D01*
X149865869Y-113818450D01*
X149818250Y-113770831D01*
X149675393Y-113675593D01*
X149484917Y-113627974D01*
X149103965Y-113627974D01*
X149008727Y-113675593D01*
X148961108Y-113723212D01*
X148913488Y-113818450D01*
X148913488Y-114008926D01*
X148961108Y-114104164D01*
X149008727Y-114151783D01*
X149103965Y-114199402D01*
X149342060Y-114199402D01*
X149437298Y-114151783D01*
X149484917Y-114104164D01*
X149532536Y-114008926D01*
X149532536Y-113818450D01*
X149484917Y-113723212D01*
X149437298Y-113675593D01*
X149342060Y-113627974D01*
X149342060Y-113056545D02*
X149294441Y-113151783D01*
X149246822Y-113199402D01*
X149151584Y-113247021D01*
X149103965Y-113247021D01*
X149008727Y-113199402D01*
X148961108Y-113151783D01*
X148913488Y-113056545D01*
X148913488Y-112866069D01*
X148961108Y-112770831D01*
X149008727Y-112723212D01*
X149103965Y-112675593D01*
X149151584Y-112675593D01*
X149246822Y-112723212D01*
X149294441Y-112770831D01*
X149342060Y-112866069D01*
X149342060Y-113056545D01*
X149389679Y-113151783D01*
X149437298Y-113199402D01*
X149532536Y-113247021D01*
X149723012Y-113247021D01*
X149818250Y-113199402D01*
X149865869Y-113151783D01*
X149913488Y-113056545D01*
X149913488Y-112866069D01*
X149865869Y-112770831D01*
X149818250Y-112723212D01*
X149723012Y-112675593D01*
X149532536Y-112675593D01*
X149437298Y-112723212D01*
X149389679Y-112770831D01*
X149342060Y-112866069D01*
X162802380Y-115690474D02*
X161802380Y-115690474D01*
X161802380Y-115452378D01*
X161850000Y-115309521D01*
X161945238Y-115214283D01*
X162040476Y-115166664D01*
X162230952Y-115119045D01*
X162373809Y-115119045D01*
X162564285Y-115166664D01*
X162659523Y-115214283D01*
X162754761Y-115309521D01*
X162802380Y-115452378D01*
X162802380Y-115690474D01*
X162802380Y-114166664D02*
X162802380Y-114738093D01*
X162802380Y-114452378D02*
X161802380Y-114452378D01*
X161945238Y-114547617D01*
X162040476Y-114642855D01*
X162088095Y-114738093D01*
X161802380Y-113547617D02*
X161802380Y-113452378D01*
X161850000Y-113357140D01*
X161897619Y-113309521D01*
X161992857Y-113261902D01*
X162183333Y-113214283D01*
X162421428Y-113214283D01*
X162611904Y-113261902D01*
X162707142Y-113309521D01*
X162754761Y-113357140D01*
X162802380Y-113452378D01*
X162802380Y-113547617D01*
X162754761Y-113642855D01*
X162707142Y-113690474D01*
X162611904Y-113738093D01*
X162421428Y-113785712D01*
X162183333Y-113785712D01*
X161992857Y-113738093D01*
X161897619Y-113690474D01*
X161850000Y-113642855D01*
X161802380Y-113547617D01*
X161802380Y-112595236D02*
X161802380Y-112499998D01*
X161850000Y-112404759D01*
X161897619Y-112357140D01*
X161992857Y-112309521D01*
X162183333Y-112261902D01*
X162421428Y-112261902D01*
X162611904Y-112309521D01*
X162707142Y-112357140D01*
X162754761Y-112404759D01*
X162802380Y-112499998D01*
X162802380Y-112595236D01*
X162754761Y-112690474D01*
X162707142Y-112738093D01*
X162611904Y-112785712D01*
X162421428Y-112833331D01*
X162183333Y-112833331D01*
X161992857Y-112785712D01*
X161897619Y-112738093D01*
X161850000Y-112690474D01*
X161802380Y-112595236D01*
X130580156Y-56738095D02*
X129580156Y-56738095D01*
X129580156Y-56500000D01*
X129627776Y-56357142D01*
X129723014Y-56261904D01*
X129818252Y-56214285D01*
X130008728Y-56166666D01*
X130151585Y-56166666D01*
X130342061Y-56214285D01*
X130437299Y-56261904D01*
X130532537Y-56357142D01*
X130580156Y-56500000D01*
X130580156Y-56738095D01*
X129580156Y-55261904D02*
X129580156Y-55738095D01*
X130056347Y-55785714D01*
X130008728Y-55738095D01*
X129961109Y-55642857D01*
X129961109Y-55404761D01*
X130008728Y-55309523D01*
X130056347Y-55261904D01*
X130151585Y-55214285D01*
X130389680Y-55214285D01*
X130484918Y-55261904D01*
X130532537Y-55309523D01*
X130580156Y-55404761D01*
X130580156Y-55642857D01*
X130532537Y-55738095D01*
X130484918Y-55785714D01*
X130580156Y-108742061D02*
X129580156Y-108742061D01*
X129580156Y-108503966D01*
X129627776Y-108361109D01*
X129723014Y-108265871D01*
X129818252Y-108218252D01*
X130008728Y-108170633D01*
X130151585Y-108170633D01*
X130342061Y-108218252D01*
X130437299Y-108265871D01*
X130532537Y-108361109D01*
X130580156Y-108503966D01*
X130580156Y-108742061D01*
X130008728Y-107599204D02*
X129961109Y-107694442D01*
X129913490Y-107742061D01*
X129818252Y-107789680D01*
X129770633Y-107789680D01*
X129675395Y-107742061D01*
X129627776Y-107694442D01*
X129580156Y-107599204D01*
X129580156Y-107408728D01*
X129627776Y-107313490D01*
X129675395Y-107265871D01*
X129770633Y-107218252D01*
X129818252Y-107218252D01*
X129913490Y-107265871D01*
X129961109Y-107313490D01*
X130008728Y-107408728D01*
X130008728Y-107599204D01*
X130056347Y-107694442D01*
X130103966Y-107742061D01*
X130199204Y-107789680D01*
X130389680Y-107789680D01*
X130484918Y-107742061D01*
X130532537Y-107694442D01*
X130580156Y-107599204D01*
X130580156Y-107408728D01*
X130532537Y-107313490D01*
X130484918Y-107265871D01*
X130389680Y-107218252D01*
X130199204Y-107218252D01*
X130103966Y-107265871D01*
X130056347Y-107313490D01*
X130008728Y-107408728D01*
X129580156Y-106313490D02*
X129580156Y-106789680D01*
X130056347Y-106837299D01*
X130008728Y-106789680D01*
X129961109Y-106694442D01*
X129961109Y-106456347D01*
X130008728Y-106361109D01*
X130056347Y-106313490D01*
X130151585Y-106265871D01*
X130389680Y-106265871D01*
X130484918Y-106313490D01*
X130532537Y-106361109D01*
X130580156Y-106456347D01*
X130580156Y-106694442D01*
X130532537Y-106789680D01*
X130484918Y-106837299D01*
X143469044Y-89419145D02*
X142469044Y-89419145D01*
X142469044Y-89181050D01*
X142516664Y-89038193D01*
X142611902Y-88942955D01*
X142707140Y-88895336D01*
X142897616Y-88847717D01*
X143040473Y-88847717D01*
X143230949Y-88895336D01*
X143326187Y-88942955D01*
X143421425Y-89038193D01*
X143469044Y-89181050D01*
X143469044Y-89419145D01*
X142469044Y-87942955D02*
X142469044Y-88419145D01*
X142945235Y-88466764D01*
X142897616Y-88419145D01*
X142849997Y-88323907D01*
X142849997Y-88085812D01*
X142897616Y-87990574D01*
X142945235Y-87942955D01*
X143040473Y-87895336D01*
X143278568Y-87895336D01*
X143373806Y-87942955D01*
X143421425Y-87990574D01*
X143469044Y-88085812D01*
X143469044Y-88323907D01*
X143421425Y-88419145D01*
X143373806Y-88466764D01*
X142469044Y-87562002D02*
X142469044Y-86895336D01*
X143469044Y-87323907D01*
X130580156Y-76537201D02*
X129580156Y-76537201D01*
X129580156Y-76299106D01*
X129627776Y-76156249D01*
X129723014Y-76061011D01*
X129818252Y-76013392D01*
X130008728Y-75965773D01*
X130151585Y-75965773D01*
X130342061Y-76013392D01*
X130437299Y-76061011D01*
X130532537Y-76156249D01*
X130580156Y-76299106D01*
X130580156Y-76537201D01*
X129580156Y-75632439D02*
X129580156Y-75013392D01*
X129961109Y-75346725D01*
X129961109Y-75203868D01*
X130008728Y-75108630D01*
X130056347Y-75061011D01*
X130151585Y-75013392D01*
X130389680Y-75013392D01*
X130484918Y-75061011D01*
X130532537Y-75108630D01*
X130580156Y-75203868D01*
X130580156Y-75489582D01*
X130532537Y-75584820D01*
X130484918Y-75632439D01*
X129580156Y-74108630D02*
X129580156Y-74584820D01*
X130056347Y-74632439D01*
X130008728Y-74584820D01*
X129961109Y-74489582D01*
X129961109Y-74251487D01*
X130008728Y-74156249D01*
X130056347Y-74108630D01*
X130151585Y-74061011D01*
X130389680Y-74061011D01*
X130484918Y-74108630D01*
X130532537Y-74156249D01*
X130580156Y-74251487D01*
X130580156Y-74489582D01*
X130532537Y-74584820D01*
X130484918Y-74632439D01*
X156357932Y-115151783D02*
X155357932Y-115151783D01*
X155357932Y-114913688D01*
X155405552Y-114770831D01*
X155500790Y-114675593D01*
X155596028Y-114627974D01*
X155786504Y-114580355D01*
X155929361Y-114580355D01*
X156119837Y-114627974D01*
X156215075Y-114675593D01*
X156310313Y-114770831D01*
X156357932Y-114913688D01*
X156357932Y-115151783D01*
X156357932Y-114104164D02*
X156357932Y-113913688D01*
X156310313Y-113818450D01*
X156262694Y-113770831D01*
X156119837Y-113675593D01*
X155929361Y-113627974D01*
X155548409Y-113627974D01*
X155453171Y-113675593D01*
X155405552Y-113723212D01*
X155357932Y-113818450D01*
X155357932Y-114008926D01*
X155405552Y-114104164D01*
X155453171Y-114151783D01*
X155548409Y-114199402D01*
X155786504Y-114199402D01*
X155881742Y-114151783D01*
X155929361Y-114104164D01*
X155976980Y-114008926D01*
X155976980Y-113818450D01*
X155929361Y-113723212D01*
X155881742Y-113675593D01*
X155786504Y-113627974D01*
X156357932Y-113151783D02*
X156357932Y-112961307D01*
X156310313Y-112866069D01*
X156262694Y-112818450D01*
X156119837Y-112723212D01*
X155929361Y-112675593D01*
X155548409Y-112675593D01*
X155453171Y-112723212D01*
X155405552Y-112770831D01*
X155357932Y-112866069D01*
X155357932Y-113056545D01*
X155405552Y-113151783D01*
X155453171Y-113199402D01*
X155548409Y-113247021D01*
X155786504Y-113247021D01*
X155881742Y-113199402D01*
X155929361Y-113151783D01*
X155976980Y-113056545D01*
X155976980Y-112866069D01*
X155929361Y-112770831D01*
X155881742Y-112723212D01*
X155786504Y-112675593D01*
X124135712Y-89419145D02*
X123135712Y-89419145D01*
X123135712Y-89181050D01*
X123183332Y-89038193D01*
X123278570Y-88942955D01*
X123373808Y-88895336D01*
X123564284Y-88847717D01*
X123707141Y-88847717D01*
X123897617Y-88895336D01*
X123992855Y-88942955D01*
X124088093Y-89038193D01*
X124135712Y-89181050D01*
X124135712Y-89419145D01*
X123135712Y-87942955D02*
X123135712Y-88419145D01*
X123611903Y-88466764D01*
X123564284Y-88419145D01*
X123516665Y-88323907D01*
X123516665Y-88085812D01*
X123564284Y-87990574D01*
X123611903Y-87942955D01*
X123707141Y-87895336D01*
X123945236Y-87895336D01*
X124040474Y-87942955D01*
X124088093Y-87990574D01*
X124135712Y-88085812D01*
X124135712Y-88323907D01*
X124088093Y-88419145D01*
X124040474Y-88466764D01*
X123469046Y-87038193D02*
X124135712Y-87038193D01*
X123088093Y-87276288D02*
X123802379Y-87514383D01*
X123802379Y-86895336D01*
X156357932Y-82978173D02*
X155357932Y-82978173D01*
X155357932Y-82740078D01*
X155405552Y-82597221D01*
X155500790Y-82501983D01*
X155596028Y-82454364D01*
X155786504Y-82406745D01*
X155929361Y-82406745D01*
X156119837Y-82454364D01*
X156215075Y-82501983D01*
X156310313Y-82597221D01*
X156357932Y-82740078D01*
X156357932Y-82978173D01*
X155691266Y-81549602D02*
X156357932Y-81549602D01*
X155310313Y-81787697D02*
X156024599Y-82025792D01*
X156024599Y-81406745D01*
X156357932Y-80978173D02*
X156357932Y-80787697D01*
X156310313Y-80692459D01*
X156262694Y-80644840D01*
X156119837Y-80549602D01*
X155929361Y-80501983D01*
X155548409Y-80501983D01*
X155453171Y-80549602D01*
X155405552Y-80597221D01*
X155357932Y-80692459D01*
X155357932Y-80882935D01*
X155405552Y-80978173D01*
X155453171Y-81025792D01*
X155548409Y-81073411D01*
X155786504Y-81073411D01*
X155881742Y-81025792D01*
X155929361Y-80978173D01*
X155976980Y-80882935D01*
X155976980Y-80692459D01*
X155929361Y-80597221D01*
X155881742Y-80549602D01*
X155786504Y-80501983D01*
X130580156Y-102301089D02*
X129580156Y-102301089D01*
X129580156Y-102062994D01*
X129627776Y-101920137D01*
X129723014Y-101824899D01*
X129818252Y-101777280D01*
X130008728Y-101729661D01*
X130151585Y-101729661D01*
X130342061Y-101777280D01*
X130437299Y-101824899D01*
X130532537Y-101920137D01*
X130580156Y-102062994D01*
X130580156Y-102301089D01*
X129580156Y-101396327D02*
X129580156Y-100729661D01*
X130580156Y-101158232D01*
X129580156Y-99872518D02*
X129580156Y-100348708D01*
X130056347Y-100396327D01*
X130008728Y-100348708D01*
X129961109Y-100253470D01*
X129961109Y-100015375D01*
X130008728Y-99920137D01*
X130056347Y-99872518D01*
X130151585Y-99824899D01*
X130389680Y-99824899D01*
X130484918Y-99872518D01*
X130532537Y-99920137D01*
X130580156Y-100015375D01*
X130580156Y-100253470D01*
X130532537Y-100348708D01*
X130484918Y-100396327D01*
X117691268Y-82978173D02*
X116691268Y-82978173D01*
X116691268Y-82740078D01*
X116738888Y-82597221D01*
X116834126Y-82501983D01*
X116929364Y-82454364D01*
X117119840Y-82406745D01*
X117262697Y-82406745D01*
X117453173Y-82454364D01*
X117548411Y-82501983D01*
X117643649Y-82597221D01*
X117691268Y-82740078D01*
X117691268Y-82978173D01*
X117024602Y-81549602D02*
X117691268Y-81549602D01*
X116643649Y-81787697D02*
X117357935Y-82025792D01*
X117357935Y-81406745D01*
X116691268Y-81121030D02*
X116691268Y-80501983D01*
X117072221Y-80835316D01*
X117072221Y-80692459D01*
X117119840Y-80597221D01*
X117167459Y-80549602D01*
X117262697Y-80501983D01*
X117500792Y-80501983D01*
X117596030Y-80549602D01*
X117643649Y-80597221D01*
X117691268Y-80692459D01*
X117691268Y-80978173D01*
X117643649Y-81073411D01*
X117596030Y-81121030D01*
X162802380Y-108742061D02*
X161802380Y-108742061D01*
X161802380Y-108503966D01*
X161850000Y-108361109D01*
X161945238Y-108265871D01*
X162040476Y-108218252D01*
X162230952Y-108170633D01*
X162373809Y-108170633D01*
X162564285Y-108218252D01*
X162659523Y-108265871D01*
X162754761Y-108361109D01*
X162802380Y-108503966D01*
X162802380Y-108742061D01*
X162802380Y-107694442D02*
X162802380Y-107503966D01*
X162754761Y-107408728D01*
X162707142Y-107361109D01*
X162564285Y-107265871D01*
X162373809Y-107218252D01*
X161992857Y-107218252D01*
X161897619Y-107265871D01*
X161850000Y-107313490D01*
X161802380Y-107408728D01*
X161802380Y-107599204D01*
X161850000Y-107694442D01*
X161897619Y-107742061D01*
X161992857Y-107789680D01*
X162230952Y-107789680D01*
X162326190Y-107742061D01*
X162373809Y-107694442D01*
X162421428Y-107599204D01*
X162421428Y-107408728D01*
X162373809Y-107313490D01*
X162326190Y-107265871D01*
X162230952Y-107218252D01*
X161802380Y-106599204D02*
X161802380Y-106503966D01*
X161850000Y-106408728D01*
X161897619Y-106361109D01*
X161992857Y-106313490D01*
X162183333Y-106265871D01*
X162421428Y-106265871D01*
X162611904Y-106313490D01*
X162707142Y-106361109D01*
X162754761Y-106408728D01*
X162802380Y-106503966D01*
X162802380Y-106599204D01*
X162754761Y-106694442D01*
X162707142Y-106742061D01*
X162611904Y-106789680D01*
X162421428Y-106837299D01*
X162183333Y-106837299D01*
X161992857Y-106789680D01*
X161897619Y-106742061D01*
X161850000Y-106694442D01*
X161802380Y-106599204D01*
X162802380Y-102301089D02*
X161802380Y-102301089D01*
X161802380Y-102062994D01*
X161850000Y-101920137D01*
X161945238Y-101824899D01*
X162040476Y-101777280D01*
X162230952Y-101729661D01*
X162373809Y-101729661D01*
X162564285Y-101777280D01*
X162659523Y-101824899D01*
X162754761Y-101920137D01*
X162802380Y-102062994D01*
X162802380Y-102301089D01*
X162230952Y-101158232D02*
X162183333Y-101253470D01*
X162135714Y-101301089D01*
X162040476Y-101348708D01*
X161992857Y-101348708D01*
X161897619Y-101301089D01*
X161850000Y-101253470D01*
X161802380Y-101158232D01*
X161802380Y-100967756D01*
X161850000Y-100872518D01*
X161897619Y-100824899D01*
X161992857Y-100777280D01*
X162040476Y-100777280D01*
X162135714Y-100824899D01*
X162183333Y-100872518D01*
X162230952Y-100967756D01*
X162230952Y-101158232D01*
X162278571Y-101253470D01*
X162326190Y-101301089D01*
X162421428Y-101348708D01*
X162611904Y-101348708D01*
X162707142Y-101301089D01*
X162754761Y-101253470D01*
X162802380Y-101158232D01*
X162802380Y-100967756D01*
X162754761Y-100872518D01*
X162707142Y-100824899D01*
X162611904Y-100777280D01*
X162421428Y-100777280D01*
X162326190Y-100824899D01*
X162278571Y-100872518D01*
X162230952Y-100967756D01*
X161802380Y-100158232D02*
X161802380Y-100062994D01*
X161850000Y-99967756D01*
X161897619Y-99920137D01*
X161992857Y-99872518D01*
X162183333Y-99824899D01*
X162421428Y-99824899D01*
X162611904Y-99872518D01*
X162707142Y-99920137D01*
X162754761Y-99967756D01*
X162802380Y-100062994D01*
X162802380Y-100158232D01*
X162754761Y-100253470D01*
X162707142Y-100301089D01*
X162611904Y-100348708D01*
X162421428Y-100396327D01*
X162183333Y-100396327D01*
X161992857Y-100348708D01*
X161897619Y-100301089D01*
X161850000Y-100253470D01*
X161802380Y-100158232D01*
X156357932Y-56738095D02*
X155357932Y-56738095D01*
X155357932Y-56500000D01*
X155405552Y-56357142D01*
X155500790Y-56261904D01*
X155596028Y-56214285D01*
X155786504Y-56166666D01*
X155929361Y-56166666D01*
X156119837Y-56214285D01*
X156215075Y-56261904D01*
X156310313Y-56357142D01*
X156357932Y-56500000D01*
X156357932Y-56738095D01*
X156357932Y-55690476D02*
X156357932Y-55500000D01*
X156310313Y-55404761D01*
X156262694Y-55357142D01*
X156119837Y-55261904D01*
X155929361Y-55214285D01*
X155548409Y-55214285D01*
X155453171Y-55261904D01*
X155405552Y-55309523D01*
X155357932Y-55404761D01*
X155357932Y-55595238D01*
X155405552Y-55690476D01*
X155453171Y-55738095D01*
X155548409Y-55785714D01*
X155786504Y-55785714D01*
X155881742Y-55738095D01*
X155929361Y-55690476D01*
X155976980Y-55595238D01*
X155976980Y-55404761D01*
X155929361Y-55309523D01*
X155881742Y-55261904D01*
X155786504Y-55214285D01*
X117691268Y-70096229D02*
X116691268Y-70096229D01*
X116691268Y-69858134D01*
X116738888Y-69715277D01*
X116834126Y-69620039D01*
X116929364Y-69572420D01*
X117119840Y-69524801D01*
X117262697Y-69524801D01*
X117453173Y-69572420D01*
X117548411Y-69620039D01*
X117643649Y-69715277D01*
X117691268Y-69858134D01*
X117691268Y-70096229D01*
X116786507Y-69143848D02*
X116738888Y-69096229D01*
X116691268Y-69000991D01*
X116691268Y-68762896D01*
X116738888Y-68667658D01*
X116786507Y-68620039D01*
X116881745Y-68572420D01*
X116976983Y-68572420D01*
X117119840Y-68620039D01*
X117691268Y-69191467D01*
X117691268Y-68572420D01*
X116691268Y-68239086D02*
X116691268Y-67620039D01*
X117072221Y-67953372D01*
X117072221Y-67810515D01*
X117119840Y-67715277D01*
X117167459Y-67667658D01*
X117262697Y-67620039D01*
X117500792Y-67620039D01*
X117596030Y-67667658D01*
X117643649Y-67715277D01*
X117691268Y-67810515D01*
X117691268Y-68096229D01*
X117643649Y-68191467D01*
X117596030Y-68239086D01*
X162802380Y-95860117D02*
X161802380Y-95860117D01*
X161802380Y-95622022D01*
X161850000Y-95479165D01*
X161945238Y-95383927D01*
X162040476Y-95336308D01*
X162230952Y-95288689D01*
X162373809Y-95288689D01*
X162564285Y-95336308D01*
X162659523Y-95383927D01*
X162754761Y-95479165D01*
X162802380Y-95622022D01*
X162802380Y-95860117D01*
X161802380Y-94955355D02*
X161802380Y-94288689D01*
X162802380Y-94717260D01*
X161802380Y-93717260D02*
X161802380Y-93622022D01*
X161850000Y-93526784D01*
X161897619Y-93479165D01*
X161992857Y-93431546D01*
X162183333Y-93383927D01*
X162421428Y-93383927D01*
X162611904Y-93431546D01*
X162707142Y-93479165D01*
X162754761Y-93526784D01*
X162802380Y-93622022D01*
X162802380Y-93717260D01*
X162754761Y-93812498D01*
X162707142Y-93860117D01*
X162611904Y-93907736D01*
X162421428Y-93955355D01*
X162183333Y-93955355D01*
X161992857Y-93907736D01*
X161897619Y-93860117D01*
X161850000Y-93812498D01*
X161802380Y-93717260D01*
X111246824Y-63655257D02*
X110246824Y-63655257D01*
X110246824Y-63417162D01*
X110294444Y-63274305D01*
X110389682Y-63179067D01*
X110484920Y-63131448D01*
X110675396Y-63083829D01*
X110818253Y-63083829D01*
X111008729Y-63131448D01*
X111103967Y-63179067D01*
X111199205Y-63274305D01*
X111246824Y-63417162D01*
X111246824Y-63655257D01*
X111246824Y-62131448D02*
X111246824Y-62702876D01*
X111246824Y-62417162D02*
X110246824Y-62417162D01*
X110389682Y-62512400D01*
X110484920Y-62607638D01*
X110532539Y-62702876D01*
X110342063Y-61750495D02*
X110294444Y-61702876D01*
X110246824Y-61607638D01*
X110246824Y-61369543D01*
X110294444Y-61274305D01*
X110342063Y-61226686D01*
X110437301Y-61179067D01*
X110532539Y-61179067D01*
X110675396Y-61226686D01*
X111246824Y-61798114D01*
X111246824Y-61179067D01*
X104802380Y-102301089D02*
X103802380Y-102301089D01*
X103802380Y-102062994D01*
X103850000Y-101920137D01*
X103945238Y-101824899D01*
X104040476Y-101777280D01*
X104230952Y-101729661D01*
X104373809Y-101729661D01*
X104564285Y-101777280D01*
X104659523Y-101824899D01*
X104754761Y-101920137D01*
X104802380Y-102062994D01*
X104802380Y-102301089D01*
X103802380Y-101396327D02*
X103802380Y-100729661D01*
X104802380Y-101158232D01*
X104802380Y-99824899D02*
X104802380Y-100396327D01*
X104802380Y-100110613D02*
X103802380Y-100110613D01*
X103945238Y-100205851D01*
X104040476Y-100301089D01*
X104088095Y-100396327D01*
X104802380Y-70096229D02*
X103802380Y-70096229D01*
X103802380Y-69858134D01*
X103850000Y-69715277D01*
X103945238Y-69620039D01*
X104040476Y-69572420D01*
X104230952Y-69524801D01*
X104373809Y-69524801D01*
X104564285Y-69572420D01*
X104659523Y-69620039D01*
X104754761Y-69715277D01*
X104802380Y-69858134D01*
X104802380Y-70096229D01*
X103897619Y-69143848D02*
X103850000Y-69096229D01*
X103802380Y-69000991D01*
X103802380Y-68762896D01*
X103850000Y-68667658D01*
X103897619Y-68620039D01*
X103992857Y-68572420D01*
X104088095Y-68572420D01*
X104230952Y-68620039D01*
X104802380Y-69191467D01*
X104802380Y-68572420D01*
X104802380Y-67620039D02*
X104802380Y-68191467D01*
X104802380Y-67905753D02*
X103802380Y-67905753D01*
X103945238Y-68000991D01*
X104040476Y-68096229D01*
X104088095Y-68191467D01*
X117691268Y-56738095D02*
X116691268Y-56738095D01*
X116691268Y-56500000D01*
X116738888Y-56357142D01*
X116834126Y-56261904D01*
X116929364Y-56214285D01*
X117119840Y-56166666D01*
X117262697Y-56166666D01*
X117453173Y-56214285D01*
X117548411Y-56261904D01*
X117643649Y-56357142D01*
X117691268Y-56500000D01*
X117691268Y-56738095D01*
X116691268Y-55833333D02*
X116691268Y-55214285D01*
X117072221Y-55547619D01*
X117072221Y-55404761D01*
X117119840Y-55309523D01*
X117167459Y-55261904D01*
X117262697Y-55214285D01*
X117500792Y-55214285D01*
X117596030Y-55261904D01*
X117643649Y-55309523D01*
X117691268Y-55404761D01*
X117691268Y-55690476D01*
X117643649Y-55785714D01*
X117596030Y-55833333D01*
X124135712Y-70096229D02*
X123135712Y-70096229D01*
X123135712Y-69858134D01*
X123183332Y-69715277D01*
X123278570Y-69620039D01*
X123373808Y-69572420D01*
X123564284Y-69524801D01*
X123707141Y-69524801D01*
X123897617Y-69572420D01*
X123992855Y-69620039D01*
X124088093Y-69715277D01*
X124135712Y-69858134D01*
X124135712Y-70096229D01*
X123230951Y-69143848D02*
X123183332Y-69096229D01*
X123135712Y-69000991D01*
X123135712Y-68762896D01*
X123183332Y-68667658D01*
X123230951Y-68620039D01*
X123326189Y-68572420D01*
X123421427Y-68572420D01*
X123564284Y-68620039D01*
X124135712Y-69191467D01*
X124135712Y-68572420D01*
X123469046Y-67715277D02*
X124135712Y-67715277D01*
X123088093Y-67953372D02*
X123802379Y-68191467D01*
X123802379Y-67572420D01*
X137024600Y-63655257D02*
X136024600Y-63655257D01*
X136024600Y-63417162D01*
X136072220Y-63274305D01*
X136167458Y-63179067D01*
X136262696Y-63131448D01*
X136453172Y-63083829D01*
X136596029Y-63083829D01*
X136786505Y-63131448D01*
X136881743Y-63179067D01*
X136976981Y-63274305D01*
X137024600Y-63417162D01*
X137024600Y-63655257D01*
X137024600Y-62131448D02*
X137024600Y-62702876D01*
X137024600Y-62417162D02*
X136024600Y-62417162D01*
X136167458Y-62512400D01*
X136262696Y-62607638D01*
X136310315Y-62702876D01*
X136024600Y-61274305D02*
X136024600Y-61464781D01*
X136072220Y-61560019D01*
X136119839Y-61607638D01*
X136262696Y-61702876D01*
X136453172Y-61750495D01*
X136834124Y-61750495D01*
X136929362Y-61702876D01*
X136976981Y-61655257D01*
X137024600Y-61560019D01*
X137024600Y-61369543D01*
X136976981Y-61274305D01*
X136929362Y-61226686D01*
X136834124Y-61179067D01*
X136596029Y-61179067D01*
X136500791Y-61226686D01*
X136453172Y-61274305D01*
X136405553Y-61369543D01*
X136405553Y-61560019D01*
X136453172Y-61655257D01*
X136500791Y-61702876D01*
X136596029Y-61750495D01*
X117691268Y-115151783D02*
X116691268Y-115151783D01*
X116691268Y-114913688D01*
X116738888Y-114770831D01*
X116834126Y-114675593D01*
X116929364Y-114627974D01*
X117119840Y-114580355D01*
X117262697Y-114580355D01*
X117453173Y-114627974D01*
X117548411Y-114675593D01*
X117643649Y-114770831D01*
X117691268Y-114913688D01*
X117691268Y-115151783D01*
X117691268Y-114104164D02*
X117691268Y-113913688D01*
X117643649Y-113818450D01*
X117596030Y-113770831D01*
X117453173Y-113675593D01*
X117262697Y-113627974D01*
X116881745Y-113627974D01*
X116786507Y-113675593D01*
X116738888Y-113723212D01*
X116691268Y-113818450D01*
X116691268Y-114008926D01*
X116738888Y-114104164D01*
X116786507Y-114151783D01*
X116881745Y-114199402D01*
X117119840Y-114199402D01*
X117215078Y-114151783D01*
X117262697Y-114104164D01*
X117310316Y-114008926D01*
X117310316Y-113818450D01*
X117262697Y-113723212D01*
X117215078Y-113675593D01*
X117119840Y-113627974D01*
X116691268Y-113294640D02*
X116691268Y-112675593D01*
X117072221Y-113008926D01*
X117072221Y-112866069D01*
X117119840Y-112770831D01*
X117167459Y-112723212D01*
X117262697Y-112675593D01*
X117500792Y-112675593D01*
X117596030Y-112723212D01*
X117643649Y-112770831D01*
X117691268Y-112866069D01*
X117691268Y-113151783D01*
X117643649Y-113247021D01*
X117596030Y-113294640D01*
X149913488Y-56738095D02*
X148913488Y-56738095D01*
X148913488Y-56500000D01*
X148961108Y-56357142D01*
X149056346Y-56261904D01*
X149151584Y-56214285D01*
X149342060Y-56166666D01*
X149484917Y-56166666D01*
X149675393Y-56214285D01*
X149770631Y-56261904D01*
X149865869Y-56357142D01*
X149913488Y-56500000D01*
X149913488Y-56738095D01*
X149342060Y-55595238D02*
X149294441Y-55690476D01*
X149246822Y-55738095D01*
X149151584Y-55785714D01*
X149103965Y-55785714D01*
X149008727Y-55738095D01*
X148961108Y-55690476D01*
X148913488Y-55595238D01*
X148913488Y-55404761D01*
X148961108Y-55309523D01*
X149008727Y-55261904D01*
X149103965Y-55214285D01*
X149151584Y-55214285D01*
X149246822Y-55261904D01*
X149294441Y-55309523D01*
X149342060Y-55404761D01*
X149342060Y-55595238D01*
X149389679Y-55690476D01*
X149437298Y-55738095D01*
X149532536Y-55785714D01*
X149723012Y-55785714D01*
X149818250Y-55738095D01*
X149865869Y-55690476D01*
X149913488Y-55595238D01*
X149913488Y-55404761D01*
X149865869Y-55309523D01*
X149818250Y-55261904D01*
X149723012Y-55214285D01*
X149532536Y-55214285D01*
X149437298Y-55261904D01*
X149389679Y-55309523D01*
X149342060Y-55404761D01*
X111246824Y-115151783D02*
X110246824Y-115151783D01*
X110246824Y-114913688D01*
X110294444Y-114770831D01*
X110389682Y-114675593D01*
X110484920Y-114627974D01*
X110675396Y-114580355D01*
X110818253Y-114580355D01*
X111008729Y-114627974D01*
X111103967Y-114675593D01*
X111199205Y-114770831D01*
X111246824Y-114913688D01*
X111246824Y-115151783D01*
X111246824Y-114104164D02*
X111246824Y-113913688D01*
X111199205Y-113818450D01*
X111151586Y-113770831D01*
X111008729Y-113675593D01*
X110818253Y-113627974D01*
X110437301Y-113627974D01*
X110342063Y-113675593D01*
X110294444Y-113723212D01*
X110246824Y-113818450D01*
X110246824Y-114008926D01*
X110294444Y-114104164D01*
X110342063Y-114151783D01*
X110437301Y-114199402D01*
X110675396Y-114199402D01*
X110770634Y-114151783D01*
X110818253Y-114104164D01*
X110865872Y-114008926D01*
X110865872Y-113818450D01*
X110818253Y-113723212D01*
X110770634Y-113675593D01*
X110675396Y-113627974D01*
X110342063Y-113247021D02*
X110294444Y-113199402D01*
X110246824Y-113104164D01*
X110246824Y-112866069D01*
X110294444Y-112770831D01*
X110342063Y-112723212D01*
X110437301Y-112675593D01*
X110532539Y-112675593D01*
X110675396Y-112723212D01*
X111246824Y-113294640D01*
X111246824Y-112675593D01*
X104802380Y-115214283D02*
X103802380Y-115214283D01*
X103802380Y-114976188D01*
X103850000Y-114833331D01*
X103945238Y-114738093D01*
X104040476Y-114690474D01*
X104230952Y-114642855D01*
X104373809Y-114642855D01*
X104564285Y-114690474D01*
X104659523Y-114738093D01*
X104754761Y-114833331D01*
X104802380Y-114976188D01*
X104802380Y-115214283D01*
X104802380Y-114166664D02*
X104802380Y-113976188D01*
X104754761Y-113880950D01*
X104707142Y-113833331D01*
X104564285Y-113738093D01*
X104373809Y-113690474D01*
X103992857Y-113690474D01*
X103897619Y-113738093D01*
X103850000Y-113785712D01*
X103802380Y-113880950D01*
X103802380Y-114071426D01*
X103850000Y-114166664D01*
X103897619Y-114214283D01*
X103992857Y-114261902D01*
X104230952Y-114261902D01*
X104326190Y-114214283D01*
X104373809Y-114166664D01*
X104421428Y-114071426D01*
X104421428Y-113880950D01*
X104373809Y-113785712D01*
X104326190Y-113738093D01*
X104230952Y-113690474D01*
X104802380Y-112738093D02*
X104802380Y-113309521D01*
X104802380Y-113023807D02*
X103802380Y-113023807D01*
X103945238Y-113119045D01*
X104040476Y-113214283D01*
X104088095Y-113309521D01*
X143469044Y-56738095D02*
X142469044Y-56738095D01*
X142469044Y-56500000D01*
X142516664Y-56357142D01*
X142611902Y-56261904D01*
X142707140Y-56214285D01*
X142897616Y-56166666D01*
X143040473Y-56166666D01*
X143230949Y-56214285D01*
X143326187Y-56261904D01*
X143421425Y-56357142D01*
X143469044Y-56500000D01*
X143469044Y-56738095D01*
X142469044Y-55833333D02*
X142469044Y-55166666D01*
X143469044Y-55595238D01*
X149913488Y-102301089D02*
X148913488Y-102301089D01*
X148913488Y-102062994D01*
X148961108Y-101920137D01*
X149056346Y-101824899D01*
X149151584Y-101777280D01*
X149342060Y-101729661D01*
X149484917Y-101729661D01*
X149675393Y-101777280D01*
X149770631Y-101824899D01*
X149865869Y-101920137D01*
X149913488Y-102062994D01*
X149913488Y-102301089D01*
X148913488Y-101396327D02*
X148913488Y-100729661D01*
X149913488Y-101158232D01*
X149342060Y-100205851D02*
X149294441Y-100301089D01*
X149246822Y-100348708D01*
X149151584Y-100396327D01*
X149103965Y-100396327D01*
X149008727Y-100348708D01*
X148961108Y-100301089D01*
X148913488Y-100205851D01*
X148913488Y-100015375D01*
X148961108Y-99920137D01*
X149008727Y-99872518D01*
X149103965Y-99824899D01*
X149151584Y-99824899D01*
X149246822Y-99872518D01*
X149294441Y-99920137D01*
X149342060Y-100015375D01*
X149342060Y-100205851D01*
X149389679Y-100301089D01*
X149437298Y-100348708D01*
X149532536Y-100396327D01*
X149723012Y-100396327D01*
X149818250Y-100348708D01*
X149865869Y-100301089D01*
X149913488Y-100205851D01*
X149913488Y-100015375D01*
X149865869Y-99920137D01*
X149818250Y-99872518D01*
X149723012Y-99824899D01*
X149532536Y-99824899D01*
X149437298Y-99872518D01*
X149389679Y-99920137D01*
X149342060Y-100015375D01*
X124135712Y-115151783D02*
X123135712Y-115151783D01*
X123135712Y-114913688D01*
X123183332Y-114770831D01*
X123278570Y-114675593D01*
X123373808Y-114627974D01*
X123564284Y-114580355D01*
X123707141Y-114580355D01*
X123897617Y-114627974D01*
X123992855Y-114675593D01*
X124088093Y-114770831D01*
X124135712Y-114913688D01*
X124135712Y-115151783D01*
X124135712Y-114104164D02*
X124135712Y-113913688D01*
X124088093Y-113818450D01*
X124040474Y-113770831D01*
X123897617Y-113675593D01*
X123707141Y-113627974D01*
X123326189Y-113627974D01*
X123230951Y-113675593D01*
X123183332Y-113723212D01*
X123135712Y-113818450D01*
X123135712Y-114008926D01*
X123183332Y-114104164D01*
X123230951Y-114151783D01*
X123326189Y-114199402D01*
X123564284Y-114199402D01*
X123659522Y-114151783D01*
X123707141Y-114104164D01*
X123754760Y-114008926D01*
X123754760Y-113818450D01*
X123707141Y-113723212D01*
X123659522Y-113675593D01*
X123564284Y-113627974D01*
X123469046Y-112770831D02*
X124135712Y-112770831D01*
X123088093Y-113008926D02*
X123802379Y-113247021D01*
X123802379Y-112627974D01*
X104802380Y-82978173D02*
X103802380Y-82978173D01*
X103802380Y-82740078D01*
X103850000Y-82597221D01*
X103945238Y-82501983D01*
X104040476Y-82454364D01*
X104230952Y-82406745D01*
X104373809Y-82406745D01*
X104564285Y-82454364D01*
X104659523Y-82501983D01*
X104754761Y-82597221D01*
X104802380Y-82740078D01*
X104802380Y-82978173D01*
X104135714Y-81549602D02*
X104802380Y-81549602D01*
X103754761Y-81787697D02*
X104469047Y-82025792D01*
X104469047Y-81406745D01*
X104802380Y-80501983D02*
X104802380Y-81073411D01*
X104802380Y-80787697D02*
X103802380Y-80787697D01*
X103945238Y-80882935D01*
X104040476Y-80978173D01*
X104088095Y-81073411D01*
X162802380Y-89419145D02*
X161802380Y-89419145D01*
X161802380Y-89181050D01*
X161850000Y-89038193D01*
X161945238Y-88942955D01*
X162040476Y-88895336D01*
X162230952Y-88847717D01*
X162373809Y-88847717D01*
X162564285Y-88895336D01*
X162659523Y-88942955D01*
X162754761Y-89038193D01*
X162802380Y-89181050D01*
X162802380Y-89419145D01*
X161802380Y-87990574D02*
X161802380Y-88181050D01*
X161850000Y-88276288D01*
X161897619Y-88323907D01*
X162040476Y-88419145D01*
X162230952Y-88466764D01*
X162611904Y-88466764D01*
X162707142Y-88419145D01*
X162754761Y-88371526D01*
X162802380Y-88276288D01*
X162802380Y-88085812D01*
X162754761Y-87990574D01*
X162707142Y-87942955D01*
X162611904Y-87895336D01*
X162373809Y-87895336D01*
X162278571Y-87942955D01*
X162230952Y-87990574D01*
X162183333Y-88085812D01*
X162183333Y-88276288D01*
X162230952Y-88371526D01*
X162278571Y-88419145D01*
X162373809Y-88466764D01*
X161802380Y-87276288D02*
X161802380Y-87181050D01*
X161850000Y-87085812D01*
X161897619Y-87038193D01*
X161992857Y-86990574D01*
X162183333Y-86942955D01*
X162421428Y-86942955D01*
X162611904Y-86990574D01*
X162707142Y-87038193D01*
X162754761Y-87085812D01*
X162802380Y-87181050D01*
X162802380Y-87276288D01*
X162754761Y-87371526D01*
X162707142Y-87419145D01*
X162611904Y-87466764D01*
X162421428Y-87514383D01*
X162183333Y-87514383D01*
X161992857Y-87466764D01*
X161897619Y-87419145D01*
X161850000Y-87371526D01*
X161802380Y-87276288D01*
X130580156Y-115151783D02*
X129580156Y-115151783D01*
X129580156Y-114913688D01*
X129627776Y-114770831D01*
X129723014Y-114675593D01*
X129818252Y-114627974D01*
X130008728Y-114580355D01*
X130151585Y-114580355D01*
X130342061Y-114627974D01*
X130437299Y-114675593D01*
X130532537Y-114770831D01*
X130580156Y-114913688D01*
X130580156Y-115151783D01*
X130580156Y-114104164D02*
X130580156Y-113913688D01*
X130532537Y-113818450D01*
X130484918Y-113770831D01*
X130342061Y-113675593D01*
X130151585Y-113627974D01*
X129770633Y-113627974D01*
X129675395Y-113675593D01*
X129627776Y-113723212D01*
X129580156Y-113818450D01*
X129580156Y-114008926D01*
X129627776Y-114104164D01*
X129675395Y-114151783D01*
X129770633Y-114199402D01*
X130008728Y-114199402D01*
X130103966Y-114151783D01*
X130151585Y-114104164D01*
X130199204Y-114008926D01*
X130199204Y-113818450D01*
X130151585Y-113723212D01*
X130103966Y-113675593D01*
X130008728Y-113627974D01*
X129580156Y-112723212D02*
X129580156Y-113199402D01*
X130056347Y-113247021D01*
X130008728Y-113199402D01*
X129961109Y-113104164D01*
X129961109Y-112866069D01*
X130008728Y-112770831D01*
X130056347Y-112723212D01*
X130151585Y-112675593D01*
X130389680Y-112675593D01*
X130484918Y-112723212D01*
X130532537Y-112770831D01*
X130580156Y-112866069D01*
X130580156Y-113104164D01*
X130532537Y-113199402D01*
X130484918Y-113247021D01*
X149913488Y-70096229D02*
X148913488Y-70096229D01*
X148913488Y-69858134D01*
X148961108Y-69715277D01*
X149056346Y-69620039D01*
X149151584Y-69572420D01*
X149342060Y-69524801D01*
X149484917Y-69524801D01*
X149675393Y-69572420D01*
X149770631Y-69620039D01*
X149865869Y-69715277D01*
X149913488Y-69858134D01*
X149913488Y-70096229D01*
X149008727Y-69143848D02*
X148961108Y-69096229D01*
X148913488Y-69000991D01*
X148913488Y-68762896D01*
X148961108Y-68667658D01*
X149008727Y-68620039D01*
X149103965Y-68572420D01*
X149199203Y-68572420D01*
X149342060Y-68620039D01*
X149913488Y-69191467D01*
X149913488Y-68572420D01*
X149342060Y-68000991D02*
X149294441Y-68096229D01*
X149246822Y-68143848D01*
X149151584Y-68191467D01*
X149103965Y-68191467D01*
X149008727Y-68143848D01*
X148961108Y-68096229D01*
X148913488Y-68000991D01*
X148913488Y-67810515D01*
X148961108Y-67715277D01*
X149008727Y-67667658D01*
X149103965Y-67620039D01*
X149151584Y-67620039D01*
X149246822Y-67667658D01*
X149294441Y-67715277D01*
X149342060Y-67810515D01*
X149342060Y-68000991D01*
X149389679Y-68096229D01*
X149437298Y-68143848D01*
X149532536Y-68191467D01*
X149723012Y-68191467D01*
X149818250Y-68143848D01*
X149865869Y-68096229D01*
X149913488Y-68000991D01*
X149913488Y-67810515D01*
X149865869Y-67715277D01*
X149818250Y-67667658D01*
X149723012Y-67620039D01*
X149532536Y-67620039D01*
X149437298Y-67667658D01*
X149389679Y-67715277D01*
X149342060Y-67810515D01*
X149913488Y-63655257D02*
X148913488Y-63655257D01*
X148913488Y-63417162D01*
X148961108Y-63274305D01*
X149056346Y-63179067D01*
X149151584Y-63131448D01*
X149342060Y-63083829D01*
X149484917Y-63083829D01*
X149675393Y-63131448D01*
X149770631Y-63179067D01*
X149865869Y-63274305D01*
X149913488Y-63417162D01*
X149913488Y-63655257D01*
X149913488Y-62131448D02*
X149913488Y-62702876D01*
X149913488Y-62417162D02*
X148913488Y-62417162D01*
X149056346Y-62512400D01*
X149151584Y-62607638D01*
X149199203Y-62702876D01*
X149342060Y-61560019D02*
X149294441Y-61655257D01*
X149246822Y-61702876D01*
X149151584Y-61750495D01*
X149103965Y-61750495D01*
X149008727Y-61702876D01*
X148961108Y-61655257D01*
X148913488Y-61560019D01*
X148913488Y-61369543D01*
X148961108Y-61274305D01*
X149008727Y-61226686D01*
X149103965Y-61179067D01*
X149151584Y-61179067D01*
X149246822Y-61226686D01*
X149294441Y-61274305D01*
X149342060Y-61369543D01*
X149342060Y-61560019D01*
X149389679Y-61655257D01*
X149437298Y-61702876D01*
X149532536Y-61750495D01*
X149723012Y-61750495D01*
X149818250Y-61702876D01*
X149865869Y-61655257D01*
X149913488Y-61560019D01*
X149913488Y-61369543D01*
X149865869Y-61274305D01*
X149818250Y-61226686D01*
X149723012Y-61179067D01*
X149532536Y-61179067D01*
X149437298Y-61226686D01*
X149389679Y-61274305D01*
X149342060Y-61369543D01*
X137024600Y-108742061D02*
X136024600Y-108742061D01*
X136024600Y-108503966D01*
X136072220Y-108361109D01*
X136167458Y-108265871D01*
X136262696Y-108218252D01*
X136453172Y-108170633D01*
X136596029Y-108170633D01*
X136786505Y-108218252D01*
X136881743Y-108265871D01*
X136976981Y-108361109D01*
X137024600Y-108503966D01*
X137024600Y-108742061D01*
X136453172Y-107599204D02*
X136405553Y-107694442D01*
X136357934Y-107742061D01*
X136262696Y-107789680D01*
X136215077Y-107789680D01*
X136119839Y-107742061D01*
X136072220Y-107694442D01*
X136024600Y-107599204D01*
X136024600Y-107408728D01*
X136072220Y-107313490D01*
X136119839Y-107265871D01*
X136215077Y-107218252D01*
X136262696Y-107218252D01*
X136357934Y-107265871D01*
X136405553Y-107313490D01*
X136453172Y-107408728D01*
X136453172Y-107599204D01*
X136500791Y-107694442D01*
X136548410Y-107742061D01*
X136643648Y-107789680D01*
X136834124Y-107789680D01*
X136929362Y-107742061D01*
X136976981Y-107694442D01*
X137024600Y-107599204D01*
X137024600Y-107408728D01*
X136976981Y-107313490D01*
X136929362Y-107265871D01*
X136834124Y-107218252D01*
X136643648Y-107218252D01*
X136548410Y-107265871D01*
X136500791Y-107313490D01*
X136453172Y-107408728D01*
X136024600Y-106361109D02*
X136024600Y-106551585D01*
X136072220Y-106646823D01*
X136119839Y-106694442D01*
X136262696Y-106789680D01*
X136453172Y-106837299D01*
X136834124Y-106837299D01*
X136929362Y-106789680D01*
X136976981Y-106742061D01*
X137024600Y-106646823D01*
X137024600Y-106456347D01*
X136976981Y-106361109D01*
X136929362Y-106313490D01*
X136834124Y-106265871D01*
X136596029Y-106265871D01*
X136500791Y-106313490D01*
X136453172Y-106361109D01*
X136405553Y-106456347D01*
X136405553Y-106646823D01*
X136453172Y-106742061D01*
X136500791Y-106789680D01*
X136596029Y-106837299D01*
X130580156Y-63655257D02*
X129580156Y-63655257D01*
X129580156Y-63417162D01*
X129627776Y-63274305D01*
X129723014Y-63179067D01*
X129818252Y-63131448D01*
X130008728Y-63083829D01*
X130151585Y-63083829D01*
X130342061Y-63131448D01*
X130437299Y-63179067D01*
X130532537Y-63274305D01*
X130580156Y-63417162D01*
X130580156Y-63655257D01*
X130580156Y-62131448D02*
X130580156Y-62702876D01*
X130580156Y-62417162D02*
X129580156Y-62417162D01*
X129723014Y-62512400D01*
X129818252Y-62607638D01*
X129865871Y-62702876D01*
X129580156Y-61226686D02*
X129580156Y-61702876D01*
X130056347Y-61750495D01*
X130008728Y-61702876D01*
X129961109Y-61607638D01*
X129961109Y-61369543D01*
X130008728Y-61274305D01*
X130056347Y-61226686D01*
X130151585Y-61179067D01*
X130389680Y-61179067D01*
X130484918Y-61226686D01*
X130532537Y-61274305D01*
X130580156Y-61369543D01*
X130580156Y-61607638D01*
X130532537Y-61702876D01*
X130484918Y-61750495D01*
X156357932Y-95860117D02*
X155357932Y-95860117D01*
X155357932Y-95622022D01*
X155405552Y-95479165D01*
X155500790Y-95383927D01*
X155596028Y-95336308D01*
X155786504Y-95288689D01*
X155929361Y-95288689D01*
X156119837Y-95336308D01*
X156215075Y-95383927D01*
X156310313Y-95479165D01*
X156357932Y-95622022D01*
X156357932Y-95860117D01*
X155357932Y-94431546D02*
X155357932Y-94622022D01*
X155405552Y-94717260D01*
X155453171Y-94764879D01*
X155596028Y-94860117D01*
X155786504Y-94907736D01*
X156167456Y-94907736D01*
X156262694Y-94860117D01*
X156310313Y-94812498D01*
X156357932Y-94717260D01*
X156357932Y-94526784D01*
X156310313Y-94431546D01*
X156262694Y-94383927D01*
X156167456Y-94336308D01*
X155929361Y-94336308D01*
X155834123Y-94383927D01*
X155786504Y-94431546D01*
X155738885Y-94526784D01*
X155738885Y-94717260D01*
X155786504Y-94812498D01*
X155834123Y-94860117D01*
X155929361Y-94907736D01*
X156357932Y-93860117D02*
X156357932Y-93669641D01*
X156310313Y-93574403D01*
X156262694Y-93526784D01*
X156119837Y-93431546D01*
X155929361Y-93383927D01*
X155548409Y-93383927D01*
X155453171Y-93431546D01*
X155405552Y-93479165D01*
X155357932Y-93574403D01*
X155357932Y-93764879D01*
X155405552Y-93860117D01*
X155453171Y-93907736D01*
X155548409Y-93955355D01*
X155786504Y-93955355D01*
X155881742Y-93907736D01*
X155929361Y-93860117D01*
X155976980Y-93764879D01*
X155976980Y-93574403D01*
X155929361Y-93479165D01*
X155881742Y-93431546D01*
X155786504Y-93383927D01*
X143469044Y-115151783D02*
X142469044Y-115151783D01*
X142469044Y-114913688D01*
X142516664Y-114770831D01*
X142611902Y-114675593D01*
X142707140Y-114627974D01*
X142897616Y-114580355D01*
X143040473Y-114580355D01*
X143230949Y-114627974D01*
X143326187Y-114675593D01*
X143421425Y-114770831D01*
X143469044Y-114913688D01*
X143469044Y-115151783D01*
X143469044Y-114104164D02*
X143469044Y-113913688D01*
X143421425Y-113818450D01*
X143373806Y-113770831D01*
X143230949Y-113675593D01*
X143040473Y-113627974D01*
X142659521Y-113627974D01*
X142564283Y-113675593D01*
X142516664Y-113723212D01*
X142469044Y-113818450D01*
X142469044Y-114008926D01*
X142516664Y-114104164D01*
X142564283Y-114151783D01*
X142659521Y-114199402D01*
X142897616Y-114199402D01*
X142992854Y-114151783D01*
X143040473Y-114104164D01*
X143088092Y-114008926D01*
X143088092Y-113818450D01*
X143040473Y-113723212D01*
X142992854Y-113675593D01*
X142897616Y-113627974D01*
X142469044Y-113294640D02*
X142469044Y-112627974D01*
X143469044Y-113056545D01*
X124135712Y-102301089D02*
X123135712Y-102301089D01*
X123135712Y-102062994D01*
X123183332Y-101920137D01*
X123278570Y-101824899D01*
X123373808Y-101777280D01*
X123564284Y-101729661D01*
X123707141Y-101729661D01*
X123897617Y-101777280D01*
X123992855Y-101824899D01*
X124088093Y-101920137D01*
X124135712Y-102062994D01*
X124135712Y-102301089D01*
X123135712Y-101396327D02*
X123135712Y-100729661D01*
X124135712Y-101158232D01*
X123469046Y-99920137D02*
X124135712Y-99920137D01*
X123088093Y-100158232D02*
X123802379Y-100396327D01*
X123802379Y-99777280D01*
X162802380Y-63655257D02*
X161802380Y-63655257D01*
X161802380Y-63417162D01*
X161850000Y-63274305D01*
X161945238Y-63179067D01*
X162040476Y-63131448D01*
X162230952Y-63083829D01*
X162373809Y-63083829D01*
X162564285Y-63131448D01*
X162659523Y-63179067D01*
X162754761Y-63274305D01*
X162802380Y-63417162D01*
X162802380Y-63655257D01*
X161897619Y-62702876D02*
X161850000Y-62655257D01*
X161802380Y-62560019D01*
X161802380Y-62321924D01*
X161850000Y-62226686D01*
X161897619Y-62179067D01*
X161992857Y-62131448D01*
X162088095Y-62131448D01*
X162230952Y-62179067D01*
X162802380Y-62750495D01*
X162802380Y-62131448D01*
X161802380Y-61512400D02*
X161802380Y-61417162D01*
X161850000Y-61321924D01*
X161897619Y-61274305D01*
X161992857Y-61226686D01*
X162183333Y-61179067D01*
X162421428Y-61179067D01*
X162611904Y-61226686D01*
X162707142Y-61274305D01*
X162754761Y-61321924D01*
X162802380Y-61417162D01*
X162802380Y-61512400D01*
X162754761Y-61607638D01*
X162707142Y-61655257D01*
X162611904Y-61702876D01*
X162421428Y-61750495D01*
X162183333Y-61750495D01*
X161992857Y-61702876D01*
X161897619Y-61655257D01*
X161850000Y-61607638D01*
X161802380Y-61512400D01*
X111246824Y-56738095D02*
X110246824Y-56738095D01*
X110246824Y-56500000D01*
X110294444Y-56357142D01*
X110389682Y-56261904D01*
X110484920Y-56214285D01*
X110675396Y-56166666D01*
X110818253Y-56166666D01*
X111008729Y-56214285D01*
X111103967Y-56261904D01*
X111199205Y-56357142D01*
X111246824Y-56500000D01*
X111246824Y-56738095D01*
X110342063Y-55785714D02*
X110294444Y-55738095D01*
X110246824Y-55642857D01*
X110246824Y-55404761D01*
X110294444Y-55309523D01*
X110342063Y-55261904D01*
X110437301Y-55214285D01*
X110532539Y-55214285D01*
X110675396Y-55261904D01*
X111246824Y-55833333D01*
X111246824Y-55214285D01*
X111246824Y-95860117D02*
X110246824Y-95860117D01*
X110246824Y-95622022D01*
X110294444Y-95479165D01*
X110389682Y-95383927D01*
X110484920Y-95336308D01*
X110675396Y-95288689D01*
X110818253Y-95288689D01*
X111008729Y-95336308D01*
X111103967Y-95383927D01*
X111199205Y-95479165D01*
X111246824Y-95622022D01*
X111246824Y-95860117D01*
X110246824Y-94431546D02*
X110246824Y-94622022D01*
X110294444Y-94717260D01*
X110342063Y-94764879D01*
X110484920Y-94860117D01*
X110675396Y-94907736D01*
X111056348Y-94907736D01*
X111151586Y-94860117D01*
X111199205Y-94812498D01*
X111246824Y-94717260D01*
X111246824Y-94526784D01*
X111199205Y-94431546D01*
X111151586Y-94383927D01*
X111056348Y-94336308D01*
X110818253Y-94336308D01*
X110723015Y-94383927D01*
X110675396Y-94431546D01*
X110627777Y-94526784D01*
X110627777Y-94717260D01*
X110675396Y-94812498D01*
X110723015Y-94860117D01*
X110818253Y-94907736D01*
X110342063Y-93955355D02*
X110294444Y-93907736D01*
X110246824Y-93812498D01*
X110246824Y-93574403D01*
X110294444Y-93479165D01*
X110342063Y-93431546D01*
X110437301Y-93383927D01*
X110532539Y-93383927D01*
X110675396Y-93431546D01*
X111246824Y-94002974D01*
X111246824Y-93383927D01*
X130580156Y-89419145D02*
X129580156Y-89419145D01*
X129580156Y-89181050D01*
X129627776Y-89038193D01*
X129723014Y-88942955D01*
X129818252Y-88895336D01*
X130008728Y-88847717D01*
X130151585Y-88847717D01*
X130342061Y-88895336D01*
X130437299Y-88942955D01*
X130532537Y-89038193D01*
X130580156Y-89181050D01*
X130580156Y-89419145D01*
X129580156Y-87942955D02*
X129580156Y-88419145D01*
X130056347Y-88466764D01*
X130008728Y-88419145D01*
X129961109Y-88323907D01*
X129961109Y-88085812D01*
X130008728Y-87990574D01*
X130056347Y-87942955D01*
X130151585Y-87895336D01*
X130389680Y-87895336D01*
X130484918Y-87942955D01*
X130532537Y-87990574D01*
X130580156Y-88085812D01*
X130580156Y-88323907D01*
X130532537Y-88419145D01*
X130484918Y-88466764D01*
X129580156Y-86990574D02*
X129580156Y-87466764D01*
X130056347Y-87514383D01*
X130008728Y-87466764D01*
X129961109Y-87371526D01*
X129961109Y-87133431D01*
X130008728Y-87038193D01*
X130056347Y-86990574D01*
X130151585Y-86942955D01*
X130389680Y-86942955D01*
X130484918Y-86990574D01*
X130532537Y-87038193D01*
X130580156Y-87133431D01*
X130580156Y-87371526D01*
X130532537Y-87466764D01*
X130484918Y-87514383D01*
X104802380Y-76537201D02*
X103802380Y-76537201D01*
X103802380Y-76299106D01*
X103850000Y-76156249D01*
X103945238Y-76061011D01*
X104040476Y-76013392D01*
X104230952Y-75965773D01*
X104373809Y-75965773D01*
X104564285Y-76013392D01*
X104659523Y-76061011D01*
X104754761Y-76156249D01*
X104802380Y-76299106D01*
X104802380Y-76537201D01*
X103802380Y-75632439D02*
X103802380Y-75013392D01*
X104183333Y-75346725D01*
X104183333Y-75203868D01*
X104230952Y-75108630D01*
X104278571Y-75061011D01*
X104373809Y-75013392D01*
X104611904Y-75013392D01*
X104707142Y-75061011D01*
X104754761Y-75108630D01*
X104802380Y-75203868D01*
X104802380Y-75489582D01*
X104754761Y-75584820D01*
X104707142Y-75632439D01*
X104802380Y-74061011D02*
X104802380Y-74632439D01*
X104802380Y-74346725D02*
X103802380Y-74346725D01*
X103945238Y-74441963D01*
X104040476Y-74537201D01*
X104088095Y-74632439D01*
X149913488Y-89419145D02*
X148913488Y-89419145D01*
X148913488Y-89181050D01*
X148961108Y-89038193D01*
X149056346Y-88942955D01*
X149151584Y-88895336D01*
X149342060Y-88847717D01*
X149484917Y-88847717D01*
X149675393Y-88895336D01*
X149770631Y-88942955D01*
X149865869Y-89038193D01*
X149913488Y-89181050D01*
X149913488Y-89419145D01*
X148913488Y-87942955D02*
X148913488Y-88419145D01*
X149389679Y-88466764D01*
X149342060Y-88419145D01*
X149294441Y-88323907D01*
X149294441Y-88085812D01*
X149342060Y-87990574D01*
X149389679Y-87942955D01*
X149484917Y-87895336D01*
X149723012Y-87895336D01*
X149818250Y-87942955D01*
X149865869Y-87990574D01*
X149913488Y-88085812D01*
X149913488Y-88323907D01*
X149865869Y-88419145D01*
X149818250Y-88466764D01*
X149342060Y-87323907D02*
X149294441Y-87419145D01*
X149246822Y-87466764D01*
X149151584Y-87514383D01*
X149103965Y-87514383D01*
X149008727Y-87466764D01*
X148961108Y-87419145D01*
X148913488Y-87323907D01*
X148913488Y-87133431D01*
X148961108Y-87038193D01*
X149008727Y-86990574D01*
X149103965Y-86942955D01*
X149151584Y-86942955D01*
X149246822Y-86990574D01*
X149294441Y-87038193D01*
X149342060Y-87133431D01*
X149342060Y-87323907D01*
X149389679Y-87419145D01*
X149437298Y-87466764D01*
X149532536Y-87514383D01*
X149723012Y-87514383D01*
X149818250Y-87466764D01*
X149865869Y-87419145D01*
X149913488Y-87323907D01*
X149913488Y-87133431D01*
X149865869Y-87038193D01*
X149818250Y-86990574D01*
X149723012Y-86942955D01*
X149532536Y-86942955D01*
X149437298Y-86990574D01*
X149389679Y-87038193D01*
X149342060Y-87133431D01*
X156357932Y-102301089D02*
X155357932Y-102301089D01*
X155357932Y-102062994D01*
X155405552Y-101920137D01*
X155500790Y-101824899D01*
X155596028Y-101777280D01*
X155786504Y-101729661D01*
X155929361Y-101729661D01*
X156119837Y-101777280D01*
X156215075Y-101824899D01*
X156310313Y-101920137D01*
X156357932Y-102062994D01*
X156357932Y-102301089D01*
X155357932Y-101396327D02*
X155357932Y-100729661D01*
X156357932Y-101158232D01*
X156357932Y-100301089D02*
X156357932Y-100110613D01*
X156310313Y-100015375D01*
X156262694Y-99967756D01*
X156119837Y-99872518D01*
X155929361Y-99824899D01*
X155548409Y-99824899D01*
X155453171Y-99872518D01*
X155405552Y-99920137D01*
X155357932Y-100015375D01*
X155357932Y-100205851D01*
X155405552Y-100301089D01*
X155453171Y-100348708D01*
X155548409Y-100396327D01*
X155786504Y-100396327D01*
X155881742Y-100348708D01*
X155929361Y-100301089D01*
X155976980Y-100205851D01*
X155976980Y-100015375D01*
X155929361Y-99920137D01*
X155881742Y-99872518D01*
X155786504Y-99824899D01*
X111246824Y-89419145D02*
X110246824Y-89419145D01*
X110246824Y-89181050D01*
X110294444Y-89038193D01*
X110389682Y-88942955D01*
X110484920Y-88895336D01*
X110675396Y-88847717D01*
X110818253Y-88847717D01*
X111008729Y-88895336D01*
X111103967Y-88942955D01*
X111199205Y-89038193D01*
X111246824Y-89181050D01*
X111246824Y-89419145D01*
X110246824Y-87942955D02*
X110246824Y-88419145D01*
X110723015Y-88466764D01*
X110675396Y-88419145D01*
X110627777Y-88323907D01*
X110627777Y-88085812D01*
X110675396Y-87990574D01*
X110723015Y-87942955D01*
X110818253Y-87895336D01*
X111056348Y-87895336D01*
X111151586Y-87942955D01*
X111199205Y-87990574D01*
X111246824Y-88085812D01*
X111246824Y-88323907D01*
X111199205Y-88419145D01*
X111151586Y-88466764D01*
X110342063Y-87514383D02*
X110294444Y-87466764D01*
X110246824Y-87371526D01*
X110246824Y-87133431D01*
X110294444Y-87038193D01*
X110342063Y-86990574D01*
X110437301Y-86942955D01*
X110532539Y-86942955D01*
X110675396Y-86990574D01*
X111246824Y-87562002D01*
X111246824Y-86942955D01*
X117691268Y-95860117D02*
X116691268Y-95860117D01*
X116691268Y-95622022D01*
X116738888Y-95479165D01*
X116834126Y-95383927D01*
X116929364Y-95336308D01*
X117119840Y-95288689D01*
X117262697Y-95288689D01*
X117453173Y-95336308D01*
X117548411Y-95383927D01*
X117643649Y-95479165D01*
X117691268Y-95622022D01*
X117691268Y-95860117D01*
X116691268Y-94431546D02*
X116691268Y-94622022D01*
X116738888Y-94717260D01*
X116786507Y-94764879D01*
X116929364Y-94860117D01*
X117119840Y-94907736D01*
X117500792Y-94907736D01*
X117596030Y-94860117D01*
X117643649Y-94812498D01*
X117691268Y-94717260D01*
X117691268Y-94526784D01*
X117643649Y-94431546D01*
X117596030Y-94383927D01*
X117500792Y-94336308D01*
X117262697Y-94336308D01*
X117167459Y-94383927D01*
X117119840Y-94431546D01*
X117072221Y-94526784D01*
X117072221Y-94717260D01*
X117119840Y-94812498D01*
X117167459Y-94860117D01*
X117262697Y-94907736D01*
X116691268Y-94002974D02*
X116691268Y-93383927D01*
X117072221Y-93717260D01*
X117072221Y-93574403D01*
X117119840Y-93479165D01*
X117167459Y-93431546D01*
X117262697Y-93383927D01*
X117500792Y-93383927D01*
X117596030Y-93431546D01*
X117643649Y-93479165D01*
X117691268Y-93574403D01*
X117691268Y-93860117D01*
X117643649Y-93955355D01*
X117596030Y-94002974D01*
X111246824Y-108742061D02*
X110246824Y-108742061D01*
X110246824Y-108503966D01*
X110294444Y-108361109D01*
X110389682Y-108265871D01*
X110484920Y-108218252D01*
X110675396Y-108170633D01*
X110818253Y-108170633D01*
X111008729Y-108218252D01*
X111103967Y-108265871D01*
X111199205Y-108361109D01*
X111246824Y-108503966D01*
X111246824Y-108742061D01*
X110675396Y-107599204D02*
X110627777Y-107694442D01*
X110580158Y-107742061D01*
X110484920Y-107789680D01*
X110437301Y-107789680D01*
X110342063Y-107742061D01*
X110294444Y-107694442D01*
X110246824Y-107599204D01*
X110246824Y-107408728D01*
X110294444Y-107313490D01*
X110342063Y-107265871D01*
X110437301Y-107218252D01*
X110484920Y-107218252D01*
X110580158Y-107265871D01*
X110627777Y-107313490D01*
X110675396Y-107408728D01*
X110675396Y-107599204D01*
X110723015Y-107694442D01*
X110770634Y-107742061D01*
X110865872Y-107789680D01*
X111056348Y-107789680D01*
X111151586Y-107742061D01*
X111199205Y-107694442D01*
X111246824Y-107599204D01*
X111246824Y-107408728D01*
X111199205Y-107313490D01*
X111151586Y-107265871D01*
X111056348Y-107218252D01*
X110865872Y-107218252D01*
X110770634Y-107265871D01*
X110723015Y-107313490D01*
X110675396Y-107408728D01*
X110342063Y-106837299D02*
X110294444Y-106789680D01*
X110246824Y-106694442D01*
X110246824Y-106456347D01*
X110294444Y-106361109D01*
X110342063Y-106313490D01*
X110437301Y-106265871D01*
X110532539Y-106265871D01*
X110675396Y-106313490D01*
X111246824Y-106884918D01*
X111246824Y-106265871D01*
X137024600Y-115151783D02*
X136024600Y-115151783D01*
X136024600Y-114913688D01*
X136072220Y-114770831D01*
X136167458Y-114675593D01*
X136262696Y-114627974D01*
X136453172Y-114580355D01*
X136596029Y-114580355D01*
X136786505Y-114627974D01*
X136881743Y-114675593D01*
X136976981Y-114770831D01*
X137024600Y-114913688D01*
X137024600Y-115151783D01*
X137024600Y-114104164D02*
X137024600Y-113913688D01*
X136976981Y-113818450D01*
X136929362Y-113770831D01*
X136786505Y-113675593D01*
X136596029Y-113627974D01*
X136215077Y-113627974D01*
X136119839Y-113675593D01*
X136072220Y-113723212D01*
X136024600Y-113818450D01*
X136024600Y-114008926D01*
X136072220Y-114104164D01*
X136119839Y-114151783D01*
X136215077Y-114199402D01*
X136453172Y-114199402D01*
X136548410Y-114151783D01*
X136596029Y-114104164D01*
X136643648Y-114008926D01*
X136643648Y-113818450D01*
X136596029Y-113723212D01*
X136548410Y-113675593D01*
X136453172Y-113627974D01*
X136024600Y-112770831D02*
X136024600Y-112961307D01*
X136072220Y-113056545D01*
X136119839Y-113104164D01*
X136262696Y-113199402D01*
X136453172Y-113247021D01*
X136834124Y-113247021D01*
X136929362Y-113199402D01*
X136976981Y-113151783D01*
X137024600Y-113056545D01*
X137024600Y-112866069D01*
X136976981Y-112770831D01*
X136929362Y-112723212D01*
X136834124Y-112675593D01*
X136596029Y-112675593D01*
X136500791Y-112723212D01*
X136453172Y-112770831D01*
X136405553Y-112866069D01*
X136405553Y-113056545D01*
X136453172Y-113151783D01*
X136500791Y-113199402D01*
X136596029Y-113247021D01*
X117691268Y-63655257D02*
X116691268Y-63655257D01*
X116691268Y-63417162D01*
X116738888Y-63274305D01*
X116834126Y-63179067D01*
X116929364Y-63131448D01*
X117119840Y-63083829D01*
X117262697Y-63083829D01*
X117453173Y-63131448D01*
X117548411Y-63179067D01*
X117643649Y-63274305D01*
X117691268Y-63417162D01*
X117691268Y-63655257D01*
X117691268Y-62131448D02*
X117691268Y-62702876D01*
X117691268Y-62417162D02*
X116691268Y-62417162D01*
X116834126Y-62512400D01*
X116929364Y-62607638D01*
X116976983Y-62702876D01*
X116691268Y-61798114D02*
X116691268Y-61179067D01*
X117072221Y-61512400D01*
X117072221Y-61369543D01*
X117119840Y-61274305D01*
X117167459Y-61226686D01*
X117262697Y-61179067D01*
X117500792Y-61179067D01*
X117596030Y-61226686D01*
X117643649Y-61274305D01*
X117691268Y-61369543D01*
X117691268Y-61655257D01*
X117643649Y-61750495D01*
X117596030Y-61798114D01*
X104802380Y-56738095D02*
X103802380Y-56738095D01*
X103802380Y-56500000D01*
X103850000Y-56357142D01*
X103945238Y-56261904D01*
X104040476Y-56214285D01*
X104230952Y-56166666D01*
X104373809Y-56166666D01*
X104564285Y-56214285D01*
X104659523Y-56261904D01*
X104754761Y-56357142D01*
X104802380Y-56500000D01*
X104802380Y-56738095D01*
X104802380Y-55214285D02*
X104802380Y-55785714D01*
X104802380Y-55500000D02*
X103802380Y-55500000D01*
X103945238Y-55595238D01*
X104040476Y-55690476D01*
X104088095Y-55785714D01*
X162802380Y-82978173D02*
X161802380Y-82978173D01*
X161802380Y-82740078D01*
X161850000Y-82597221D01*
X161945238Y-82501983D01*
X162040476Y-82454364D01*
X162230952Y-82406745D01*
X162373809Y-82406745D01*
X162564285Y-82454364D01*
X162659523Y-82501983D01*
X162754761Y-82597221D01*
X162802380Y-82740078D01*
X162802380Y-82978173D01*
X161802380Y-81501983D02*
X161802380Y-81978173D01*
X162278571Y-82025792D01*
X162230952Y-81978173D01*
X162183333Y-81882935D01*
X162183333Y-81644840D01*
X162230952Y-81549602D01*
X162278571Y-81501983D01*
X162373809Y-81454364D01*
X162611904Y-81454364D01*
X162707142Y-81501983D01*
X162754761Y-81549602D01*
X162802380Y-81644840D01*
X162802380Y-81882935D01*
X162754761Y-81978173D01*
X162707142Y-82025792D01*
X161802380Y-80835316D02*
X161802380Y-80740078D01*
X161850000Y-80644840D01*
X161897619Y-80597221D01*
X161992857Y-80549602D01*
X162183333Y-80501983D01*
X162421428Y-80501983D01*
X162611904Y-80549602D01*
X162707142Y-80597221D01*
X162754761Y-80644840D01*
X162802380Y-80740078D01*
X162802380Y-80835316D01*
X162754761Y-80930554D01*
X162707142Y-80978173D01*
X162611904Y-81025792D01*
X162421428Y-81073411D01*
X162183333Y-81073411D01*
X161992857Y-81025792D01*
X161897619Y-80978173D01*
X161850000Y-80930554D01*
X161802380Y-80835316D01*
X104802380Y-95860117D02*
X103802380Y-95860117D01*
X103802380Y-95622022D01*
X103850000Y-95479165D01*
X103945238Y-95383927D01*
X104040476Y-95336308D01*
X104230952Y-95288689D01*
X104373809Y-95288689D01*
X104564285Y-95336308D01*
X104659523Y-95383927D01*
X104754761Y-95479165D01*
X104802380Y-95622022D01*
X104802380Y-95860117D01*
X103802380Y-94431546D02*
X103802380Y-94622022D01*
X103850000Y-94717260D01*
X103897619Y-94764879D01*
X104040476Y-94860117D01*
X104230952Y-94907736D01*
X104611904Y-94907736D01*
X104707142Y-94860117D01*
X104754761Y-94812498D01*
X104802380Y-94717260D01*
X104802380Y-94526784D01*
X104754761Y-94431546D01*
X104707142Y-94383927D01*
X104611904Y-94336308D01*
X104373809Y-94336308D01*
X104278571Y-94383927D01*
X104230952Y-94431546D01*
X104183333Y-94526784D01*
X104183333Y-94717260D01*
X104230952Y-94812498D01*
X104278571Y-94860117D01*
X104373809Y-94907736D01*
X104802380Y-93383927D02*
X104802380Y-93955355D01*
X104802380Y-93669641D02*
X103802380Y-93669641D01*
X103945238Y-93764879D01*
X104040476Y-93860117D01*
X104088095Y-93955355D01*
X111246824Y-76537201D02*
X110246824Y-76537201D01*
X110246824Y-76299106D01*
X110294444Y-76156249D01*
X110389682Y-76061011D01*
X110484920Y-76013392D01*
X110675396Y-75965773D01*
X110818253Y-75965773D01*
X111008729Y-76013392D01*
X111103967Y-76061011D01*
X111199205Y-76156249D01*
X111246824Y-76299106D01*
X111246824Y-76537201D01*
X110246824Y-75632439D02*
X110246824Y-75013392D01*
X110627777Y-75346725D01*
X110627777Y-75203868D01*
X110675396Y-75108630D01*
X110723015Y-75061011D01*
X110818253Y-75013392D01*
X111056348Y-75013392D01*
X111151586Y-75061011D01*
X111199205Y-75108630D01*
X111246824Y-75203868D01*
X111246824Y-75489582D01*
X111199205Y-75584820D01*
X111151586Y-75632439D01*
X110342063Y-74632439D02*
X110294444Y-74584820D01*
X110246824Y-74489582D01*
X110246824Y-74251487D01*
X110294444Y-74156249D01*
X110342063Y-74108630D01*
X110437301Y-74061011D01*
X110532539Y-74061011D01*
X110675396Y-74108630D01*
X111246824Y-74680058D01*
X111246824Y-74061011D01*
X156357932Y-108742061D02*
X155357932Y-108742061D01*
X155357932Y-108503966D01*
X155405552Y-108361109D01*
X155500790Y-108265871D01*
X155596028Y-108218252D01*
X155786504Y-108170633D01*
X155929361Y-108170633D01*
X156119837Y-108218252D01*
X156215075Y-108265871D01*
X156310313Y-108361109D01*
X156357932Y-108503966D01*
X156357932Y-108742061D01*
X155786504Y-107599204D02*
X155738885Y-107694442D01*
X155691266Y-107742061D01*
X155596028Y-107789680D01*
X155548409Y-107789680D01*
X155453171Y-107742061D01*
X155405552Y-107694442D01*
X155357932Y-107599204D01*
X155357932Y-107408728D01*
X155405552Y-107313490D01*
X155453171Y-107265871D01*
X155548409Y-107218252D01*
X155596028Y-107218252D01*
X155691266Y-107265871D01*
X155738885Y-107313490D01*
X155786504Y-107408728D01*
X155786504Y-107599204D01*
X155834123Y-107694442D01*
X155881742Y-107742061D01*
X155976980Y-107789680D01*
X156167456Y-107789680D01*
X156262694Y-107742061D01*
X156310313Y-107694442D01*
X156357932Y-107599204D01*
X156357932Y-107408728D01*
X156310313Y-107313490D01*
X156262694Y-107265871D01*
X156167456Y-107218252D01*
X155976980Y-107218252D01*
X155881742Y-107265871D01*
X155834123Y-107313490D01*
X155786504Y-107408728D01*
X156357932Y-106742061D02*
X156357932Y-106551585D01*
X156310313Y-106456347D01*
X156262694Y-106408728D01*
X156119837Y-106313490D01*
X155929361Y-106265871D01*
X155548409Y-106265871D01*
X155453171Y-106313490D01*
X155405552Y-106361109D01*
X155357932Y-106456347D01*
X155357932Y-106646823D01*
X155405552Y-106742061D01*
X155453171Y-106789680D01*
X155548409Y-106837299D01*
X155786504Y-106837299D01*
X155881742Y-106789680D01*
X155929361Y-106742061D01*
X155976980Y-106646823D01*
X155976980Y-106456347D01*
X155929361Y-106361109D01*
X155881742Y-106313490D01*
X155786504Y-106265871D01*
X137024600Y-76537201D02*
X136024600Y-76537201D01*
X136024600Y-76299106D01*
X136072220Y-76156249D01*
X136167458Y-76061011D01*
X136262696Y-76013392D01*
X136453172Y-75965773D01*
X136596029Y-75965773D01*
X136786505Y-76013392D01*
X136881743Y-76061011D01*
X136976981Y-76156249D01*
X137024600Y-76299106D01*
X137024600Y-76537201D01*
X136024600Y-75632439D02*
X136024600Y-75013392D01*
X136405553Y-75346725D01*
X136405553Y-75203868D01*
X136453172Y-75108630D01*
X136500791Y-75061011D01*
X136596029Y-75013392D01*
X136834124Y-75013392D01*
X136929362Y-75061011D01*
X136976981Y-75108630D01*
X137024600Y-75203868D01*
X137024600Y-75489582D01*
X136976981Y-75584820D01*
X136929362Y-75632439D01*
X136024600Y-74156249D02*
X136024600Y-74346725D01*
X136072220Y-74441963D01*
X136119839Y-74489582D01*
X136262696Y-74584820D01*
X136453172Y-74632439D01*
X136834124Y-74632439D01*
X136929362Y-74584820D01*
X136976981Y-74537201D01*
X137024600Y-74441963D01*
X137024600Y-74251487D01*
X136976981Y-74156249D01*
X136929362Y-74108630D01*
X136834124Y-74061011D01*
X136596029Y-74061011D01*
X136500791Y-74108630D01*
X136453172Y-74156249D01*
X136405553Y-74251487D01*
X136405553Y-74441963D01*
X136453172Y-74537201D01*
X136500791Y-74584820D01*
X136596029Y-74632439D01*
X143469044Y-82978173D02*
X142469044Y-82978173D01*
X142469044Y-82740078D01*
X142516664Y-82597221D01*
X142611902Y-82501983D01*
X142707140Y-82454364D01*
X142897616Y-82406745D01*
X143040473Y-82406745D01*
X143230949Y-82454364D01*
X143326187Y-82501983D01*
X143421425Y-82597221D01*
X143469044Y-82740078D01*
X143469044Y-82978173D01*
X142802378Y-81549602D02*
X143469044Y-81549602D01*
X142421425Y-81787697D02*
X143135711Y-82025792D01*
X143135711Y-81406745D01*
X142469044Y-81121030D02*
X142469044Y-80454364D01*
X143469044Y-80882935D01*
X143469044Y-95860117D02*
X142469044Y-95860117D01*
X142469044Y-95622022D01*
X142516664Y-95479165D01*
X142611902Y-95383927D01*
X142707140Y-95336308D01*
X142897616Y-95288689D01*
X143040473Y-95288689D01*
X143230949Y-95336308D01*
X143326187Y-95383927D01*
X143421425Y-95479165D01*
X143469044Y-95622022D01*
X143469044Y-95860117D01*
X142469044Y-94431546D02*
X142469044Y-94622022D01*
X142516664Y-94717260D01*
X142564283Y-94764879D01*
X142707140Y-94860117D01*
X142897616Y-94907736D01*
X143278568Y-94907736D01*
X143373806Y-94860117D01*
X143421425Y-94812498D01*
X143469044Y-94717260D01*
X143469044Y-94526784D01*
X143421425Y-94431546D01*
X143373806Y-94383927D01*
X143278568Y-94336308D01*
X143040473Y-94336308D01*
X142945235Y-94383927D01*
X142897616Y-94431546D01*
X142849997Y-94526784D01*
X142849997Y-94717260D01*
X142897616Y-94812498D01*
X142945235Y-94860117D01*
X143040473Y-94907736D01*
X142469044Y-94002974D02*
X142469044Y-93336308D01*
X143469044Y-93764879D01*
X137024600Y-95860117D02*
X136024600Y-95860117D01*
X136024600Y-95622022D01*
X136072220Y-95479165D01*
X136167458Y-95383927D01*
X136262696Y-95336308D01*
X136453172Y-95288689D01*
X136596029Y-95288689D01*
X136786505Y-95336308D01*
X136881743Y-95383927D01*
X136976981Y-95479165D01*
X137024600Y-95622022D01*
X137024600Y-95860117D01*
X136024600Y-94431546D02*
X136024600Y-94622022D01*
X136072220Y-94717260D01*
X136119839Y-94764879D01*
X136262696Y-94860117D01*
X136453172Y-94907736D01*
X136834124Y-94907736D01*
X136929362Y-94860117D01*
X136976981Y-94812498D01*
X137024600Y-94717260D01*
X137024600Y-94526784D01*
X136976981Y-94431546D01*
X136929362Y-94383927D01*
X136834124Y-94336308D01*
X136596029Y-94336308D01*
X136500791Y-94383927D01*
X136453172Y-94431546D01*
X136405553Y-94526784D01*
X136405553Y-94717260D01*
X136453172Y-94812498D01*
X136500791Y-94860117D01*
X136596029Y-94907736D01*
X136024600Y-93479165D02*
X136024600Y-93669641D01*
X136072220Y-93764879D01*
X136119839Y-93812498D01*
X136262696Y-93907736D01*
X136453172Y-93955355D01*
X136834124Y-93955355D01*
X136929362Y-93907736D01*
X136976981Y-93860117D01*
X137024600Y-93764879D01*
X137024600Y-93574403D01*
X136976981Y-93479165D01*
X136929362Y-93431546D01*
X136834124Y-93383927D01*
X136596029Y-93383927D01*
X136500791Y-93431546D01*
X136453172Y-93479165D01*
X136405553Y-93574403D01*
X136405553Y-93764879D01*
X136453172Y-93860117D01*
X136500791Y-93907736D01*
X136596029Y-93955355D01*
D12*
X137262220Y-55000000D02*
X137262220Y-57685000D01*
X137262220Y-57685000D02*
X139182220Y-57685000D01*
X139182220Y-57685000D02*
X139182220Y-55000000D01*
X111484444Y-80763888D02*
X111484444Y-83448888D01*
X111484444Y-83448888D02*
X113404444Y-83448888D01*
X113404444Y-83448888D02*
X113404444Y-80763888D01*
X143706664Y-67881944D02*
X143706664Y-70566944D01*
X143706664Y-70566944D02*
X145626664Y-70566944D01*
X145626664Y-70566944D02*
X145626664Y-67881944D01*
X156595552Y-61440972D02*
X156595552Y-64125972D01*
X156595552Y-64125972D02*
X158515552Y-64125972D01*
X158515552Y-64125972D02*
X158515552Y-61440972D01*
X137262220Y-67881944D02*
X137262220Y-70566944D01*
X137262220Y-70566944D02*
X139182220Y-70566944D01*
X139182220Y-70566944D02*
X139182220Y-67881944D01*
X124373332Y-93645832D02*
X124373332Y-96330832D01*
X124373332Y-96330832D02*
X126293332Y-96330832D01*
X126293332Y-96330832D02*
X126293332Y-93645832D01*
X143706664Y-61440972D02*
X143706664Y-64125972D01*
X143706664Y-64125972D02*
X145626664Y-64125972D01*
X145626664Y-64125972D02*
X145626664Y-61440972D01*
X137262220Y-100086804D02*
X137262220Y-102771804D01*
X137262220Y-102771804D02*
X139182220Y-102771804D01*
X139182220Y-102771804D02*
X139182220Y-100086804D01*
X143706664Y-74322916D02*
X143706664Y-77007916D01*
X143706664Y-77007916D02*
X145626664Y-77007916D01*
X145626664Y-77007916D02*
X145626664Y-74322916D01*
X163040000Y-74322916D02*
X163040000Y-77007916D01*
X163040000Y-77007916D02*
X164960000Y-77007916D01*
X164960000Y-77007916D02*
X164960000Y-74322916D01*
X124373332Y-106527776D02*
X124373332Y-109212776D01*
X124373332Y-109212776D02*
X126293332Y-109212776D01*
X126293332Y-109212776D02*
X126293332Y-106527776D01*
X117928888Y-74322916D02*
X117928888Y-77007916D01*
X117928888Y-77007916D02*
X119848888Y-77007916D01*
X119848888Y-77007916D02*
X119848888Y-74322916D01*
X124373332Y-80763888D02*
X124373332Y-83448888D01*
X124373332Y-83448888D02*
X126293332Y-83448888D01*
X126293332Y-83448888D02*
X126293332Y-80763888D01*
X130817776Y-80763888D02*
X130817776Y-83448888D01*
X130817776Y-83448888D02*
X132737776Y-83448888D01*
X132737776Y-83448888D02*
X132737776Y-80763888D01*
X163040000Y-55000000D02*
X163040000Y-57685000D01*
X163040000Y-57685000D02*
X164960000Y-57685000D01*
X164960000Y-57685000D02*
X164960000Y-55000000D01*
G36*
X109357657Y-119447697D02*
G01*
X109385255Y-119491119D01*
X109425673Y-119557611D01*
X109476075Y-119642260D01*
X109533624Y-119740149D01*
X109595483Y-119846366D01*
X109658816Y-119955995D01*
X109720785Y-120064121D01*
X109778553Y-120165831D01*
X109829285Y-120256209D01*
X109870142Y-120330341D01*
X109898289Y-120383312D01*
X109910888Y-120410209D01*
X109911293Y-120412071D01*
X109901780Y-120435343D01*
X109873964Y-120489084D01*
X109828924Y-120571383D01*
X109767742Y-120680327D01*
X109691497Y-120814003D01*
X109601271Y-120970498D01*
X109498145Y-121147900D01*
X109420334Y-121280981D01*
X109383705Y-121343757D01*
X109330915Y-121434608D01*
X109264643Y-121548906D01*
X109187566Y-121682022D01*
X109102364Y-121829328D01*
X109011717Y-121986197D01*
X108918301Y-122147999D01*
X108863270Y-122243388D01*
X108758879Y-122424387D01*
X108670617Y-122577421D01*
X108595755Y-122707219D01*
X108531567Y-122818508D01*
X108475323Y-122916016D01*
X108424297Y-123004472D01*
X108375760Y-123088605D01*
X108326986Y-123173141D01*
X108275245Y-123262811D01*
X108217810Y-123362341D01*
X108151954Y-123476460D01*
X108074949Y-123609896D01*
X107984066Y-123767378D01*
X107959667Y-123809658D01*
X107876362Y-123953971D01*
X107796102Y-124092934D01*
X107721543Y-124221956D01*
X107655338Y-124336448D01*
X107600141Y-124431819D01*
X107558608Y-124503480D01*
X107534105Y-124545617D01*
X107481021Y-124636567D01*
X107429454Y-124725036D01*
X107377312Y-124814636D01*
X107322499Y-124908979D01*
X107262924Y-125011679D01*
X107196493Y-125126347D01*
X107121113Y-125256598D01*
X107034690Y-125406043D01*
X106935131Y-125578295D01*
X106820343Y-125776968D01*
X106724981Y-125942050D01*
X106196322Y-126857281D01*
X111224090Y-126862033D01*
X111657059Y-126862479D01*
X112080093Y-126862987D01*
X112491644Y-126863553D01*
X112890165Y-126864172D01*
X113274108Y-126864839D01*
X113641925Y-126865550D01*
X113992068Y-126866301D01*
X114322990Y-126867087D01*
X114633142Y-126867903D01*
X114920977Y-126868745D01*
X115184948Y-126869608D01*
X115423505Y-126870488D01*
X115635102Y-126871381D01*
X115818190Y-126872282D01*
X115971223Y-126873185D01*
X116092651Y-126874088D01*
X116180928Y-126874985D01*
X116234505Y-126875872D01*
X116251857Y-126876714D01*
X116242773Y-126894948D01*
X116217081Y-126941683D01*
X116177126Y-127012783D01*
X116125248Y-127104110D01*
X116063792Y-127211527D01*
X115995100Y-127330895D01*
X115974067Y-127367318D01*
X115696277Y-127847994D01*
X115620241Y-127849189D01*
X115569859Y-127849685D01*
X115484906Y-127850152D01*
X115367199Y-127850590D01*
X115218554Y-127851000D01*
X115040787Y-127851382D01*
X114835714Y-127851735D01*
X114605152Y-127852061D01*
X114350916Y-127852358D01*
X114074822Y-127852629D01*
X113778687Y-127852871D01*
X113464327Y-127853087D01*
X113133557Y-127853276D01*
X112788195Y-127853438D01*
X112430056Y-127853573D01*
X112060956Y-127853682D01*
X111682712Y-127853765D01*
X111297139Y-127853821D01*
X110906054Y-127853852D01*
X110511273Y-127853858D01*
X110114611Y-127853838D01*
X109717886Y-127853792D01*
X109322913Y-127853722D01*
X108931509Y-127853627D01*
X108545489Y-127853508D01*
X108166669Y-127853364D01*
X107796867Y-127853195D01*
X107437897Y-127853003D01*
X107091576Y-127852787D01*
X106759720Y-127852547D01*
X106444146Y-127852284D01*
X106146669Y-127851998D01*
X105869106Y-127851688D01*
X105613272Y-127851356D01*
X105380984Y-127851001D01*
X105174058Y-127850624D01*
X104994310Y-127850224D01*
X104843556Y-127849802D01*
X104723613Y-127849359D01*
X104636296Y-127848894D01*
X104583422Y-127848407D01*
X104567057Y-127847994D01*
X104478318Y-127838559D01*
X104800709Y-127281872D01*
X104861591Y-127176712D01*
X104937977Y-127044717D01*
X105027726Y-126889589D01*
X105128700Y-126715031D01*
X105238756Y-126524744D01*
X105355755Y-126322432D01*
X105477555Y-126111797D01*
X105602017Y-125896542D01*
X105726999Y-125680367D01*
X105850361Y-125466977D01*
X105969964Y-125260073D01*
X106083665Y-125063357D01*
X106189324Y-124880533D01*
X106284802Y-124715302D01*
X106367957Y-124571367D01*
X106436649Y-124452430D01*
X106488738Y-124362194D01*
X106491787Y-124356909D01*
X106522744Y-124303305D01*
X106570159Y-124221273D01*
X106631583Y-124115050D01*
X106704565Y-123988870D01*
X106786655Y-123846969D01*
X106875402Y-123693583D01*
X106968358Y-123532949D01*
X107043023Y-123403938D01*
X107302444Y-122955663D01*
X107544046Y-122538052D01*
X107768968Y-122149134D01*
X107978349Y-121786938D01*
X108173326Y-121449493D01*
X108355040Y-121134827D01*
X108524628Y-120840971D01*
X108683230Y-120565953D01*
X108831983Y-120307802D01*
X108893347Y-120201242D01*
X108982867Y-120046103D01*
X109066737Y-119901420D01*
X109143072Y-119770396D01*
X109209990Y-119656235D01*
X109265604Y-119562139D01*
X109308032Y-119491313D01*
X109335387Y-119446960D01*
X109345717Y-119432260D01*
X109357657Y-119447697D01*
G37*
G36*
X109320564Y-116792515D02*
G01*
X109347661Y-116825682D01*
X109375936Y-116870076D01*
X109401251Y-116913777D01*
X109442114Y-116984434D01*
X109495213Y-117076315D01*
X109557236Y-117183685D01*
X109624867Y-117300810D01*
X109678436Y-117393611D01*
X109738246Y-117497186D01*
X109813863Y-117628057D01*
X109902187Y-117780857D01*
X110000112Y-117950221D01*
X110104537Y-118130781D01*
X110212359Y-118317173D01*
X110320473Y-118504029D01*
X110420474Y-118676820D01*
X110522233Y-118852645D01*
X110623561Y-119027763D01*
X110721859Y-119197680D01*
X110814529Y-119357901D01*
X110898971Y-119503932D01*
X110972586Y-119631280D01*
X111032775Y-119735450D01*
X111076940Y-119811947D01*
X111080720Y-119818499D01*
X111245891Y-120104799D01*
X111409905Y-120388968D01*
X111570048Y-120666310D01*
X111723606Y-120932127D01*
X111867864Y-121181720D01*
X112000108Y-121410392D01*
X112117624Y-121613445D01*
X112170982Y-121705572D01*
X112247845Y-121838244D01*
X112324606Y-121970741D01*
X112397472Y-122096516D01*
X112462651Y-122209022D01*
X112516348Y-122301713D01*
X112553618Y-122366047D01*
X112584888Y-122420061D01*
X112632712Y-122502715D01*
X112694757Y-122609974D01*
X112768690Y-122737804D01*
X112852177Y-122882169D01*
X112942883Y-123039035D01*
X113038477Y-123204366D01*
X113136624Y-123374128D01*
X113148403Y-123394502D01*
X113254206Y-123577501D01*
X113363906Y-123767211D01*
X113474152Y-123957838D01*
X113581591Y-124143587D01*
X113682870Y-124318662D01*
X113774639Y-124477268D01*
X113853545Y-124613612D01*
X113904974Y-124702448D01*
X113974594Y-124823288D01*
X114037596Y-124933805D01*
X114091595Y-125029719D01*
X114134202Y-125106748D01*
X114163031Y-125160611D01*
X114175695Y-125187027D01*
X114176077Y-125188646D01*
X114157621Y-125193788D01*
X114103878Y-125197800D01*
X114017288Y-125200627D01*
X113900292Y-125202212D01*
X113755329Y-125202500D01*
X113608330Y-125201651D01*
X113040582Y-125196657D01*
X112690858Y-124592793D01*
X112597710Y-124431925D01*
X112498716Y-124260901D01*
X112398375Y-124087499D01*
X112301187Y-123919500D01*
X112211653Y-123764680D01*
X112134272Y-123630818D01*
X112101313Y-123573774D01*
X112042654Y-123472246D01*
X111968170Y-123343354D01*
X111880927Y-123192405D01*
X111783995Y-123024706D01*
X111680440Y-122845564D01*
X111573331Y-122660287D01*
X111465735Y-122474183D01*
X111365024Y-122300000D01*
X111206437Y-122025718D01*
X111031820Y-121723689D01*
X110844024Y-121398842D01*
X110645898Y-121056110D01*
X110440294Y-120700423D01*
X110230061Y-120336714D01*
X110018052Y-119969913D01*
X109807115Y-119604951D01*
X109600101Y-119246759D01*
X109576608Y-119206109D01*
X109510027Y-119091791D01*
X109449034Y-118988762D01*
X109396307Y-118901408D01*
X109354523Y-118834116D01*
X109326360Y-118791272D01*
X109314873Y-118777243D01*
X109298571Y-118790118D01*
X109269882Y-118828926D01*
X109234090Y-118886252D01*
X109221363Y-118908429D01*
X109191938Y-118960282D01*
X109146794Y-119039173D01*
X109089156Y-119139499D01*
X109022250Y-119255655D01*
X108949300Y-119382036D01*
X108873531Y-119513039D01*
X108860561Y-119535438D01*
X108795777Y-119647329D01*
X108715092Y-119786745D01*
X108621487Y-119948532D01*
X108517943Y-120127536D01*
X108407441Y-120318602D01*
X108292962Y-120516578D01*
X108177486Y-120716309D01*
X108063995Y-120912641D01*
X108020159Y-120988484D01*
X107900008Y-121196354D01*
X107770004Y-121421237D01*
X107634217Y-121656094D01*
X107496717Y-121893888D01*
X107361574Y-122127580D01*
X107232859Y-122350131D01*
X107114640Y-122554503D01*
X107010989Y-122733657D01*
X107005316Y-122743462D01*
X106906196Y-122914795D01*
X106806483Y-123087221D01*
X106709072Y-123255727D01*
X106616861Y-123415298D01*
X106532746Y-123560921D01*
X106459624Y-123687583D01*
X106400392Y-123790270D01*
X106367480Y-123847400D01*
X106302945Y-123959382D01*
X106225385Y-124093751D01*
X106140725Y-124240255D01*
X106054891Y-124388640D01*
X105973807Y-124528656D01*
X105953039Y-124564487D01*
X105820938Y-124792358D01*
X105704688Y-124992922D01*
X105601201Y-125171519D01*
X105507390Y-125333487D01*
X105420165Y-125484166D01*
X105336438Y-125628893D01*
X105253122Y-125773009D01*
X105167129Y-125921852D01*
X105075369Y-126080760D01*
X104974755Y-126255074D01*
X104862200Y-126450131D01*
X104806937Y-126545914D01*
X104710359Y-126713200D01*
X104618974Y-126871284D01*
X104534608Y-127017023D01*
X104459085Y-127147272D01*
X104394232Y-127258887D01*
X104341874Y-127348725D01*
X104303837Y-127413640D01*
X104281947Y-127450491D01*
X104277734Y-127457254D01*
X104266581Y-127467524D01*
X104252533Y-127463686D01*
X104232285Y-127441617D01*
X104202532Y-127397194D01*
X104159967Y-127326294D01*
X104126453Y-127268547D01*
X104068806Y-127168673D01*
X103999856Y-127049356D01*
X103927236Y-126923798D01*
X103858581Y-126805201D01*
X103840959Y-126774784D01*
X103683810Y-126503579D01*
X103743952Y-126397369D01*
X103767298Y-126356475D01*
X103806952Y-126287400D01*
X103860327Y-126194635D01*
X103924835Y-126082670D01*
X103997889Y-125955995D01*
X104076903Y-125819102D01*
X104153040Y-125687296D01*
X104250602Y-125518450D01*
X104358065Y-125332457D01*
X104470037Y-125138645D01*
X104581127Y-124946347D01*
X104685945Y-124764892D01*
X104779101Y-124603613D01*
X104807148Y-124555052D01*
X104887239Y-124416414D01*
X104966563Y-124279173D01*
X105041734Y-124149182D01*
X105109367Y-124032293D01*
X105166074Y-123934361D01*
X105208471Y-123861238D01*
X105219188Y-123842786D01*
X105278007Y-123741428D01*
X105344632Y-123626374D01*
X105408079Y-123516598D01*
X105432189Y-123474807D01*
X105473230Y-123403632D01*
X105517450Y-123326986D01*
X105566067Y-123242762D01*
X105620299Y-123148853D01*
X105681364Y-123043151D01*
X105750481Y-122923550D01*
X105828867Y-122787943D01*
X105917740Y-122634222D01*
X106018318Y-122460281D01*
X106131820Y-122264013D01*
X106259464Y-122043310D01*
X106402467Y-121796065D01*
X106562048Y-121520172D01*
X106722235Y-121243239D01*
X106855310Y-121013174D01*
X106989494Y-120781173D01*
X107122671Y-120550898D01*
X107252725Y-120326009D01*
X107377538Y-120110166D01*
X107494994Y-119907032D01*
X107602976Y-119720266D01*
X107699368Y-119553528D01*
X107782052Y-119410481D01*
X107848912Y-119294784D01*
X107873412Y-119252377D01*
X108075167Y-118903156D01*
X108258757Y-118585453D01*
X108424864Y-118298089D01*
X108574175Y-118039883D01*
X108707372Y-117809658D01*
X108825140Y-117606234D01*
X108928163Y-117428432D01*
X109017126Y-117275072D01*
X109092712Y-117144976D01*
X109155607Y-117036964D01*
X109206493Y-116949857D01*
X109246055Y-116882476D01*
X109274978Y-116833641D01*
X109293946Y-116802173D01*
X109303643Y-116786894D01*
X109304967Y-116785158D01*
X109320564Y-116792515D01*
G37*
G36*
X110465121Y-116772205D02*
G01*
X110594014Y-116773039D01*
X110692990Y-116774759D01*
X110765961Y-116777549D01*
X110816836Y-116781591D01*
X110849527Y-116787070D01*
X110867945Y-116794169D01*
X110873419Y-116798845D01*
X110890157Y-116823866D01*
X110921885Y-116875513D01*
X110964910Y-116947617D01*
X111015537Y-117034012D01*
X111051226Y-117095701D01*
X111118808Y-117212991D01*
X111194418Y-117344024D01*
X111269704Y-117474339D01*
X111336315Y-117589469D01*
X111348570Y-117610624D01*
X111401625Y-117702226D01*
X111471423Y-117822805D01*
X111555825Y-117968661D01*
X111652690Y-118136093D01*
X111759879Y-118321400D01*
X111875253Y-118520882D01*
X111996671Y-118730838D01*
X112121995Y-118947567D01*
X112249083Y-119167369D01*
X112375797Y-119386544D01*
X112499997Y-119601389D01*
X112619543Y-119808205D01*
X112732295Y-120003291D01*
X112836114Y-120182947D01*
X112928860Y-120343471D01*
X113008393Y-120481163D01*
X113072503Y-120592199D01*
X113143020Y-120714337D01*
X113229201Y-120863544D01*
X113327808Y-121034221D01*
X113435605Y-121220769D01*
X113549357Y-121417588D01*
X113665828Y-121619078D01*
X113781782Y-121819641D01*
X113893982Y-122013677D01*
X113912238Y-122045245D01*
X114112925Y-122392261D01*
X114295758Y-122708409D01*
X114461778Y-122995490D01*
X114612027Y-123255306D01*
X114747547Y-123489658D01*
X114869380Y-123700350D01*
X114978568Y-123889182D01*
X115076152Y-124057956D01*
X115163175Y-124208474D01*
X115240679Y-124342538D01*
X115309704Y-124461949D01*
X115371293Y-124568510D01*
X115418042Y-124649406D01*
X115493629Y-124780177D01*
X115575161Y-124921175D01*
X115656579Y-125061927D01*
X115731827Y-125191961D01*
X115794846Y-125300805D01*
X115800103Y-125309881D01*
X115858792Y-125411264D01*
X115930936Y-125535995D01*
X116011134Y-125674729D01*
X116093984Y-125818123D01*
X116174084Y-125956831D01*
X116203677Y-126008098D01*
X116270440Y-126123588D01*
X116332196Y-126230062D01*
X116386060Y-126322572D01*
X116429145Y-126396170D01*
X116458564Y-126445906D01*
X116470229Y-126465049D01*
X116490409Y-126499772D01*
X116497177Y-126516944D01*
X116478568Y-126517827D01*
X116423791Y-126518690D01*
X116334418Y-126519529D01*
X116212023Y-126520341D01*
X116058177Y-126521123D01*
X115874455Y-126521870D01*
X115662428Y-126522581D01*
X115423670Y-126523252D01*
X115159754Y-126523879D01*
X114872252Y-126524459D01*
X114562738Y-126524989D01*
X114232784Y-126525466D01*
X113883963Y-126525887D01*
X113517848Y-126526247D01*
X113136012Y-126526545D01*
X112740028Y-126526776D01*
X112331469Y-126526937D01*
X111911907Y-126527026D01*
X111628529Y-126527043D01*
X111202542Y-126527018D01*
X110786514Y-126526944D01*
X110382020Y-126526824D01*
X109990631Y-126526660D01*
X109613920Y-126526453D01*
X109253461Y-126526206D01*
X108910826Y-126525921D01*
X108587589Y-126525600D01*
X108285322Y-126525245D01*
X108005597Y-126524858D01*
X107749988Y-126524442D01*
X107520069Y-126523999D01*
X107317410Y-126523530D01*
X107143587Y-126523038D01*
X107000170Y-126522524D01*
X106888734Y-126521992D01*
X106810851Y-126521443D01*
X106768095Y-126520879D01*
X106759881Y-126520498D01*
X106768939Y-126503069D01*
X106794428Y-126457438D01*
X106833822Y-126388037D01*
X106884596Y-126299300D01*
X106944224Y-126195658D01*
X106999133Y-126100624D01*
X107066881Y-125983463D01*
X107130373Y-125873437D01*
X107186509Y-125775933D01*
X107232190Y-125696342D01*
X107264316Y-125640054D01*
X107277476Y-125616686D01*
X107301136Y-125577443D01*
X107324659Y-125556186D01*
X107360151Y-125547181D01*
X107419716Y-125544697D01*
X107429792Y-125544555D01*
X107460013Y-125544387D01*
X107526071Y-125544197D01*
X107626063Y-125543987D01*
X107758083Y-125543760D01*
X107920229Y-125543517D01*
X108110597Y-125543261D01*
X108327281Y-125542994D01*
X108568378Y-125542718D01*
X108831985Y-125542434D01*
X109116196Y-125542146D01*
X109419108Y-125541855D01*
X109738818Y-125541564D01*
X110073419Y-125541274D01*
X110421010Y-125540987D01*
X110779685Y-125540707D01*
X111147541Y-125540434D01*
X111152043Y-125540430D01*
X111623403Y-125539995D01*
X112063976Y-125539393D01*
X112473239Y-125538627D01*
X112850670Y-125537700D01*
X113195746Y-125536615D01*
X113507945Y-125535376D01*
X113786744Y-125533985D01*
X114031621Y-125532445D01*
X114242053Y-125530760D01*
X114417519Y-125528932D01*
X114557494Y-125526964D01*
X114661458Y-125524860D01*
X114728888Y-125522623D01*
X114759260Y-125520255D01*
X114761070Y-125519495D01*
X114758915Y-125512347D01*
X114751746Y-125496946D01*
X114738500Y-125471440D01*
X114718118Y-125433975D01*
X114689539Y-125382697D01*
X114651704Y-125315754D01*
X114603551Y-125231291D01*
X114544020Y-125127456D01*
X114472051Y-125002395D01*
X114386584Y-124854255D01*
X114286558Y-124681181D01*
X114170912Y-124481322D01*
X114038587Y-124252823D01*
X113888522Y-123993830D01*
X113863809Y-123951189D01*
X113779735Y-123806061D01*
X113681599Y-123636556D01*
X113574210Y-123450984D01*
X113462374Y-123257655D01*
X113350898Y-123064879D01*
X113244591Y-122880964D01*
X113176047Y-122762333D01*
X113098303Y-122627765D01*
X113004548Y-122465512D01*
X112897665Y-122280561D01*
X112780537Y-122077899D01*
X112656046Y-121862512D01*
X112527074Y-121639389D01*
X112396504Y-121413516D01*
X112267218Y-121189880D01*
X112142099Y-120973468D01*
X112123505Y-120941308D01*
X112010872Y-120746498D01*
X111902487Y-120559028D01*
X111800035Y-120381812D01*
X111705200Y-120217762D01*
X111619666Y-120069793D01*
X111545116Y-119940817D01*
X111483236Y-119833749D01*
X111435708Y-119751500D01*
X111404217Y-119696985D01*
X111392665Y-119676969D01*
X111369780Y-119637324D01*
X111330193Y-119568811D01*
X111276103Y-119475231D01*
X111209708Y-119360385D01*
X111133206Y-119228073D01*
X111048797Y-119082097D01*
X110958677Y-118926257D01*
X110865044Y-118764353D01*
X110770098Y-118600187D01*
X110676036Y-118437560D01*
X110585056Y-118280271D01*
X110499357Y-118132122D01*
X110421137Y-117996914D01*
X110352593Y-117878448D01*
X110295925Y-117780523D01*
X110253330Y-117706942D01*
X110235797Y-117676672D01*
X110120070Y-117476668D01*
X110022276Y-117307017D01*
X109941208Y-117165542D01*
X109875660Y-117050067D01*
X109824425Y-116958416D01*
X109786296Y-116888413D01*
X109760065Y-116837884D01*
X109744527Y-116804650D01*
X109738474Y-116786538D01*
X109739333Y-116781624D01*
X109761270Y-116779296D01*
X109816094Y-116777155D01*
X109898948Y-116775286D01*
X110004979Y-116773769D01*
X110129330Y-116772688D01*
X110267148Y-116772124D01*
X110302401Y-116772075D01*
X110465121Y-116772205D01*
G37*
X124373332Y-55000000D02*
X124373332Y-57685000D01*
X124373332Y-57685000D02*
X126293332Y-57685000D01*
X126293332Y-57685000D02*
X126293332Y-55000000D01*
X130817776Y-93645832D02*
X130817776Y-96330832D01*
X130817776Y-96330832D02*
X132737776Y-96330832D01*
X132737776Y-96330832D02*
X132737776Y-93645832D01*
X150151108Y-93645832D02*
X150151108Y-96330832D01*
X150151108Y-96330832D02*
X152071108Y-96330832D01*
X152071108Y-96330832D02*
X152071108Y-93645832D01*
X105040000Y-87204860D02*
X105040000Y-89889860D01*
X105040000Y-89889860D02*
X106960000Y-89889860D01*
X106960000Y-89889860D02*
X106960000Y-87204860D01*
X105040000Y-61440972D02*
X105040000Y-64125972D01*
X105040000Y-64125972D02*
X106960000Y-64125972D01*
X106960000Y-64125972D02*
X106960000Y-61440972D01*
X130817776Y-67881944D02*
X130817776Y-70566944D01*
X130817776Y-70566944D02*
X132737776Y-70566944D01*
X132737776Y-70566944D02*
X132737776Y-67881944D01*
X143706664Y-100086804D02*
X143706664Y-102771804D01*
X143706664Y-102771804D02*
X145626664Y-102771804D01*
X145626664Y-102771804D02*
X145626664Y-100086804D01*
X163040000Y-67881944D02*
X163040000Y-70566944D01*
X163040000Y-70566944D02*
X164960000Y-70566944D01*
X164960000Y-70566944D02*
X164960000Y-67881944D01*
X156595552Y-67881944D02*
X156595552Y-70566944D01*
X156595552Y-70566944D02*
X158515552Y-70566944D01*
X158515552Y-70566944D02*
X158515552Y-67881944D01*
X105040000Y-106527776D02*
X105040000Y-109212776D01*
X105040000Y-109212776D02*
X106960000Y-109212776D01*
X106960000Y-109212776D02*
X106960000Y-106527776D01*
X124373332Y-74322916D02*
X124373332Y-77007916D01*
X124373332Y-77007916D02*
X126293332Y-77007916D01*
X126293332Y-77007916D02*
X126293332Y-74322916D01*
X150151108Y-74322916D02*
X150151108Y-77007916D01*
X150151108Y-77007916D02*
X152071108Y-77007916D01*
X152071108Y-77007916D02*
X152071108Y-74322916D01*
X156595552Y-87204860D02*
X156595552Y-89889860D01*
X156595552Y-89889860D02*
X158515552Y-89889860D01*
X158515552Y-89889860D02*
X158515552Y-87204860D01*
X143706664Y-106527776D02*
X143706664Y-109212776D01*
X143706664Y-109212776D02*
X145626664Y-109212776D01*
X145626664Y-109212776D02*
X145626664Y-106527776D01*
X150151108Y-80763888D02*
X150151108Y-83448888D01*
X150151108Y-83448888D02*
X152071108Y-83448888D01*
X152071108Y-83448888D02*
X152071108Y-80763888D01*
X111484444Y-100086804D02*
X111484444Y-102771804D01*
X111484444Y-102771804D02*
X113404444Y-102771804D01*
X113404444Y-102771804D02*
X113404444Y-100086804D01*
X150151108Y-106527776D02*
X150151108Y-109212776D01*
X150151108Y-109212776D02*
X152071108Y-109212776D01*
X152071108Y-109212776D02*
X152071108Y-106527776D01*
X117928888Y-87204860D02*
X117928888Y-89889860D01*
X117928888Y-89889860D02*
X119848888Y-89889860D01*
X119848888Y-89889860D02*
X119848888Y-87204860D01*
X117928888Y-100086804D02*
X117928888Y-102771804D01*
X117928888Y-102771804D02*
X119848888Y-102771804D01*
X119848888Y-102771804D02*
X119848888Y-100086804D01*
X111484444Y-67881944D02*
X111484444Y-70566944D01*
X111484444Y-70566944D02*
X113404444Y-70566944D01*
X113404444Y-70566944D02*
X113404444Y-67881944D01*
X156595552Y-74322916D02*
X156595552Y-77007916D01*
X156595552Y-77007916D02*
X158515552Y-77007916D01*
X158515552Y-77007916D02*
X158515552Y-74322916D01*
X137262220Y-80763888D02*
X137262220Y-83448888D01*
X137262220Y-83448888D02*
X139182220Y-83448888D01*
X139182220Y-83448888D02*
X139182220Y-80763888D01*
X117928888Y-106527776D02*
X117928888Y-109212776D01*
X117928888Y-109212776D02*
X119848888Y-109212776D01*
X119848888Y-109212776D02*
X119848888Y-106527776D01*
X137262220Y-87204860D02*
X137262220Y-89889860D01*
X137262220Y-89889860D02*
X139182220Y-89889860D01*
X139182220Y-89889860D02*
X139182220Y-87204860D01*
X124373332Y-61440972D02*
X124373332Y-64125972D01*
X124373332Y-64125972D02*
X126293332Y-64125972D01*
X126293332Y-64125972D02*
X126293332Y-61440972D01*
X150151108Y-112937498D02*
X150151108Y-115622498D01*
X150151108Y-115622498D02*
X152071108Y-115622498D01*
X152071108Y-115622498D02*
X152071108Y-112937498D01*
X163040000Y-112999998D02*
X163040000Y-115684998D01*
X163040000Y-115684998D02*
X164960000Y-115684998D01*
X164960000Y-115684998D02*
X164960000Y-112999998D01*
X130817776Y-55000000D02*
X130817776Y-57685000D01*
X130817776Y-57685000D02*
X132737776Y-57685000D01*
X132737776Y-57685000D02*
X132737776Y-55000000D01*
X130817776Y-106527776D02*
X130817776Y-109212776D01*
X130817776Y-109212776D02*
X132737776Y-109212776D01*
X132737776Y-109212776D02*
X132737776Y-106527776D01*
X143706664Y-87204860D02*
X143706664Y-89889860D01*
X143706664Y-89889860D02*
X145626664Y-89889860D01*
X145626664Y-89889860D02*
X145626664Y-87204860D01*
X130817776Y-74322916D02*
X130817776Y-77007916D01*
X130817776Y-77007916D02*
X132737776Y-77007916D01*
X132737776Y-77007916D02*
X132737776Y-74322916D01*
X156595552Y-112937498D02*
X156595552Y-115622498D01*
X156595552Y-115622498D02*
X158515552Y-115622498D01*
X158515552Y-115622498D02*
X158515552Y-112937498D01*
X124373332Y-87204860D02*
X124373332Y-89889860D01*
X124373332Y-89889860D02*
X126293332Y-89889860D01*
X126293332Y-89889860D02*
X126293332Y-87204860D01*
X156595552Y-80763888D02*
X156595552Y-83448888D01*
X156595552Y-83448888D02*
X158515552Y-83448888D01*
X158515552Y-83448888D02*
X158515552Y-80763888D01*
X130817776Y-100086804D02*
X130817776Y-102771804D01*
X130817776Y-102771804D02*
X132737776Y-102771804D01*
X132737776Y-102771804D02*
X132737776Y-100086804D01*
X117928888Y-80763888D02*
X117928888Y-83448888D01*
X117928888Y-83448888D02*
X119848888Y-83448888D01*
X119848888Y-83448888D02*
X119848888Y-80763888D01*
X163040000Y-106527776D02*
X163040000Y-109212776D01*
X163040000Y-109212776D02*
X164960000Y-109212776D01*
X164960000Y-109212776D02*
X164960000Y-106527776D01*
X163040000Y-100086804D02*
X163040000Y-102771804D01*
X163040000Y-102771804D02*
X164960000Y-102771804D01*
X164960000Y-102771804D02*
X164960000Y-100086804D01*
X156595552Y-55000000D02*
X156595552Y-57685000D01*
X156595552Y-57685000D02*
X158515552Y-57685000D01*
X158515552Y-57685000D02*
X158515552Y-55000000D01*
X117928888Y-67881944D02*
X117928888Y-70566944D01*
X117928888Y-70566944D02*
X119848888Y-70566944D01*
X119848888Y-70566944D02*
X119848888Y-67881944D01*
X163040000Y-93645832D02*
X163040000Y-96330832D01*
X163040000Y-96330832D02*
X164960000Y-96330832D01*
X164960000Y-96330832D02*
X164960000Y-93645832D01*
X111484444Y-61440972D02*
X111484444Y-64125972D01*
X111484444Y-64125972D02*
X113404444Y-64125972D01*
X113404444Y-64125972D02*
X113404444Y-61440972D01*
X105040000Y-100086804D02*
X105040000Y-102771804D01*
X105040000Y-102771804D02*
X106960000Y-102771804D01*
X106960000Y-102771804D02*
X106960000Y-100086804D01*
X105040000Y-67881944D02*
X105040000Y-70566944D01*
X105040000Y-70566944D02*
X106960000Y-70566944D01*
X106960000Y-70566944D02*
X106960000Y-67881944D01*
X117928888Y-55000000D02*
X117928888Y-57685000D01*
X117928888Y-57685000D02*
X119848888Y-57685000D01*
X119848888Y-57685000D02*
X119848888Y-55000000D01*
X124373332Y-67881944D02*
X124373332Y-70566944D01*
X124373332Y-70566944D02*
X126293332Y-70566944D01*
X126293332Y-70566944D02*
X126293332Y-67881944D01*
X137262220Y-61440972D02*
X137262220Y-64125972D01*
X137262220Y-64125972D02*
X139182220Y-64125972D01*
X139182220Y-64125972D02*
X139182220Y-61440972D01*
X117928888Y-112937498D02*
X117928888Y-115622498D01*
X117928888Y-115622498D02*
X119848888Y-115622498D01*
X119848888Y-115622498D02*
X119848888Y-112937498D01*
X150151108Y-55000000D02*
X150151108Y-57685000D01*
X150151108Y-57685000D02*
X152071108Y-57685000D01*
X152071108Y-57685000D02*
X152071108Y-55000000D01*
X111484444Y-112937498D02*
X111484444Y-115622498D01*
X111484444Y-115622498D02*
X113404444Y-115622498D01*
X113404444Y-115622498D02*
X113404444Y-112937498D01*
X105040000Y-112999998D02*
X105040000Y-115684998D01*
X105040000Y-115684998D02*
X106960000Y-115684998D01*
X106960000Y-115684998D02*
X106960000Y-112999998D01*
X143706664Y-55000000D02*
X143706664Y-57685000D01*
X143706664Y-57685000D02*
X145626664Y-57685000D01*
X145626664Y-57685000D02*
X145626664Y-55000000D01*
X150151108Y-100086804D02*
X150151108Y-102771804D01*
X150151108Y-102771804D02*
X152071108Y-102771804D01*
X152071108Y-102771804D02*
X152071108Y-100086804D01*
X124373332Y-112937498D02*
X124373332Y-115622498D01*
X124373332Y-115622498D02*
X126293332Y-115622498D01*
X126293332Y-115622498D02*
X126293332Y-112937498D01*
X105040000Y-80763888D02*
X105040000Y-83448888D01*
X105040000Y-83448888D02*
X106960000Y-83448888D01*
X106960000Y-83448888D02*
X106960000Y-80763888D01*
X163040000Y-87204860D02*
X163040000Y-89889860D01*
X163040000Y-89889860D02*
X164960000Y-89889860D01*
X164960000Y-89889860D02*
X164960000Y-87204860D01*
X130817776Y-112937498D02*
X130817776Y-115622498D01*
X130817776Y-115622498D02*
X132737776Y-115622498D01*
X132737776Y-115622498D02*
X132737776Y-112937498D01*
X150151108Y-67881944D02*
X150151108Y-70566944D01*
X150151108Y-70566944D02*
X152071108Y-70566944D01*
X152071108Y-70566944D02*
X152071108Y-67881944D01*
X150151108Y-61440972D02*
X150151108Y-64125972D01*
X150151108Y-64125972D02*
X152071108Y-64125972D01*
X152071108Y-64125972D02*
X152071108Y-61440972D01*
X137262220Y-106527776D02*
X137262220Y-109212776D01*
X137262220Y-109212776D02*
X139182220Y-109212776D01*
X139182220Y-109212776D02*
X139182220Y-106527776D01*
X130817776Y-61440972D02*
X130817776Y-64125972D01*
X130817776Y-64125972D02*
X132737776Y-64125972D01*
X132737776Y-64125972D02*
X132737776Y-61440972D01*
X156595552Y-93645832D02*
X156595552Y-96330832D01*
X156595552Y-96330832D02*
X158515552Y-96330832D01*
X158515552Y-96330832D02*
X158515552Y-93645832D01*
X143706664Y-112937498D02*
X143706664Y-115622498D01*
X143706664Y-115622498D02*
X145626664Y-115622498D01*
X145626664Y-115622498D02*
X145626664Y-112937498D01*
X124373332Y-100086804D02*
X124373332Y-102771804D01*
X124373332Y-102771804D02*
X126293332Y-102771804D01*
X126293332Y-102771804D02*
X126293332Y-100086804D01*
X163040000Y-61440972D02*
X163040000Y-64125972D01*
X163040000Y-64125972D02*
X164960000Y-64125972D01*
X164960000Y-64125972D02*
X164960000Y-61440972D01*
X111484444Y-55000000D02*
X111484444Y-57685000D01*
X111484444Y-57685000D02*
X113404444Y-57685000D01*
X113404444Y-57685000D02*
X113404444Y-55000000D01*
X111484444Y-93645832D02*
X111484444Y-96330832D01*
X111484444Y-96330832D02*
X113404444Y-96330832D01*
X113404444Y-96330832D02*
X113404444Y-93645832D01*
X130817776Y-87204860D02*
X130817776Y-89889860D01*
X130817776Y-89889860D02*
X132737776Y-89889860D01*
X132737776Y-89889860D02*
X132737776Y-87204860D01*
X105040000Y-74322916D02*
X105040000Y-77007916D01*
X105040000Y-77007916D02*
X106960000Y-77007916D01*
X106960000Y-77007916D02*
X106960000Y-74322916D01*
X150151108Y-87204860D02*
X150151108Y-89889860D01*
X150151108Y-89889860D02*
X152071108Y-89889860D01*
X152071108Y-89889860D02*
X152071108Y-87204860D01*
X156595552Y-100086804D02*
X156595552Y-102771804D01*
X156595552Y-102771804D02*
X158515552Y-102771804D01*
X158515552Y-102771804D02*
X158515552Y-100086804D01*
X111484444Y-87204860D02*
X111484444Y-89889860D01*
X111484444Y-89889860D02*
X113404444Y-89889860D01*
X113404444Y-89889860D02*
X113404444Y-87204860D01*
X117928888Y-93645832D02*
X117928888Y-96330832D01*
X117928888Y-96330832D02*
X119848888Y-96330832D01*
X119848888Y-96330832D02*
X119848888Y-93645832D01*
X111484444Y-106527776D02*
X111484444Y-109212776D01*
X111484444Y-109212776D02*
X113404444Y-109212776D01*
X113404444Y-109212776D02*
X113404444Y-106527776D01*
X137262220Y-112937498D02*
X137262220Y-115622498D01*
X137262220Y-115622498D02*
X139182220Y-115622498D01*
X139182220Y-115622498D02*
X139182220Y-112937498D01*
X117928888Y-61440972D02*
X117928888Y-64125972D01*
X117928888Y-64125972D02*
X119848888Y-64125972D01*
X119848888Y-64125972D02*
X119848888Y-61440972D01*
X105040000Y-55000000D02*
X105040000Y-57685000D01*
X105040000Y-57685000D02*
X106960000Y-57685000D01*
X106960000Y-57685000D02*
X106960000Y-55000000D01*
X163040000Y-80763888D02*
X163040000Y-83448888D01*
X163040000Y-83448888D02*
X164960000Y-83448888D01*
X164960000Y-83448888D02*
X164960000Y-80763888D01*
X105040000Y-93645832D02*
X105040000Y-96330832D01*
X105040000Y-96330832D02*
X106960000Y-96330832D01*
X106960000Y-96330832D02*
X106960000Y-93645832D01*
X111484444Y-74322916D02*
X111484444Y-77007916D01*
X111484444Y-77007916D02*
X113404444Y-77007916D01*
X113404444Y-77007916D02*
X113404444Y-74322916D01*
X156595552Y-106527776D02*
X156595552Y-109212776D01*
X156595552Y-109212776D02*
X158515552Y-109212776D01*
X158515552Y-109212776D02*
X158515552Y-106527776D01*
X137262220Y-74322916D02*
X137262220Y-77007916D01*
X137262220Y-77007916D02*
X139182220Y-77007916D01*
X139182220Y-77007916D02*
X139182220Y-74322916D01*
X143706664Y-80763888D02*
X143706664Y-83448888D01*
X143706664Y-83448888D02*
X145626664Y-83448888D01*
X145626664Y-83448888D02*
X145626664Y-80763888D01*
X143706664Y-93645832D02*
X143706664Y-96330832D01*
X143706664Y-96330832D02*
X145626664Y-96330832D01*
X145626664Y-96330832D02*
X145626664Y-93645832D01*
X137262220Y-93645832D02*
X137262220Y-96330832D01*
X137262220Y-96330832D02*
X139182220Y-96330832D01*
X139182220Y-96330832D02*
X139182220Y-93645832D01*
%LPC*%
D13*
X138222220Y-56937500D03*
X138222220Y-55062500D03*
X112444444Y-82701388D03*
X112444444Y-80826388D03*
X144666664Y-69819444D03*
X144666664Y-67944444D03*
D14*
X101800000Y-43800000D03*
D13*
X157555552Y-63378472D03*
X157555552Y-61503472D03*
X138222220Y-69819444D03*
X138222220Y-67944444D03*
X125333332Y-95583332D03*
X125333332Y-93708332D03*
X144666664Y-63378472D03*
X144666664Y-61503472D03*
X138222220Y-102024304D03*
X138222220Y-100149304D03*
X144666664Y-76260416D03*
X144666664Y-74385416D03*
X164000000Y-76260416D03*
X164000000Y-74385416D03*
X125333332Y-108465276D03*
X125333332Y-106590276D03*
X118888888Y-76260416D03*
X118888888Y-74385416D03*
X125333332Y-82701388D03*
X125333332Y-80826388D03*
X131777776Y-82701388D03*
X131777776Y-80826388D03*
X164000000Y-56937500D03*
X164000000Y-55062500D03*
X125333332Y-56937500D03*
X125333332Y-55062500D03*
X131777776Y-95583332D03*
X131777776Y-93708332D03*
D14*
X168200000Y-43800000D03*
D13*
X151111108Y-95583332D03*
X151111108Y-93708332D03*
X106000000Y-89142360D03*
X106000000Y-87267360D03*
X106000000Y-63378472D03*
X106000000Y-61503472D03*
X131777776Y-69819444D03*
X131777776Y-67944444D03*
X144666664Y-102024304D03*
X144666664Y-100149304D03*
X164000000Y-69819444D03*
X164000000Y-67944444D03*
X157555552Y-69819444D03*
X157555552Y-67944444D03*
X106000000Y-108465276D03*
X106000000Y-106590276D03*
X125333332Y-76260416D03*
X125333332Y-74385416D03*
X151111108Y-76260416D03*
X151111108Y-74385416D03*
X157555552Y-89142360D03*
X157555552Y-87267360D03*
X144666664Y-108465276D03*
X144666664Y-106590276D03*
X151111108Y-82701388D03*
X151111108Y-80826388D03*
X112444444Y-102024304D03*
X112444444Y-100149304D03*
X151111108Y-108465276D03*
X151111108Y-106590276D03*
X118888888Y-89142360D03*
X118888888Y-87267360D03*
X118888888Y-102024304D03*
X118888888Y-100149304D03*
X112444444Y-69819444D03*
X112444444Y-67944444D03*
X157555552Y-76260416D03*
X157555552Y-74385416D03*
X138222220Y-82701388D03*
X138222220Y-80826388D03*
X118888888Y-108465276D03*
X118888888Y-106590276D03*
D14*
X101800000Y-127200000D03*
D13*
X138222220Y-89142360D03*
X138222220Y-87267360D03*
X125333332Y-63378472D03*
X125333332Y-61503472D03*
X151111108Y-114874998D03*
X151111108Y-112999998D03*
X164000000Y-114937498D03*
X164000000Y-113062498D03*
X131777776Y-56937500D03*
X131777776Y-55062500D03*
X131777776Y-108465276D03*
X131777776Y-106590276D03*
X144666664Y-89142360D03*
X144666664Y-87267360D03*
X131777776Y-76260416D03*
X131777776Y-74385416D03*
X157555552Y-114874998D03*
X157555552Y-112999998D03*
X125333332Y-89142360D03*
X125333332Y-87267360D03*
X157555552Y-82701388D03*
X157555552Y-80826388D03*
X131777776Y-102024304D03*
X131777776Y-100149304D03*
X118888888Y-82701388D03*
X118888888Y-80826388D03*
X164000000Y-108465276D03*
X164000000Y-106590276D03*
X164000000Y-102024304D03*
X164000000Y-100149304D03*
X157555552Y-56937500D03*
X157555552Y-55062500D03*
X118888888Y-69819444D03*
X118888888Y-67944444D03*
X164000000Y-95583332D03*
X164000000Y-93708332D03*
X112444444Y-63378472D03*
X112444444Y-61503472D03*
X106000000Y-102024304D03*
X106000000Y-100149304D03*
X106000000Y-69819444D03*
X106000000Y-67944444D03*
X118888888Y-56937500D03*
X118888888Y-55062500D03*
X125333332Y-69819444D03*
X125333332Y-67944444D03*
X138222220Y-63378472D03*
X138222220Y-61503472D03*
X118888888Y-114874998D03*
X118888888Y-112999998D03*
X151111108Y-56937500D03*
X151111108Y-55062500D03*
X112444444Y-114874998D03*
X112444444Y-112999998D03*
X106000000Y-114937498D03*
X106000000Y-113062498D03*
X144666664Y-56937500D03*
X144666664Y-55062500D03*
X151111108Y-102024304D03*
X151111108Y-100149304D03*
X125333332Y-114874998D03*
X125333332Y-112999998D03*
X106000000Y-82701388D03*
X106000000Y-80826388D03*
X164000000Y-89142360D03*
X164000000Y-87267360D03*
X131777776Y-114874998D03*
X131777776Y-112999998D03*
X151111108Y-69819444D03*
X151111108Y-67944444D03*
X151111108Y-63378472D03*
X151111108Y-61503472D03*
X138222220Y-108465276D03*
X138222220Y-106590276D03*
X131777776Y-63378472D03*
X131777776Y-61503472D03*
X157555552Y-95583332D03*
X157555552Y-93708332D03*
X144666664Y-114874998D03*
X144666664Y-112999998D03*
X125333332Y-102024304D03*
X125333332Y-100149304D03*
X164000000Y-63378472D03*
X164000000Y-61503472D03*
X112444444Y-56937500D03*
X112444444Y-55062500D03*
X112444444Y-95583332D03*
X112444444Y-93708332D03*
X131777776Y-89142360D03*
X131777776Y-87267360D03*
X106000000Y-76260416D03*
X106000000Y-74385416D03*
X151111108Y-89142360D03*
X151111108Y-87267360D03*
X157555552Y-102024304D03*
X157555552Y-100149304D03*
X112444444Y-89142360D03*
X112444444Y-87267360D03*
X118888888Y-95583332D03*
X118888888Y-93708332D03*
X112444444Y-108465276D03*
X112444444Y-106590276D03*
X138222220Y-114874998D03*
X138222220Y-112999998D03*
X118888888Y-63378472D03*
X118888888Y-61503472D03*
X106000000Y-56937500D03*
X106000000Y-55062500D03*
X164000000Y-82701388D03*
X164000000Y-80826388D03*
X106000000Y-95583332D03*
X106000000Y-93708332D03*
X112444444Y-76260416D03*
X112444444Y-74385416D03*
X157555552Y-108465276D03*
X157555552Y-106590276D03*
X138222220Y-76260416D03*
X138222220Y-74385416D03*
X144666664Y-82701388D03*
X144666664Y-80826388D03*
X144666664Y-95583332D03*
X144666664Y-93708332D03*
X138222220Y-95583332D03*
X138222220Y-93708332D03*
D15*
X167200000Y-118680000D03*
D16*
X163020000Y-118680000D03*
X163020000Y-127320000D03*
D15*
X167200000Y-127320000D03*
M02*
